<?xml version="1.0" standalone="no"?><!DOCTYPE svg PUBLIC "-//W3C//DTD SVG 1.1//EN" "http://www.w3.org/Graphics/SVG/1.1/DTD/svg11.dtd" ><svg xmlns="http://www.w3.org/2000/svg"><metadata>Generated by Glyphter</metadata><defs><font id="bc-icons" horiz-adv-x="0"><font-face units-per-em="1024" ascent="1024" descent="0" font-family="bc-icons" font-weight="normal" /><missing-glyph horiz-adv-x="0" /><glyph unicode="&#x0042;" d="M512,1024C229.717,1024,0,798.037,0,520.42C0,457.102,11.833,395.15,35.442,337.01C52.508,293.148,77.483,251.79,107.634,213.049C107.634,213.049,38.059,52.964,38.059,52.964C32.825,40.05,34.133,24.519,43.349,14.222C51.2,5.177,61.724,0,73.5,0C76.117,0,77.483,0,80.1,0C80.1,0,343.95,45.17,343.95,45.17C397.767,27.136,454.258,16.782,512,16.782C794.283,16.782,1024,242.745,1024,520.42C1024,798.037,794.283,1024,512,1024C512,1024,512,1024,512,1024M512,94.265C460.8,94.265,409.6,103.31,361.017,121.401C354.475,123.961,347.876,123.961,340.025,122.652C340.025,122.652,136.533,87.78,136.533,87.78C136.533,87.78,186.425,204.004,186.425,204.004C191.659,216.917,190.35,233.7,179.883,244.053C148.366,280.235,123.392,321.536,106.325,364.146C86.642,413.241,76.117,466.148,76.117,519.111C76.117,754.119,270.45,945.209,509.383,945.209C748.316,945.209,942.592,754.119,942.592,519.111C942.592,284.103,750.933,94.265,512,94.265C512,94.265,512,94.265,512,94.265" class="bcico-comment-l"/><glyph unicode="&#x0043;" d="M991.321,270.867C991.321,270.867,943.497,287.42,943.497,287.42C943.497,287.42,755.274,351.327,755.274,351.327C738.849,356.958,720.675,353.289,707.663,341.813C707.663,341.813,643.927,285.585,643.927,285.585C630.36,273.555,610.907,270.824,594.524,278.589C455.063,342.539,343.247,454.526,279.553,594.072C271.618,610.326,274.135,629.737,285.91,643.474C285.91,643.474,341.711,707.168,341.711,707.168C353.187,720.18,356.813,738.354,351.225,754.779C351.225,754.779,287.744,942.917,287.744,942.917C287.744,942.917,270.978,991.636,270.978,991.636C270.978,991.636,270.978,991.636,270.978,991.636C268.546,998.548,264.579,1004.819,259.374,1009.981C251.098,1018.428,239.92,1023.419,228.103,1024.059C161.722,1028.411,97.345,1000.339,55.323,948.804C51.228,943.599,47.857,939.29,45.34,935.878C45.34,935.878,40.136,929.052,40.136,929.052C37.704,926.108,35.443,922.994,33.31,919.794C31.305,916.594,29.257,913.437,27.423,910.025C27.423,910.025,27.423,910.025,27.423,910.025C-48.771,777.432,40.818,524.704,244.869,305.295C244.869,305.295,244.869,305.295,244.869,305.295C253.188,296.549,261.593,287.846,270.04,279.229C270.04,279.229,274.604,274.963,274.604,274.963C274.604,274.963,278.913,270.398,278.913,270.398C287.488,261.78,296.191,253.418,304.98,245.27C304.98,245.27,304.98,245.27,304.98,245.27C525.157,41.262,777.287,-49.394,909.922,27.866C909.922,27.866,909.922,27.866,909.922,27.866C909.922,27.866,919.649,33.796,919.649,33.796C922.892,35.886,926.006,38.147,928.95,40.579C928.95,40.579,935.775,45.784,935.775,45.784C935.775,45.784,948.702,55.767,948.702,55.767C1000.28,97.746,1028.351,162.122,1023.957,228.461C1023.36,240.279,1018.326,251.456,1009.921,259.775C1004.759,264.937,998.445,268.905,991.534,271.336C991.534,271.336,991.321,270.867,991.321,270.867C991.321,270.867,991.321,270.867,991.321,270.867" class="bcico-phone"/><glyph unicode="&#x0044;" d="M512.091,418.909C460.705,418.909,419,460.567,419,512C419,563.386,460.705,605.091,512.091,605.091C563.524,605.091,605.182,563.386,605.182,512C605.182,460.567,563.524,418.909,512.091,418.909C512.091,418.909,512.091,418.909,512.091,418.909M512.091,837.818C460.705,837.818,419,879.476,419,930.909C419,982.342,460.705,1024,512.091,1024C563.524,1024,605.182,982.342,605.182,930.909C605.182,879.476,563.524,837.818,512.091,837.818C512.091,837.818,512.091,837.818,512.091,837.818M512.091,186.182C563.524,186.182,605.182,144.524,605.182,93.091C605.182,41.658,563.524,0,512.091,0C460.705,0,419,41.658,419,93.091C419,144.524,460.705,186.182,512.091,186.182C512.091,186.182,512.091,186.182,512.091,186.182" class="bcico-ellipsis-v"/><glyph unicode="&#x0045;" d="M249.019,0C184.951,0,122.931,24.818,73.344,72.357C-23.781,169.531,-23.781,326.678,73.344,423.852C73.344,423.852,600.319,951.119,600.319,951.119C697.396,1048.294,854.445,1048.294,951.57,951.119C1048.688,853.945,1048.688,696.798,951.57,599.624C951.57,599.624,893.744,657.499,893.744,657.499C957.763,721.616,957.763,827.079,893.744,891.147C829.676,955.264,724.261,955.264,660.194,891.147C660.194,891.147,131.22,363.88,131.22,363.88C67.152,299.812,67.152,194.349,131.22,130.281C195.288,66.164,300.653,66.164,364.721,130.281C364.721,130.281,716.021,481.776,716.021,481.776C740.839,506.594,740.839,545.844,716.021,568.614C693.3,591.335,651.954,591.335,629.232,568.614C629.232,568.614,335.759,277.042,335.759,277.042C335.759,277.042,277.932,334.966,277.932,334.966C277.932,334.966,569.309,626.49,569.309,626.49C596.175,653.355,633.377,669.933,670.53,669.933C707.732,669.933,744.935,655.452,771.8,626.49C825.531,572.758,827.579,483.824,775.945,425.949C775.945,425.949,775.945,425.949,775.945,425.949C775.945,425.949,424.644,72.357,424.644,72.357C375.058,22.77,310.99,0,249.019,0C249.019,0,249.019,0,249.019,0" class="bcico-paperclip"/><glyph unicode="&#x0046;" d="M804.576,403.478C838.278,392.164,982.354,316.876,982.354,316.876C982.354,316.876,1024,267.948,1024,207.766C1024,207.766,888.891,207.766,888.891,207.766C876.253,227.385,863.795,246.644,862.23,248.208C862.23,248.208,850.615,256.935,850.615,256.935C831.056,267.105,669.045,351.481,608.021,375.734C608.021,375.915,607.961,376.095,607.9,376.276C611.511,377.781,614.581,378.984,617.048,379.827C640.158,387.53,644.19,409.737,647.079,425.926C648.644,434.593,650.269,443.439,653.94,451.985C653.94,451.985,660.018,466.248,660.018,466.248C660.018,466.248,649.787,477.984,649.787,477.984C648.523,479.428,647.259,480.933,646.116,482.498C649.306,490.321,652.255,498.386,655.023,506.631C693.54,528.778,706.96,588.238,711.113,614.778C714.603,637.106,720.02,691.691,697.151,725.634C696.549,747.54,694.262,778.534,687.281,808.384C684.572,815.546,680.721,824.693,676.388,834.503C686.679,833.3,698.053,832.517,710.692,832.517C766.661,832.517,790.493,794.783,798.016,779.136C799.701,777.27,801.326,775.224,802.83,773.178C855.67,802.366,853.143,669.123,853.143,669.123C863.554,667.558,868.188,641.318,863.434,610.505C858.619,579.632,846.342,555.92,835.931,557.485C834.005,557.785,832.32,559.109,830.875,560.915C820.644,518.727,802.77,482.979,779.901,458.304C791.817,434.051,788.266,408.955,804.576,403.478C804.576,403.478,804.576,403.478,804.576,403.478M622.645,548.397C619.937,548.818,617.65,550.684,615.604,553.212C601.34,494.293,576.365,444.402,544.468,410.038C561.018,376.156,556.083,341.19,578.893,333.547C625.895,317.719,826.843,212.761,826.843,212.761C826.843,212.761,884.979,144.454,884.979,60.5C884.979,60.5,0,60.5,0,60.5C0,144.454,58.076,212.761,58.076,212.761C58.076,212.761,259.024,317.719,305.966,333.547C326.91,340.528,319.868,376.697,336.118,414.732C306.448,448.735,283.037,496.64,269.375,552.73C267.45,550.503,265.163,548.758,262.635,548.397C248.131,546.17,230.979,579.27,224.359,622.301C217.679,665.331,224.118,701.922,238.683,704.088C240.067,704.269,241.451,704.149,242.835,703.727C221.952,796.829,300.129,963.594,300.129,963.594C300.129,963.594,349.418,932.059,447.936,932.059C525.992,932.059,559.273,879.459,569.745,857.553C572.152,855.025,574.319,852.137,576.485,849.308C650.148,889.991,646.658,704.088,646.658,704.088C661.101,701.922,667.661,665.331,660.981,622.301C654.241,579.27,637.149,546.17,622.645,548.397C622.645,548.397,622.645,548.397,622.645,548.397" class="bcico-people"/><glyph unicode="&#x0047;" d="M655.703,186.5C655.703,186.5,655.703,225.783,655.703,225.783C655.703,292.293,630.942,352.939,590.868,401.996C617.49,412.98,646.487,419.775,677.485,419.775C677.485,419.775,811.762,419.775,811.762,419.775C928.772,419.775,1024,332.739,1024,225.783C1024,225.783,1024,186.5,1024,186.5C1024,186.5,655.703,186.5,655.703,186.5C655.703,186.5,655.703,186.5,655.703,186.5M744.6,466.039C641.879,466.039,558.287,549.492,558.287,652.073C558.287,754.655,641.879,838.107,744.6,838.107C847.321,838.107,930.913,754.655,930.913,652.073C930.913,549.492,847.321,466.039,744.6,466.039C744.6,466.039,744.6,466.039,744.6,466.039M279.353,466.039C176.632,466.039,93.087,549.492,93.087,652.073C93.087,754.655,176.632,838.107,279.353,838.107C382.121,838.107,465.666,754.655,465.666,652.073C465.666,549.492,382.121,466.039,279.353,466.039C279.353,466.039,279.353,466.039,279.353,466.039M212.284,419.775C212.284,419.775,346.515,419.775,346.515,419.775C463.572,419.775,558.799,332.739,558.799,225.783C558.799,225.783,558.799,186.5,558.799,186.5C558.799,186.5,0,186.5,0,186.5C0,186.5,0,225.783,0,225.783C0,332.739,95.228,419.775,212.284,419.775C212.284,419.775,212.284,419.775,212.284,419.775" class="bcico-people-2"/><glyph unicode="&#x0048;" d="M1023.515,969.183C1023.515,969.183,1023.515,969.115,1023.515,969.115C1023.515,969.115,1023.515,969.046,1023.515,969.046C1023.515,969.046,1023.515,969.046,1023.515,968.978C1023.515,968.978,983.531,651.762,983.531,651.762C980.125,624.992,955.808,605.919,929.175,609.461C904.585,612.595,886.67,633.643,886.67,657.824C886.67,659.935,886.806,661.979,887.079,664.091C887.079,664.091,909.148,839.626,909.148,839.626C909.148,839.626,596.155,525.066,596.155,525.066C586.619,515.529,574.221,510.761,561.756,510.761C549.291,510.761,536.894,515.529,527.358,525.066C508.353,544.138,508.353,575.063,527.358,594.135C527.358,594.135,840.419,908.764,840.419,908.764C840.419,908.764,665.701,886.49,665.701,886.49C639.136,883.084,614.751,902.02,611.345,928.79C608.007,955.559,626.807,980.013,653.509,983.419C653.509,983.419,969.091,1023.607,969.091,1023.607C977.605,1024.697,986.597,1023.539,994.907,1019.861C996.405,1019.18,997.768,1018.499,999.13,1017.681C999.13,1017.681,999.198,1017.681,999.198,1017.681C1005.942,1013.867,1011.459,1008.622,1015.614,1002.423C1015.682,1002.355,1015.682,1002.355,1015.682,1002.355C1017.044,1000.244,1018.339,997.996,1019.36,995.748C1019.36,995.748,1019.36,995.68,1019.428,995.68C1023.107,987.642,1024.605,978.583,1023.584,969.387C1023.584,969.319,1023.584,969.319,1023.584,969.251C1023.584,969.251,1023.584,969.251,1023.584,969.251C1023.515,969.251,1023.515,969.183,1023.515,969.183C1023.515,969.183,1023.515,969.183,1023.515,969.183M593.771,277.736C610.119,269.971,629.532,272.763,643.087,284.752C643.087,284.752,706.639,340.88,706.639,340.88C719.649,352.391,737.768,356.001,754.184,350.416C754.184,350.416,941.98,286.523,941.98,286.523C941.98,286.523,989.73,270.039,989.73,270.039C989.73,270.039,989.934,270.516,989.934,270.516C996.882,268.063,1003.149,264.113,1008.257,258.936C1016.704,250.626,1021.676,239.523,1022.289,227.671C1026.649,161.394,998.653,97.092,947.157,55.2C947.157,55.2,934.283,45.256,934.283,45.256C934.283,45.256,927.54,40.011,927.54,40.011C924.543,37.558,921.409,35.311,918.208,33.199C918.208,33.199,908.467,27.341,908.467,27.341C776.118,-49.835,524.497,40.692,304.822,244.427C296.035,252.601,287.384,260.979,278.802,269.562C278.802,269.562,274.511,274.126,274.511,274.126C274.511,274.126,269.947,278.417,269.947,278.417C261.5,287,253.122,295.719,244.812,304.437C41.213,523.567,-48.156,776.005,27.862,908.491C29.701,911.829,31.677,915.03,33.72,918.232C35.832,921.433,38.079,924.499,40.532,927.496C40.532,927.496,45.708,934.307,45.708,934.307C48.229,937.645,51.635,942.004,55.653,947.181C97.613,998.677,161.846,1026.673,228.123,1022.313C239.908,1021.7,251.01,1016.728,259.321,1008.281C264.497,1003.173,268.448,996.906,270.9,989.958C270.9,989.958,287.589,941.323,287.589,941.323C287.589,941.323,350.937,753.391,350.937,753.391C356.59,736.975,352.98,718.856,341.469,705.846C341.469,705.846,285.818,642.225,285.818,642.225C274.034,628.534,271.513,609.121,279.483,592.841C343.035,453.475,454.541,341.629,593.771,277.736C593.771,277.736,593.771,277.736,593.771,277.736" class="bcico-phone-call"/><glyph unicode="&#x0049;" d="M1024,438.857C1024,438.857,585.143,438.857,585.143,438.857C585.143,438.857,585.143,0,585.143,0C585.143,0,438.857,0,438.857,0C438.857,0,438.857,438.857,438.857,438.857C438.857,438.857,0,438.857,0,438.857C0,438.857,0,585.143,0,585.143C0,585.143,438.857,585.143,438.857,585.143C438.857,585.143,438.857,1024,438.857,1024C438.857,1024,585.143,1024,585.143,1024C585.143,1024,585.143,585.143,585.143,585.143C585.143,585.143,1024,585.143,1024,585.143C1024,585.143,1024,438.857,1024,438.857C1024,438.857,1024,438.857,1024,438.857" class="bcico-plus"/><glyph unicode="&#x004a;" d="M1024,44.279C1024,44.279,979.721,0,979.721,0C979.721,0,725.052,254.669,725.052,254.669C648.165,188.02,548.089,147.375,438.338,147.375C196.262,147.375,0,343.586,0,585.662C0,827.738,196.262,1024,438.338,1024C680.414,1024,876.625,827.738,876.625,585.662C876.625,475.911,835.98,375.835,769.331,298.948C769.331,298.948,1024,44.279,1024,44.279C1024,44.279,1024,44.279,1024,44.279M438.338,961.395C230.815,961.395,62.605,793.185,62.605,585.662C62.605,378.19,230.815,209.98,438.338,209.98C645.81,209.98,814.02,378.19,814.02,585.662C814.02,793.185,645.81,961.395,438.338,961.395C438.338,961.395,438.338,961.395,438.338,961.395" class="bcico-search"/><glyph unicode="&#x004b;" d="M1012.74,526.182C972.809,498.52,932.985,470.805,892.839,443.575C891.44,443.036,890.202,442.229,889.126,441.207C884.605,436.955,884.497,430.013,888.91,425.654C914.204,390.028,939.013,354.241,963.983,318.507C972.055,307.313,972.055,303.008,963.983,292.353C963.983,292.353,857.374,152.486,857.374,152.486C849.894,142.745,846.127,138.978,839.185,138.978C834.018,139.355,828.96,140.324,824.116,141.938C777.835,155.338,731.715,168.039,685.649,181.277C683.765,181.923,681.828,182.246,679.837,182.3C674.724,181.923,670.634,178.048,670.311,173.151C656.696,130.26,642.65,87.746,628.712,45.231C623.922,30.593,620.855,28.064,604.979,28.064C544.221,28.064,483.625,28.064,422.867,28.064C411.943,27.257,401.987,34.145,399.242,44.37C381.913,87.477,363.885,130.368,346.072,173.259C342.628,181.6,340.96,184.829,336.654,184.829C332.726,184.399,328.905,183.43,325.299,181.869C325.299,181.869,201.093,138.601,201.093,138.601C197.595,137.256,193.935,136.503,190.222,136.341C184.141,136.933,178.759,140.324,175.692,145.382C175.692,145.382,57.943,281.267,57.943,281.267C48.579,291.976,48.203,296.012,55.575,308.121C55.575,308.121,129.572,430.497,129.572,430.497C135.438,440.399,135.438,442.283,125.213,448.257C125.213,448.257,12.577,516.333,12.577,516.333C-0.07,524.137,-1.792,527.581,1.383,541.95C14.407,599.855,27.484,657.599,40.507,715.074C41.691,723.685,49.171,730.25,58.212,730.573C107.992,737.462,157.664,744.189,207.443,750.27C209.004,750.108,210.672,750.27,212.179,750.754C217.937,752.638,220.951,758.665,219.014,764.154C214.009,807.53,209.65,851.12,204.752,894.496C202.6,903.321,207.551,912.362,216.323,915.753C272.13,941.208,327.667,967.254,383.689,993.032C387.456,995.131,391.708,996.369,396.067,996.691C402.148,995.938,407.691,992.871,411.404,988.135C446.654,955.092,482.064,922.318,517.098,889.06C517.959,887.876,519.036,886.8,520.273,886.047C525.44,882.764,532.328,884.109,535.718,889.06C568.115,919.358,600.889,949.172,633.232,979.47C636.999,983.507,642.327,985.928,647.978,986.036C651.745,985.982,655.458,985.013,658.849,983.291C714.602,956.76,770.462,930.337,826.377,904.129C833.265,901.976,838.108,896.002,838.647,889.06C833.749,846.869,829.444,805.969,824.332,765.231C822.179,747.418,821.748,747.041,840.692,745.534C874.488,742.897,908.822,740.744,943.103,738.646C965.813,737.3,967.589,736.332,973.831,715.236C990.084,660.236,1006.282,605.183,1022.481,550.183C1025.871,538.774,1023.988,534.254,1012.74,526.182C1012.74,526.182,1012.74,526.182,1012.74,526.182M920.769,680.794C894.13,682.408,864.962,684.346,836.279,686.552C813.891,686.283,792.473,695.378,777.62,711.523C764.112,728.528,758.999,750.377,763.574,771.312C763.574,771.312,763.574,772.28,763.574,772.28C767.179,800.856,770.462,829.163,773.799,858.654C773.799,858.654,773.799,863.121,773.799,863.121C773.799,863.121,656.265,918.713,656.265,918.713C656.265,918.713,626.667,891.536,626.667,891.536C610.576,876.683,594.539,861.83,578.556,846.869C577.479,845.792,576.403,844.77,575.327,843.747C546.374,817.808,501.007,819.261,473.992,847.084C446.976,872.862,419.1,898.909,392.085,924.094C392.085,924.094,386.864,928.938,386.864,928.938C386.864,928.938,340.152,907.196,340.152,907.196C340.152,907.196,268.47,874.046,268.47,874.046C269.815,861.614,271.161,849.237,272.452,836.859C274.82,814.687,277.188,792.569,279.718,770.451C279.933,769.051,280.094,767.598,280.256,766.199C283.592,728.313,254.37,695.001,214.924,691.718C183.549,687.897,151.421,683.7,120.692,679.664C120.692,679.664,94.161,676.219,94.161,676.219C86.735,642.639,79.201,609.058,71.666,575.584C71.666,575.584,66.823,553.358,66.823,553.358C66.823,553.358,95.399,536.03,95.399,536.03C95.399,536.03,158.148,499.22,158.148,499.22C196.088,476.402,205.56,439.054,182.957,401.76C182.957,401.76,147.815,343.908,147.815,343.908C147.815,343.908,121.715,300.909,121.715,300.909C121.715,300.909,205.56,204.095,205.56,204.095C205.56,204.095,263.358,223.792,263.358,223.792C263.358,223.792,304.311,238.053,304.311,238.053C314.59,242.089,325.568,244.295,336.654,244.564C357.858,244.564,386.542,235.685,403.224,195.377C403.224,195.377,416.624,163.088,416.624,163.088C427.388,138.332,437.613,112.931,447.891,87.477C447.891,87.477,578.448,87.477,578.448,87.477C578.448,87.477,580.601,94.042,580.601,94.042C591.041,125.632,601.804,158.406,612.029,190.534C620.048,220.455,648.085,241.335,680.213,241.389C688.178,241.389,696.089,240.205,703.677,237.945C733.491,229.227,764.919,220.563,794.948,212.167C794.948,212.167,821.156,204.902,821.156,204.902C821.156,204.902,898.274,306.721,898.274,306.721C898.274,306.721,891.816,315.978,891.816,315.978C874.272,341.056,856.19,367.103,838.162,392.396C836.978,393.903,835.848,395.463,834.826,397.024C813.622,429.152,823.524,471.72,856.998,492.062C888.318,513.32,920.07,535.33,950.798,556.587C950.798,556.587,955.803,559.816,955.803,559.816C944.018,600.339,932.34,640.701,920.769,680.794C920.769,680.794,920.769,680.794,920.769,680.794M510.156,270.719C510.156,270.719,509.241,270.719,509.241,270.719C368.782,270.396,254.693,379.48,254.317,514.396C253.994,649.258,367.545,758.88,508.003,759.203C508.003,759.203,509.403,759.203,509.403,759.203C650.023,759.042,764.004,649.796,764.542,514.773C764.542,513.535,764.542,512.351,764.542,511.113C763.359,377.274,649.485,269.642,510.156,270.719C510.156,270.719,510.156,270.719,510.156,270.719M509.134,700.221C509.134,700.221,508.003,700.221,508.003,700.221C401.502,699.845,315.505,616.592,315.882,514.288C316.258,411.985,402.901,329.378,509.403,329.755C509.403,329.755,510.048,329.755,510.048,329.755C510.048,329.755,510.156,329.755,510.156,329.755C616.657,330.024,702.708,413.169,702.439,515.472C702.17,617.776,615.581,700.49,509.134,700.221C509.134,700.221,509.134,700.221,509.134,700.221" class="bcico-settings"/><glyph unicode="&#x004c;" d="M910.09,0.5C910.09,0.5,441.533,1.11,441.533,1.11C441.533,1.11,441.533,3.67,441.533,3.67C397.53,4.767,362.181,40.359,362.181,84.606C362.181,84.606,362.912,704.798,362.912,704.798C362.912,704.798,181.779,471.251,181.779,471.251C154.353,435.78,103.036,429.076,67.443,456.624C31.972,484.172,25.512,535.367,53.182,570.96C53.182,570.96,380.099,992.709,380.099,992.709C388.997,1004.167,401.064,1013.431,415.204,1018.916C417.764,1019.892,420.202,1020.745,422.761,1021.476C422.761,1021.476,422.761,1021.476,422.761,1021.476C435.316,1025.011,448.115,1025.377,460.304,1022.939C460.426,1022.939,460.426,1022.939,460.426,1022.939C464.571,1022.086,468.715,1020.989,472.616,1019.526C472.616,1019.526,472.738,1019.526,472.738,1019.526C486.633,1014.406,499.188,1005.63,508.696,993.441C508.696,993.441,508.696,993.319,508.818,993.319C508.818,993.319,508.818,993.197,508.94,993.197C508.94,993.197,508.94,993.197,508.94,993.197C508.94,993.197,508.94,993.197,508.94,993.075C508.94,993.075,508.94,993.075,508.94,993.075C509.062,993.075,509.062,992.953,509.062,992.953C509.062,992.953,835.369,571.691,835.369,571.691C862.917,536.22,856.579,484.781,820.742,457.355C787.953,431.88,741.877,435.415,713.354,463.938C710.916,466.375,708.6,468.935,706.528,471.739C706.528,471.739,525.883,704.92,525.883,704.92C525.883,704.92,525.273,170.907,525.273,170.907C525.273,170.907,909.968,170.297,909.968,170.297C931.543,170.297,951.046,160.668,965.307,145.309C979.447,129.951,988.223,108.741,988.223,85.338C988.223,38.409,953.362,0.378,910.09,0.5C910.09,0.5,910.09,0.5,910.09,0.5" class="bcico-arrow-bounce"/><glyph unicode="&#x004d;" d="M926.983,1023.045C951.89,1023.045,976.943,1013.577,995.879,994.642C1034.04,956.626,1034.04,895.013,995.879,856.997C995.879,856.997,368.391,230.529,368.391,230.529C368.391,230.529,718.549,274.954,718.549,274.954C771.859,281.654,820.8,243.929,827.5,190.619C834.346,137.308,796.475,88.659,743.165,81.813C743.165,81.813,110.433,1.848,110.433,1.848C93.246,-0.483,75.33,1.994,58.58,9.276C55.666,10.587,52.899,12.044,50.131,13.501C50.131,13.501,50.131,13.646,50.131,13.646C36.585,21.22,25.37,31.708,17.067,44.088C17.067,44.088,17.067,44.088,17.067,44.088C14.154,48.312,11.678,52.828,9.639,57.343C9.639,57.343,9.639,57.343,9.493,57.489C2.065,73.365,-0.994,91.572,1.191,109.925C1.191,109.925,1.191,109.925,1.191,109.925C1.191,109.925,1.191,109.925,1.191,110.071C1.191,110.071,1.191,110.071,1.191,110.071C1.191,110.071,1.191,110.216,1.191,110.216C1.191,110.216,1.191,110.216,1.191,110.216C1.191,110.216,1.191,110.362,1.337,110.362C1.337,110.362,1.337,110.362,1.337,110.362C1.337,110.508,1.337,110.508,1.337,110.508C1.337,110.508,81.448,742.22,81.448,742.22C88.293,795.53,137.088,833.546,190.399,826.555C239.63,820.291,275.608,778.488,275.608,730.13C275.608,726.052,275.462,721.973,274.879,717.749C274.879,717.749,230.454,368.174,230.454,368.174C230.454,368.174,858.088,994.642,858.088,994.642C877.023,1013.577,902.076,1023.045,926.983,1023.045C926.983,1023.045,926.983,1023.045,926.983,1023.045" class="bcico-arrow-in"/><glyph unicode="&#x004e;" d="M98.273,0C73.444,0,48.468,9.494,29.481,28.481C-8.494,66.602,-8.494,128.383,29.481,166.504C29.481,166.504,656.062,794.692,656.062,794.692C656.062,794.692,306.404,750.291,306.404,750.291C253.239,743.426,204.31,781.255,197.592,834.711C190.873,888.168,228.556,936.951,281.866,943.815C281.866,943.815,913.413,1024,913.413,1024C930.502,1026.337,948.613,1023.854,965.263,1016.551C968.038,1015.237,970.959,1013.776,973.734,1012.316C973.734,1012.316,973.734,1012.169,973.734,1012.169C987.171,1004.575,998.272,994.058,1006.597,981.644C1006.743,981.644,1006.743,981.644,1006.743,981.644C1009.518,977.408,1012.001,973.026,1014.046,968.353C1014.046,968.353,1014.046,968.207,1014.192,968.207C1021.641,952.14,1024.708,934.029,1022.517,915.772C1022.517,915.772,1022.517,915.772,1022.517,915.772C1022.517,915.626,1022.517,915.626,1022.517,915.48C1022.517,915.48,1022.517,915.48,1022.517,915.48C1022.517,915.48,1022.517,915.334,1022.517,915.334C1022.517,915.334,1022.517,915.334,1022.517,915.334C1022.517,915.334,1022.517,915.188,1022.371,915.188C1022.371,915.188,1022.371,915.188,1022.371,915.188C1022.371,915.042,1022.371,915.042,1022.371,914.896C1022.371,914.896,942.332,281.596,942.332,281.596C935.614,228.14,886.977,190.019,833.52,197.03C784.445,203.31,748.516,245.228,748.516,293.719C748.516,297.809,748.808,301.898,749.246,306.134C749.246,306.134,793.647,656.669,793.647,656.669C793.647,656.669,167.066,28.481,167.066,28.481C148.079,9.494,123.249,0,98.273,0C98.273,0,98.273,0,98.273,0" class="bcico-arrow-out"/><glyph unicode="&#x004f;" d="M773.449,249.829C773.449,249.829,604.796,249.894,604.796,249.894C604.796,249.894,604.861,1024,604.861,1024C604.861,1024,419.229,1024,419.229,1024C419.229,1024,419.229,249.829,419.229,249.829C419.229,249.829,251,249.894,251,249.894C251,249.894,512.224,0,512.224,0C512.224,0,773.449,249.829,773.449,249.829" class="bcico-arrow-sort"/><glyph unicode="&#x0050;" d="M511.345,1024C228.762,1024,0,799.089,0,521.257C0,457.769,12.124,396.902,34.98,338.698C53.821,292.372,79.38,248.709,111.698,209.019C111.698,209.019,37.683,37.028,37.683,37.028C33.628,27.771,34.98,17.203,41.697,10.568C47.104,3.973,55.173,0,63.242,0C64.594,0,65.946,0,67.297,0C67.297,0,341.77,47.636,341.77,47.636C396.943,27.771,454.82,18.514,512.655,18.514C795.238,18.514,1024,243.425,1024,521.257C1024,799.089,793.928,1024,511.345,1024C511.345,1024,511.345,1024,511.345,1024M686.244,359.875C686.244,359.875,336.404,359.875,336.404,359.875C321.618,359.875,309.494,371.753,309.494,386.335C309.494,400.876,321.618,412.795,336.404,412.795C336.404,412.795,686.244,412.795,686.244,412.795C701.071,412.795,713.155,400.876,713.155,386.335C713.155,371.753,701.071,359.875,686.244,359.875C686.244,359.875,686.244,359.875,686.244,359.875M686.244,492.175C686.244,492.175,336.404,492.175,336.404,492.175C321.618,492.175,309.494,504.054,309.494,518.636C309.494,533.176,321.618,545.096,336.404,545.096C336.404,545.096,686.244,545.096,686.244,545.096C701.071,545.096,713.155,533.176,713.155,518.636C713.155,504.054,701.071,492.175,686.244,492.175C686.244,492.175,686.244,492.175,686.244,492.175M686.244,611.246C686.244,611.246,336.404,611.246,336.404,611.246C321.618,611.246,309.494,623.124,309.494,637.706C309.494,652.247,321.618,664.166,336.404,664.166C336.404,664.166,686.244,664.166,686.244,664.166C701.071,664.166,713.155,652.247,713.155,637.706C713.155,623.124,701.071,611.246,686.244,611.246C686.244,611.246,686.244,611.246,686.244,611.246" class="bcico-comment"/><glyph unicode="&#x0051;" d="M810.709,938.906C810.709,930,807.261,922.129,800.424,915.291C800.424,915.291,397.19,512.057,397.19,512.057C397.19,512.057,800.424,108.824,800.424,108.824C807.261,101.986,810.709,94.115,810.709,85.209C810.709,76.303,807.261,68.431,800.424,61.594C800.424,61.594,749.115,10.285,749.115,10.285C742.277,3.447,734.406,0,725.5,0C716.594,0,708.723,3.447,701.885,10.285C701.885,10.285,223.785,488.385,223.785,488.385C216.947,495.223,213.5,503.094,213.5,512C213.5,520.906,216.947,528.777,223.785,535.615C223.785,535.615,701.885,1013.715,701.885,1013.715C708.723,1020.553,716.594,1024,725.5,1024C734.406,1024,742.277,1020.553,749.115,1013.715C749.115,1013.715,800.424,962.406,800.424,962.406C807.261,955.569,810.709,947.697,810.709,938.791C810.709,938.791,810.709,938.906,810.709,938.906" class="bcico-chevron-left"/><glyph unicode="&#x0052;" d="M1023.885,725.443C1023.885,716.538,1020.438,708.667,1013.601,701.83C1013.601,701.83,535.555,223.784,535.555,223.784C528.718,216.947,520.847,213.5,511.943,213.5C503.038,213.5,495.167,216.947,488.33,223.784C488.33,223.784,10.284,701.83,10.284,701.83C3.447,708.667,0,716.538,0,725.443C0,734.347,3.447,742.218,10.284,749.055C10.284,749.055,61.587,800.358,61.587,800.358C68.424,807.195,76.294,810.642,85.199,810.642C94.104,810.642,101.975,807.195,108.811,800.358C108.811,800.358,512,397.17,512,397.17C512,397.17,915.189,800.358,915.189,800.358C922.025,807.195,929.896,810.642,938.801,810.642C947.706,810.642,955.576,807.195,962.413,800.358C962.413,800.358,1013.716,749.055,1013.716,749.055C1020.553,742.218,1024,734.347,1024,725.443C1024,725.443,1023.885,725.443,1023.885,725.443" class="bcico-chevron-down"/><glyph unicode="&#x0053;" d="M1024,298.699C1024,289.794,1020.553,281.924,1013.716,275.087C1013.716,275.087,962.413,223.784,962.413,223.784C955.576,216.947,947.706,213.5,938.801,213.5C929.896,213.5,922.025,216.947,915.189,223.784C915.189,223.784,512,626.972,512,626.972C512,626.972,108.811,223.784,108.811,223.784C101.975,216.947,94.104,213.5,85.199,213.5C76.294,213.5,68.424,216.947,61.587,223.784C61.587,223.784,10.284,275.087,10.284,275.087C3.447,281.924,0,289.794,0,298.699C0,307.604,3.447,315.475,10.284,322.311C10.284,322.311,488.33,800.358,488.33,800.358C495.167,807.195,503.038,810.642,511.943,810.642C520.847,810.642,528.718,807.195,535.555,800.358C535.555,800.358,1013.601,322.311,1013.601,322.311C1020.438,315.475,1023.885,307.604,1023.885,298.699C1023.885,298.699,1024,298.699,1024,298.699" class="bcico-chevron-up"/><glyph unicode="&#x0054;" d="M512,901.24C512,901.24,512,901.24,512,901.24C512,901.24,0,532.6,0,532.6C0,512.12,0,512.12,0,491.64C0,491.64,20.48,471.16,40.96,491.64C40.96,491.64,512,839.8,512,839.8C512,839.8,983.04,491.64,983.04,491.64C1003.52,471.16,1024,491.64,1024,491.64C1024,491.64,1024,512.12,1024,532.6C1024,532.6,512,901.24,512,901.24C532.48,901.24,512,901.24,512,901.24C512,901.24,512,901.24,512,901.24M184.32,573.56C184.32,573.56,143.36,532.6,143.36,532.6C143.36,532.6,143.36,143.48,143.36,143.48C143.36,123,163.84,123,163.84,123C163.84,123,409.6,123,409.6,123C430.08,123,430.08,143.48,430.08,143.48C430.08,143.48,430.08,368.76,430.08,368.76C430.08,368.76,593.92,368.76,593.92,368.76C593.92,368.76,593.92,143.48,593.92,143.48C593.92,123,614.4,123,614.4,123C614.4,123,860.16,123,860.16,123C880.64,123,880.64,143.48,880.64,143.48C880.64,143.48,880.64,532.6,880.64,532.6C880.64,532.6,839.68,573.56,839.68,573.56C839.68,573.56,839.68,163.96,839.68,163.96C839.68,163.96,655.36,163.96,655.36,163.96C655.36,163.96,655.36,389.24,655.36,389.24C655.36,409.72,634.88,409.72,634.88,409.72C634.88,409.72,409.6,409.72,409.6,409.72C389.12,409.72,389.12,389.24,389.12,389.24C389.12,389.24,389.12,163.96,389.12,163.96C389.12,163.96,184.32,163.96,184.32,163.96C184.32,163.96,184.32,573.56,184.32,573.56C184.32,573.56,184.32,573.56,184.32,573.56" class="bcico-ico-home"/><glyph unicode="&#x0055;" d="M866.96,590.76C866.96,590.76,866.96,511.983,866.96,511.983C866.96,421.317,836.704,342.471,776.191,275.376C715.678,208.281,640.898,169.822,551.886,160.001C551.886,160.001,551.886,78.777,551.886,78.777C551.886,78.777,709.406,78.777,709.406,78.777C720.054,78.777,729.29,74.883,737.112,67.095C744.935,59.307,748.829,50.071,748.794,39.389C748.76,28.706,744.866,19.47,737.112,11.682C729.359,3.894,720.123,0,709.406,0C709.406,0,315.554,0,315.554,0C304.906,0,295.671,3.894,287.848,11.682C280.025,19.47,276.131,28.706,276.166,39.389C276.2,50.071,280.094,59.307,287.848,67.095C295.602,74.883,304.837,78.777,315.554,78.777C315.554,78.777,473.074,78.777,473.074,78.777C473.074,78.777,473.074,160.001,473.074,160.001C384.062,169.857,309.283,208.315,248.77,275.376C188.257,342.436,158,421.317,158,511.983C158,511.983,158,590.76,158,590.76C158,601.408,161.894,610.644,169.682,618.466C177.47,626.289,186.706,630.183,197.389,630.149C208.071,630.114,217.307,626.22,225.095,618.466C232.883,610.713,236.777,601.477,236.777,590.76C236.777,590.76,236.777,511.983,236.777,511.983C236.777,436.066,263.76,371.142,317.691,317.211C371.622,263.28,436.546,236.297,512.463,236.297C588.38,236.297,653.304,263.28,707.235,317.211C761.166,371.142,788.149,436.066,788.149,511.983C788.149,511.983,788.149,590.76,788.149,590.76C788.149,601.408,792.043,610.644,799.831,618.466C807.619,626.289,816.854,630.183,827.537,630.149C838.22,630.114,847.455,626.22,855.244,618.466C863.032,610.713,866.926,601.477,866.926,590.76C866.926,590.76,866.96,590.76,866.96,590.76M709.44,827.057C709.44,827.057,709.44,511.983,709.44,511.983C709.44,457.845,690.142,411.461,651.581,372.899C613.019,334.338,566.635,315.04,512.497,315.04C458.36,315.04,411.975,334.338,373.414,372.899C334.852,411.461,315.554,457.845,315.554,511.983C315.554,511.983,315.554,827.057,315.554,827.057C315.554,881.195,334.852,927.579,373.414,966.14C411.975,1004.702,458.36,1024,512.497,1024C566.635,1024,613.019,1004.702,651.581,966.14C690.142,927.579,709.44,881.195,709.44,827.057C709.44,827.057,709.44,827.057,709.44,827.057" class="bcico-microphone"/><glyph unicode="&#x0056;" d="M819.38,653.652C819.38,653.652,788.66,653.652,788.66,653.652C777.332,653.652,768.18,644.436,768.18,633.172C768.18,633.172,768.18,492.02,768.18,492.02C768.18,423.572,714.26,307.7,512.18,307.7C310.1,307.7,256.18,423.572,256.18,492.02C256.18,492.02,256.18,633.172,256.18,633.172C256.18,644.436,246.9,653.652,235.7,653.652C235.7,653.652,204.98,653.652,204.98,653.652C193.716,653.652,184.5,644.436,184.5,633.172C184.5,633.172,184.5,492.02,184.5,492.02C184.5,377.492,268.66,254.964,460.98,238.068C460.98,238.068,460.98,102.9,460.98,102.9C460.98,102.9,327.796,102.9,327.796,102.9C316.596,102.9,307.38,93.684,307.38,82.42C307.38,82.42,307.38,20.98,307.38,20.98C307.38,9.716,316.596,0.5,327.796,0.5C327.796,0.5,696.436,0.5,696.436,0.5C707.764,0.5,716.916,9.716,716.916,20.98C716.916,20.98,716.916,82.42,716.916,82.42C716.916,93.748,707.7,102.9,696.436,102.9C696.436,102.9,563.38,102.9,563.38,102.9C563.38,102.9,563.38,238.068,563.38,238.068C755.732,254.964,839.86,377.524,839.86,492.02C839.86,492.02,839.86,633.172,839.86,633.172C839.86,644.436,830.644,653.652,819.38,653.652C819.38,653.652,819.38,653.652,819.38,653.652M512.18,410.1C632.34,410.1,665.78,459.444,665.78,492.02C665.78,492.02,665.78,653.652,665.78,653.652C665.78,653.652,358.58,653.652,358.58,653.652C358.58,653.652,358.58,492.02,358.58,492.02C358.58,459.444,392.02,410.1,512.18,410.1C512.18,410.1,512.18,410.1,512.18,410.1M665.78,942.58C665.78,975.188,632.34,1024.5,512.18,1024.5C392.02,1024.5,358.58,975.188,358.58,942.58C358.58,942.58,358.58,725.332,358.58,725.332C358.58,725.332,665.78,725.332,665.78,725.332C665.78,725.332,665.78,942.58,665.78,942.58C665.78,942.58,665.78,942.58,665.78,942.58" class="bcico-audio"/><glyph unicode="&#x0057;" d="M960,0C960,0,64,0,64,0C46.656,0,31.648,6.336,19.008,19.008C6.368,31.68,0.032,46.688,0,64C0,64,0,448,0,448C0,448,384,448,384,448C384,448,384,384,384,384C384,366.656,390.336,351.648,403.008,339.008C415.68,326.368,430.688,320.032,448,320C448,320,576,320,576,320C594.016,320,609.184,326.336,621.504,339.008C633.824,351.68,640,366.688,640,384C640,384,640,448,640,448C640,448,1024,448,1024,448C1024,448,1024,64,1024,64C1024,45.984,1017.664,30.816,1004.992,18.496C992.32,6.176,977.312,0,960,0C960,0,960,0,960,0M576,448.512C576,430.848,569.824,415.68,557.504,403.008C545.184,390.336,530.176,384,512.512,384C494.848,384,479.68,390.336,467.008,403.008C454.336,415.68,448,430.848,448,448.512C448,466.176,454.336,481.184,467.008,493.504C479.68,505.824,494.848,512,512.512,512C530.176,512,545.184,505.824,557.504,493.504C569.824,481.184,576,466.176,576,448.512C576,448.512,576,448.512,576,448.512M576,576C576,576,448,576,448,576C430.656,576,415.648,569.824,403.008,557.504C390.368,545.184,384.032,530.016,384,512C384,512,0,512,0,512C0,512,0,704,0,704C0,722.016,6.176,737.184,18.496,749.504C30.816,761.824,45.984,768,64,768C64,768,256,768,256,768C256,768,256,832,256,832C256,885.344,274.656,930.656,312,968C349.344,1005.344,394.656,1024,448,1024C448,1024,576,1024,576,1024C629.344,1024,674.656,1005.344,712,968C749.344,930.656,768,885.344,768,832C768,832,768,768,768,768C768,768,960,768,960,768C977.344,768,992.352,761.824,1004.992,749.504C1017.632,737.184,1023.968,722.016,1024,704C1024,704,1024,512,1024,512C1024,512,640,512,640,512C640,530.016,633.824,545.184,621.504,557.504C609.184,569.824,594.016,576,576,576C576,576,576,576,576,576M640,832C640,850.016,633.824,865.184,621.504,877.504C609.184,889.824,594.016,896,576,896C576,896,448,896,448,896C430.656,896,415.648,889.824,403.008,877.504C390.368,865.184,384.032,850.016,384,832C384,832,384,768,384,768C384,768,640,768,640,768C640,768,640,832,640,832C640,832,640,832,640,832" class="bcico-briefcase"/><glyph unicode="&#x0058;" d="M110.184,73.152C110.184,73.152,274.76,73.152,274.76,73.152C274.76,73.152,274.76,237.728,274.76,237.728C274.76,237.728,110.184,237.728,110.184,237.728C110.184,237.728,110.184,73.152,110.184,73.152C110.184,73.152,110.184,73.152,110.184,73.152M311.304,73.152C311.304,73.152,494.152,73.152,494.152,73.152C494.152,73.152,494.152,237.728,494.152,237.728C494.152,237.728,311.304,237.728,311.304,237.728C311.304,237.728,311.304,73.152,311.304,73.152C311.304,73.152,311.304,73.152,311.304,73.152M110.184,274.272C110.184,274.272,274.76,274.272,274.76,274.272C274.76,274.272,274.76,457.12,274.76,457.12C274.76,457.12,110.184,457.12,110.184,457.12C110.184,457.12,110.184,274.272,110.184,274.272C110.184,274.272,110.184,274.272,110.184,274.272M311.304,274.272C311.304,274.272,494.152,274.272,494.152,274.272C494.152,274.272,494.152,457.12,494.152,457.12C494.152,457.12,311.304,457.12,311.304,457.12C311.304,457.12,311.304,274.272,311.304,274.272C311.304,274.272,311.304,274.272,311.304,274.272M110.184,493.728C110.184,493.728,274.76,493.728,274.76,493.728C274.76,493.728,274.76,658.304,274.76,658.304C274.76,658.304,110.184,658.304,110.184,658.304C110.184,658.304,110.184,493.728,110.184,493.728C110.184,493.728,110.184,493.728,110.184,493.728M530.76,73.152C530.76,73.152,713.608,73.152,713.608,73.152C713.608,73.152,713.608,237.728,713.608,237.728C713.608,237.728,530.76,237.728,530.76,237.728C530.76,237.728,530.76,73.152,530.76,73.152C530.76,73.152,530.76,73.152,530.76,73.152M311.304,493.728C311.304,493.728,494.152,493.728,494.152,493.728C494.152,493.728,494.152,658.304,494.152,658.304C494.152,658.304,311.304,658.304,311.304,658.304C311.304,658.304,311.304,493.728,311.304,493.728C311.304,493.728,311.304,493.728,311.304,493.728M750.184,73.152C750.184,73.152,914.76,73.152,914.76,73.152C914.76,73.152,914.76,237.728,914.76,237.728C914.76,237.728,750.184,237.728,750.184,237.728C750.184,237.728,750.184,73.152,750.184,73.152C750.184,73.152,750.184,73.152,750.184,73.152M530.76,274.272C530.76,274.272,713.608,274.272,713.608,274.272C713.608,274.272,713.608,457.12,713.608,457.12C713.608,457.12,530.76,457.12,530.76,457.12C530.76,457.12,530.76,274.272,530.76,274.272C530.76,274.272,530.76,274.272,530.76,274.272M329.608,768C329.608,768,329.608,932.576,329.608,932.576C329.608,937.536,327.784,941.824,324.168,945.44C320.552,949.056,316.264,950.88,311.304,950.88C311.304,950.88,274.728,950.88,274.728,950.88C269.768,950.88,265.48,949.056,261.864,945.44C258.248,941.824,256.424,937.536,256.424,932.576C256.424,932.576,256.424,768,256.424,768C256.424,763.04,258.248,758.752,261.864,755.136C265.48,751.52,269.768,749.696,274.728,749.696C274.728,749.696,311.304,749.696,311.304,749.696C316.264,749.696,320.552,751.52,324.168,755.136C327.784,758.752,329.608,763.04,329.608,768C329.608,768,329.608,768,329.608,768M750.184,274.272C750.184,274.272,914.76,274.272,914.76,274.272C914.76,274.272,914.76,457.12,914.76,457.12C914.76,457.12,750.184,457.12,750.184,457.12C750.184,457.12,750.184,274.272,750.184,274.272C750.184,274.272,750.184,274.272,750.184,274.272M530.76,493.728C530.76,493.728,713.608,493.728,713.608,493.728C713.608,493.728,713.608,658.304,713.608,658.304C713.608,658.304,530.76,658.304,530.76,658.304C530.76,658.304,530.76,493.728,530.76,493.728C530.76,493.728,530.76,493.728,530.76,493.728M750.184,493.728C750.184,493.728,914.76,493.728,914.76,493.728C914.76,493.728,914.76,658.304,914.76,658.304C914.76,658.304,750.184,658.304,750.184,658.304C750.184,658.304,750.184,493.728,750.184,493.728C750.184,493.728,750.184,493.728,750.184,493.728M768.456,768C768.456,768,768.456,932.576,768.456,932.576C768.456,937.536,766.632,941.824,763.016,945.44C759.4,949.056,755.112,950.88,750.152,950.88C750.152,950.88,713.576,950.88,713.576,950.88C708.616,950.88,704.328,949.056,700.712,945.44C697.096,941.824,695.272,937.536,695.272,932.576C695.272,932.576,695.272,768,695.272,768C695.272,763.04,697.096,758.752,700.712,755.136C704.328,751.52,708.616,749.696,713.576,749.696C713.576,749.696,750.152,749.696,750.152,749.696C755.112,749.696,759.4,751.52,763.016,755.136C766.632,758.752,768.456,763.04,768.456,768C768.456,768,768.456,768,768.456,768M987.88,804.576C987.88,804.576,987.88,73.152,987.88,73.152C987.88,53.344,980.648,36.192,966.152,21.728C951.656,7.264,934.536,0.032,914.728,0C914.728,0,110.152,0,110.152,0C90.344,0,73.192,7.232,58.728,21.728C44.264,36.224,37.032,53.344,37,73.152C37,73.152,37,804.576,37,804.576C37,824.384,44.232,841.536,58.728,856C73.224,870.464,90.344,877.696,110.152,877.728C110.152,877.728,183.304,877.728,183.304,877.728C183.304,877.728,183.304,932.576,183.304,932.576C183.304,957.728,192.264,979.264,210.152,997.152C228.04,1015.04,249.576,1024,274.728,1024C274.728,1024,311.304,1024,311.304,1024C336.456,1024,357.992,1015.04,375.88,997.152C393.768,979.264,402.728,957.728,402.728,932.576C402.728,932.576,402.728,877.728,402.728,877.728C402.728,877.728,622.152,877.728,622.152,877.728C622.152,877.728,622.152,932.576,622.152,932.576C622.152,957.728,631.112,979.264,649,997.152C666.888,1015.04,688.424,1024,713.576,1024C713.576,1024,750.152,1024,750.152,1024C775.304,1024,796.84,1015.04,814.728,997.152C832.616,979.264,841.576,957.728,841.576,932.576C841.576,932.576,841.576,877.728,841.576,877.728C841.576,877.728,914.728,877.728,914.728,877.728C934.536,877.728,951.688,870.496,966.152,856C980.616,841.504,987.848,824.384,987.88,804.576C987.88,804.576,987.88,804.576,987.88,804.576" class="bcico-calendar"/><glyph unicode="&#x0059;" d="M961.224,491.577C961.224,491.577,85.431,4.857,85.431,4.857C75.312,-0.867,66.633,-1.532,59.395,2.863C52.156,7.258,48.537,15.161,48.5,26.61C48.5,26.61,48.5,997.39,48.5,997.39C48.5,1008.802,52.119,1016.742,59.395,1021.137C66.67,1025.532,75.349,1024.867,85.431,1019.143C85.431,1019.143,961.224,532.423,961.224,532.423C971.343,526.699,976.403,519.903,976.403,511.963C976.403,504.023,971.343,497.227,961.224,491.503C961.224,491.503,961.224,491.577,961.224,491.577" class="bcico-play"/><glyph unicode="&#x005a;" d="M1024.5,981.329C1024.5,981.329,1024.5,42.672,1024.5,42.672C1024.5,31.136,1020.281,21.131,1011.844,12.656C1003.407,4.182,993.402,-0.037,981.829,0C981.829,0,43.171,0,43.171,0C31.636,0,21.63,4.219,13.156,12.656C4.681,21.093,0.463,31.098,0.5,42.672C0.5,42.672,0.5,981.329,0.5,981.329C0.5,992.865,4.719,1002.87,13.156,1011.344C21.593,1019.819,31.598,1024.038,43.171,1024C43.171,1024,981.829,1024,981.829,1024C993.364,1024,1003.37,1019.782,1011.844,1011.344C1020.319,1002.907,1024.537,992.902,1024.5,981.329C1024.5,981.329,1024.5,981.329,1024.5,981.329" class="bcico-stop"/><glyph unicode="&#x0061;" d="M1024.5,981.329C1024.5,981.329,1024.5,42.672,1024.5,42.672C1024.5,31.136,1020.281,21.131,1011.844,12.656C1003.407,4.182,993.402,-0.037,981.829,0C981.829,0,640.495,0,640.495,0C628.96,0,618.954,4.219,610.48,12.656C602.005,21.093,597.787,31.098,597.824,42.672C597.824,42.672,597.824,981.329,597.824,981.329C597.824,992.865,602.043,1002.87,610.48,1011.344C618.917,1019.819,628.922,1024.038,640.495,1024C640.495,1024,981.829,1024,981.829,1024C993.364,1024,1003.37,1019.782,1011.844,1011.344C1020.319,1002.907,1024.537,992.902,1024.5,981.329C1024.5,981.329,1024.5,981.329,1024.5,981.329M427.176,981.329C427.176,981.329,427.176,42.672,427.176,42.672C427.176,31.136,422.957,21.131,414.52,12.656C406.083,4.182,396.078,-0.037,384.505,0C384.505,0,43.171,0,43.171,0C31.636,0,21.63,4.219,13.156,12.656C4.681,21.093,0.463,31.098,0.5,42.672C0.5,42.672,0.5,981.329,0.5,981.329C0.5,992.865,4.719,1002.87,13.156,1011.344C21.593,1019.819,31.598,1024.038,43.171,1024C43.171,1024,384.505,1024,384.505,1024C396.04,1024,406.046,1019.782,414.52,1011.344C422.995,1002.907,427.213,992.902,427.176,981.329C427.176,981.329,427.176,981.329,427.176,981.329" class="bcico-pause"/><glyph unicode="&#x0062;" d="M773.449,774.106C773.449,774.106,604.796,774.106,604.796,774.106C604.796,774.106,604.861,0,604.861,0C604.861,0,419.229,0,419.229,0C419.229,0,419.229,774.106,419.229,774.106C419.229,774.106,251,774.106,251,774.106C251,774.106,512.224,1024,512.224,1024C512.224,1024,773.449,774.106,773.449,774.106" class="bcico-arrow-sort-up"/><glyph unicode="&#x0063;" d="M495.262,255.505C495.262,255.505,495.262,127.864,495.262,127.864C495.262,127.864,400.451,127.864,400.451,127.864C363.978,127.864,336.519,100.405,336.519,63.932C336.519,63.932,336.519,15.983,336.519,15.983C336.519,7.16,343.679,0,352.502,0C352.502,0,672.162,0,672.162,0C680.985,0,688.145,7.16,688.145,15.983C688.145,15.983,688.145,61.535,688.145,61.535C688.145,98.743,660.047,127.864,624.213,127.864C624.213,127.864,527.228,127.864,527.228,127.864C527.228,127.864,527.228,255.505,527.228,255.505C654.229,264.391,753.164,369.304,753.164,497.296C753.164,497.296,753.164,557.616,753.164,557.616C753.164,567.046,745.524,574.685,736.094,574.685C726.664,574.685,719.025,567.014,719.025,557.584C719.025,557.584,719.025,497.264,719.025,497.264C719.025,382.282,626.323,288.781,512.332,288.781C398.341,288.781,305.64,382.314,305.64,497.264C305.64,497.264,305.64,557.584,305.64,557.584C305.64,567.014,298,574.653,288.57,574.653C279.14,574.653,271.5,567.014,271.5,557.584C271.5,557.584,271.5,497.264,271.5,497.264C271.5,369.304,370.435,264.391,495.262,255.505C495.262,255.505,495.262,255.505,495.262,255.505M656.179,61.535C656.179,61.535,656.179,31.966,656.179,31.966C656.179,31.966,368.485,31.966,368.485,31.966C368.485,31.966,368.485,63.932,368.485,63.932C368.485,82.76,381.623,95.898,400.451,95.898C400.451,95.898,624.213,95.898,624.213,95.898C642.434,95.898,656.179,81.13,656.179,61.535C656.179,61.535,656.179,61.535,656.179,61.535M512.332,1024C432.417,1024,367.398,958.182,367.398,877.244C367.398,877.244,367.398,497.264,367.398,497.264C367.398,416.358,432.417,350.508,512.332,350.508C592.247,350.508,657.266,416.358,655.092,497.264C655.092,497.264,655.092,877.244,655.092,877.244C657.266,958.182,592.247,1024,512.332,1024C512.332,1024,512.332,1024,512.332,1024M623.126,497.296C623.126,435.218,573.419,384.711,512.332,384.711C451.245,384.711,399.364,435.186,399.364,497.296C399.364,497.296,399.364,877.244,399.364,877.244C399.364,939.322,451.245,989.828,512.332,989.828C573.419,989.828,623.126,939.354,623.126,877.244C623.126,877.244,623.126,497.296,623.126,497.296C623.126,497.296,623.126,497.296,623.126,497.296" class="bcico-micro"/><glyph unicode="&#x0065;" d="M966.039,783.159C966.039,783.159,955.991,773.111,955.991,773.111C955.991,773.111,772.759,956.439,772.759,956.439C772.759,956.439,782.775,966.455,782.775,966.455C782.775,966.455,826.647,1024.472,889.047,1024.472C916.535,1024.472,947.671,1013.176,980.215,980.631C1087.544,873.303,966.039,783.159,966.039,783.159C966.039,783.159,966.039,783.159,966.039,783.159M895.831,712.918C895.831,712.918,271.861,88.724,271.861,88.724C271.861,88.724,0.5,0.5,0.5,0.5C0.5,0.5,88.692,272.021,88.692,272.021C88.692,272.021,88.692,272.117,88.692,272.117C88.692,272.117,88.756,272.117,88.756,272.117C88.756,272.117,712.63,896.279,712.63,896.279C712.63,896.279,720.694,888.183,720.694,888.183C720.694,888.183,895.831,712.918,895.831,712.918M88.82,88.852C88.82,88.852,224.405,127.86,224.405,127.86C224.405,127.86,131.796,226.485,131.796,226.485C131.796,226.485,88.82,88.852,88.82,88.852C88.82,88.852,88.82,88.852,88.82,88.852" class="bcico-pencil"/><glyph unicode="&#x0066;" d="M384.321,618.693C384.321,618.693,384.321,234.702,384.321,234.702C384.321,228.468,382.305,223.354,378.311,219.359C374.316,215.365,369.202,213.349,362.967,213.349C362.967,213.349,320.298,213.349,320.298,213.349C314.063,213.349,308.949,215.365,304.954,219.359C300.96,223.354,298.944,228.468,298.944,234.702C298.944,234.702,298.944,618.693,298.944,618.693C298.944,624.927,300.96,630.042,304.954,634.036C308.949,638.031,314.063,640.047,320.298,640.047C320.298,640.047,362.967,640.047,362.967,640.047C369.202,640.047,374.316,638.031,378.311,634.036C382.305,630.042,384.321,624.927,384.321,618.693C384.321,618.693,384.321,618.693,384.321,618.693M554.963,618.693C554.963,618.693,554.963,234.702,554.963,234.702C554.963,228.468,552.947,223.354,548.952,219.359C544.958,215.365,539.843,213.349,533.609,213.349C533.609,213.349,490.939,213.349,490.939,213.349C484.705,213.349,479.591,215.365,475.596,219.359C471.602,223.354,469.586,228.468,469.586,234.702C469.586,234.702,469.586,618.693,469.586,618.693C469.586,624.927,471.602,630.042,475.596,634.036C479.591,638.031,484.705,640.047,490.939,640.047C490.939,640.047,533.609,640.047,533.609,640.047C539.843,640.047,544.958,638.031,548.952,634.036C552.947,630.042,554.963,624.927,554.963,618.693C554.963,618.693,554.963,618.693,554.963,618.693M725.642,618.693C725.642,618.693,725.642,234.702,725.642,234.702C725.642,228.468,723.626,223.354,719.631,219.359C715.637,215.365,710.523,213.349,704.288,213.349C704.288,213.349,661.618,213.349,661.618,213.349C655.384,213.349,650.27,215.365,646.275,219.359C642.281,223.354,640.265,228.468,640.265,234.702C640.265,234.702,640.265,618.693,640.265,618.693C640.265,624.927,642.281,630.042,646.275,634.036C650.27,638.031,655.384,640.047,661.618,640.047C661.618,640.047,704.288,640.047,704.288,640.047C710.523,640.047,715.637,638.031,719.631,634.036C723.626,630.042,725.642,624.927,725.642,618.693C725.642,618.693,725.642,618.693,725.642,618.693M810.944,136.073C810.944,136.073,810.944,768.056,810.944,768.056C810.944,768.056,213.642,768.056,213.642,768.056C213.642,768.056,213.642,136.073,213.642,136.073C213.642,126.292,215.21,117.295,218.308,109.082C221.407,100.869,224.655,94.859,227.977,91.089C231.3,87.318,233.651,85.414,234.995,85.414C234.995,85.414,789.628,85.414,789.628,85.414C790.972,85.414,793.324,87.318,796.646,91.089C799.969,94.859,803.216,100.869,806.315,109.082C809.413,117.295,810.981,126.292,810.981,136.073C810.981,136.073,810.944,136.073,810.944,136.073M362.967,853.358C362.967,853.358,661.618,853.358,661.618,853.358C661.618,853.358,629.625,931.343,629.625,931.343C626.527,935.338,622.719,937.802,618.277,938.66C618.277,938.66,406.944,938.66,406.944,938.66C402.501,937.764,398.693,935.338,395.595,931.343C395.595,931.343,362.967,853.358,362.967,853.358M981.623,832.005C981.623,832.005,981.623,789.335,981.623,789.335C981.623,783.101,979.607,777.986,975.613,773.992C971.618,769.997,966.504,767.981,960.27,767.981C960.27,767.981,896.284,767.981,896.284,767.981C896.284,767.981,896.284,135.998,896.284,135.998C896.284,99.115,885.831,67.234,864.963,40.318C844.094,13.402,818.97,-0.037,789.628,0C789.628,0,234.995,0,234.995,0C205.653,0,180.529,12.991,159.661,39.011C138.792,65.031,128.34,96.464,128.34,133.348C128.34,133.348,128.34,767.981,128.34,767.981C128.34,767.981,64.354,767.981,64.354,767.981C58.119,767.981,53.005,769.997,49.01,773.992C45.016,777.986,43,783.101,43,789.335C43,789.335,43,832.005,43,832.005C43,838.239,45.016,843.353,49.01,847.348C53.005,851.342,58.119,853.358,64.354,853.358C64.354,853.358,270.348,853.358,270.348,853.358C270.348,853.358,317.012,964.68,317.012,964.68C323.695,981.144,335.678,995.143,353,1006.678C370.322,1018.214,387.867,1024,405.674,1024C405.674,1024,618.986,1024,618.986,1024C636.756,1024,654.301,1018.214,671.661,1006.678C689.02,995.143,701.003,981.144,707.648,964.68C707.648,964.68,754.312,853.358,754.312,853.358C754.312,853.358,960.307,853.358,960.307,853.358C966.541,853.358,971.656,851.342,975.65,847.348C979.645,843.353,981.66,838.239,981.66,832.005C981.66,832.005,981.623,832.005,981.623,832.005" class="bcico-delete"/><glyph unicode="&#x0067;" d="M800.007,960.493C800.007,960.493,800.007,64.507,800.007,64.507C800.007,47.204,793.679,32.196,781.023,19.484C768.367,6.772,753.36,0.444,736,0.5C718.64,0.556,703.633,6.884,690.977,19.484C690.977,19.484,242.984,467.477,242.984,467.477C230.328,480.133,224,495.141,224,512.5C224,529.86,230.328,544.868,242.984,557.524C242.984,557.524,690.977,1005.517,690.977,1005.517C703.633,1018.172,718.64,1024.5,736,1024.5C753.36,1024.5,768.367,1018.172,781.023,1005.517C793.679,992.861,800.007,977.853,800.007,960.493C800.007,960.493,800.007,960.493,800.007,960.493" class="bcico-assignment-out"/><glyph unicode="&#x0068;" d="M800.007,512C800.007,494.696,793.679,479.688,781.023,466.977C781.023,466.977,333.03,18.984,333.03,18.984C320.374,6.328,305.367,0,288.007,0C270.647,0,255.64,6.328,242.984,18.984C230.328,31.64,224,46.647,224,64.007C224,64.007,224,959.993,224,959.993C224,977.297,230.328,992.304,242.984,1005.016C255.64,1017.728,270.647,1024.056,288.007,1024C305.367,1023.944,320.374,1017.616,333.03,1005.016C333.03,1005.016,781.023,557.023,781.023,557.023C793.679,544.367,800.007,529.36,800.007,512C800.007,512,800.007,512,800.007,512" class="bcico-assignment-in"/><glyph unicode="&#x0069;" d="M512,0C229.248,0,0,229.248,0,512C0,794.752,229.248,1024,512,1024C794.752,1024,1024,794.752,1024,512C1024,229.248,794.752,0,512,0C512,0,512,0,512,0M512,896C299.936,896,128,724.064,128,512C128,299.936,299.936,128,512,128C724.064,128,896,299.936,896,512C896,724.064,724.064,896,512,896C512,896,512,896,512,896M512,256C370.624,256,256,370.624,256,512C256,653.376,370.624,768,512,768C653.376,768,768,653.376,768,512C768,370.624,653.376,256,512,256C512,256,512,256,512,256" class="bcico-mifid"/></font>
</defs>
</svg>
