<?xml version="1.0" standalone="no"?>
<!DOCTYPE svg PUBLIC "-//W3C//DTD SVG 1.1//EN" "http://www.w3.org/Graphics/SVG/1.1/DTD/svg11.dtd" >
<svg xmlns="http://www.w3.org/2000/svg" xmlns:xlink="http://www.w3.org/1999/xlink" version="1.1">
<metadata></metadata>
<defs>
<font id="bankiaheavy_italic" horiz-adv-x="580" >
<font-face units-per-em="1000" ascent="750" descent="-250" />
<missing-glyph horiz-adv-x="215" />
<glyph unicode="&#xfb01;" horiz-adv-x="638" d="M33 365q-18 0 -18 14q0 5 4 25l8 41q3 15 8 20t16 8l67 15l8 43q8 45 28 75t51.5 47.5t74.5 25t99 7.5h8q14 0 33 -1.5t39 -4t40 -6.5t37 -9q11 -3 14.5 -6.5t3.5 -8.5q0 -7 -2.5 -18.5t-4.5 -20.5l-11 -48q-3 -14 -8 -18t-13 -4q-13 0 -48.5 7.5t-80.5 7.5 q-29 0 -48.5 -3t-32 -10t-18.5 -17t-8 -24l-2 -12h300q16 0 22 -4.5t6 -13.5q0 -6 -2 -17t-7 -37l-76 -389q-2 -14 -10 -21.5t-28 -7.5h-92q-17 0 -23 4.5t-6 12.5q0 6 2 16t5 24l59 308h-175l-47 -241q-10 -51 -19 -92.5t-18 -74.5t-18.5 -59.5t-19.5 -48.5 q-8 -17 -17.5 -21.5t-26.5 -4.5h-80q-29 0 -29 21q0 8 8 35q11 37 19.5 67t15 56.5t12.5 50.5t11 51l51 261h-61z" />
<glyph unicode="&#xfb02;" horiz-adv-x="703" d="M33 365q-18 0 -18 14q0 5 4 25l8 41q3 15 8 20t16 8l67 15l8 43q16 87 73.5 121t160.5 34h8q18 0 39 -2t41 -5.5t37.5 -8t30.5 -8.5l84 12q7 1 16.5 2t17.5 1q15 0 22 -6t4 -23l-90 -465q-3 -14 -5.5 -25.5t-2.5 -19.5q0 -14 18 -14h28q14 0 19 -4t5 -14q0 -8 -6 -38 l-7 -34q-4 -20 -12.5 -27t-26.5 -7h-68q-45 0 -66.5 7t-34.5 22q-8 10 -12 21t-4 28t4 42.5t11 60.5l70 360q-17 5 -47.5 11t-63.5 6h-3q-46 0 -63.5 -13t-22.5 -39l-3 -16h86q22 0 22 -14q0 -5 -6 -36l-10 -51q-4 -24 -30 -24h-87l-47 -241q-10 -51 -19 -92.5t-18 -74.5 t-18.5 -59.5t-19.5 -48.5q-8 -17 -17.5 -21.5t-26.5 -4.5h-80q-29 0 -29 21q0 8 8 35q11 37 19.5 67t15 56.5t12.5 50.5t11 51l51 261h-61z" />
<glyph horiz-adv-x="0" />
<glyph unicode="&#xd;" horiz-adv-x="215" />
<glyph unicode=" "  horiz-adv-x="215" />
<glyph unicode="&#x09;" horiz-adv-x="215" />
<glyph unicode="&#xa0;" horiz-adv-x="215" />
<glyph unicode="!" horiz-adv-x="255" d="M236 664q20 0 28 -5t8 -17q0 -4 -1.5 -13t-9.5 -39l-85 -352q-6 -25 -15.5 -31t-32.5 -6h-61q-27 0 -27 22q0 12 3 30l54 369q4 26 13.5 34t35.5 8h90zM56 -9q-32 0 -51.5 15.5t-19.5 47.5q0 46 26 74.5t77 28.5h3q32 0 51.5 -15.5t19.5 -47.5q0 -46 -26 -74.5t-77 -28.5 h-3z" />
<glyph unicode="&#x22;" horiz-adv-x="538" d="M360 427q-17 0 -14 18l36 261q2 21 24 21h125q21 0 16 -21l-66 -261q-3 -11 -8.5 -14.5t-15.5 -3.5h-97zM103 427q-17 0 -14 18l36 261q2 21 24 21h125q21 0 16 -21l-66 -261q-3 -11 -8.5 -14.5t-15.5 -3.5h-97z" />
<glyph unicode="#" horiz-adv-x="703" d="M234 475l62 146q7 16 14 21t21 5h79q14 0 20 -5.5t-2 -25.5l-60 -141h102l62 146q7 16 14 21t21 5h79q14 0 20 -5.5t-2 -25.5l-60 -141h74q28 0 13 -32l-25 -57q-5 -11 -12 -16.5t-23 -5.5h-75l-41 -98h80q28 0 13 -32l-25 -57q-5 -11 -12 -16.5t-23 -5.5h-80l-55 -129 q-7 -16 -14 -21t-21 -5h-79q-14 0 -20 5.5t2 25.5l53 124h-102l-55 -129q-7 -16 -14 -21t-21 -5h-79q-14 0 -20 5.5t2 25.5l53 124h-73q-28 0 -13 32l25 57q5 11 12 16.5t23 5.5h73l41 98h-78q-28 0 -13 32l25 57q5 11 12 16.5t23 5.5h79zM279 266h102l41 98h-102z" />
<glyph unicode="$" d="M235 -9l-13 -67q-3 -14 -17 -14h-29q-14 0 -11 14l13 69q-38 3 -77.5 10t-62.5 16q-18 7 -21.5 14t0.5 23l18 81q4 17 11.5 21.5t21.5 -0.5q33 -13 68.5 -21t68.5 -10l27 139l-30 8q-69 17 -96 50t-27 88q0 15 2.5 37.5t8.5 48.5q9 41 25.5 67t38.5 43q32 25 76.5 36 t113.5 12l15 77q3 14 17 14h29q14 0 11 -14l-16 -79q35 -3 67 -10t56 -15q17 -6 17 -20q0 -5 -3.5 -16t-11.5 -33l-15 -41q-5 -12 -8 -16.5t-11 -4.5q-5 0 -8.5 0.5t-9.5 2.5q-20 5 -46.5 9.5t-52.5 6.5l-25 -124l35 -9q65 -17 92 -44t28 -78q0 -14 -2.5 -43t-11.5 -74 q-16 -81 -76.5 -117.5t-175.5 -36.5h-3zM335 210q0 14 -11 24t-38 18l-24 -124q39 4 56 21.5t17 60.5zM244 452q0 -17 10.5 -27t40.5 -19l21 110q-38 -4 -55 -20.5t-17 -43.5z" />
<glyph unicode="%" horiz-adv-x="925" d="M221 389q17 0 27 13t15 42l11 56q4 23 4 31q0 14 -7 19t-19 5h-2q-17 0 -27 -13t-15 -42l-11 -56q-4 -23 -4 -31q0 -14 7 -19t19 -5h2zM199 288q-61 0 -97 29t-36 86q0 11 1.5 23.5t3.5 24.5l7 36q17 87 61.5 128t131.5 41q61 0 97.5 -29t36.5 -86q0 -11 -1.5 -23.5 t-3.5 -24.5l-7 -36q-17 -87 -62 -128t-132 -41zM675 92q17 0 27 13t15 42l11 56q4 23 4 31q0 14 -7 19t-19 5h-2q-17 0 -27 -13t-15 -42l-11 -56q-4 -23 -4 -31q0 -14 7 -19t19 -5h2zM653 -9q-61 0 -97 29t-36 86q0 11 1.5 23.5t3.5 24.5l7 36q17 87 61.5 128t131.5 41 q61 0 97.5 -29t36.5 -86q0 -11 -1.5 -23.5t-3.5 -24.5l-7 -36q-17 -87 -62 -128t-132 -41zM631 638q8 10 15.5 14t23.5 4h86q13 0 17.5 -7.5t-3.5 -18.5l-476 -621q-8 -10 -15.5 -14t-23.5 -4h-86q-13 0 -17.5 7.5t3.5 18.5z" />
<glyph unicode="&#x26;" horiz-adv-x="627" d="M459 299q2 9 6 12t15 3h78q15 0 15 -11q0 -5 -1 -10t-3 -17q-10 -51 -26.5 -93t-37.5 -71l42 -58l4.5 -7.5t1.5 -7.5q0 -9 -12 -18l-80 -53q-11 -7 -16 -7q-8 0 -14 8l-43 59q-32 -18 -76.5 -27.5t-96.5 -9.5h-11q-101 0 -154.5 40t-53.5 112q0 76 43 124.5t117 74.5 q-33 38 -44.5 70t-11.5 61q0 46 18 80t49.5 57t74 34.5t90.5 11.5h6q85 0 135.5 -35.5t50.5 -101.5q0 -38 -13.5 -69t-36.5 -56.5t-53 -46t-64 -36.5l75 -102q8 16 14 36t10 39zM241 106q43 0 77 16l-106 142q-24 -17 -37.5 -40t-13.5 -55q0 -26 18 -44.5t59 -18.5h3z M298 389q27 15 49 41.5t22 61.5q0 20 -13 30t-34 10h-3q-27 0 -46 -14.5t-19 -43.5q0 -18 11.5 -37.5t26.5 -39.5z" />
<glyph unicode="'" horiz-adv-x="281" d="M103 427q-17 0 -14 18l36 261q2 21 24 21h125q21 0 16 -21l-66 -261q-3 -11 -8.5 -14.5t-15.5 -3.5h-97z" />
<glyph unicode="(" horiz-adv-x="343" d="M267 657q12 11 19.5 15.5t15.5 4.5q10 0 23 -8l43 -31q17 -12 17 -20q0 -11 -13 -25q-88 -93 -137 -193.5t-49 -223.5q0 -50 13 -103.5t40 -110.5q6 -12 6 -20q0 -11 -18 -21l-60 -32q-12 -6 -20 -6q-13 0 -24 16q-42 59 -67.5 132.5t-25.5 150.5q0 134 63 255.5 t174 219.5z" />
<glyph unicode=")" horiz-adv-x="343" d="M62 -97q-12 -11 -19.5 -15.5t-15.5 -4.5q-10 0 -23 8l-43 31q-17 12 -17 20q0 11 13 25q88 93 137 193.5t49 223.5q0 50 -13 103.5t-40 110.5q-6 12 -6 20q0 11 18 21l60 32q12 6 20 6q13 0 24 -16q42 -59 67.5 -132.5t25.5 -150.5q0 -134 -63 -255.5t-174 -219.5z" />
<glyph unicode="*" horiz-adv-x="418" d="M326 754q14 0 14 -11q0 -3 -2 -9.5t-5 -16.5l-29 -87l83 42l10 5t8 2q10 0 13 -17l8 -46q2 -9 2.5 -14t0.5 -10q0 -13 -20 -17l-105 -26l64 -58q7 -6 9 -10t2 -9q0 -10 -15 -20l-55 -38q-8 -5 -15 -5q-5 0 -8.5 4t-5.5 9l-38 76l-69 -82q-8 -11 -17 -11q-6 0 -13 5 l-50 40q-5 4 -8 8t-3 10q0 9 12 18l93 66l-94 23q-9 2 -11 5t-2 6t1.5 7.5t8.5 17.5l28 54q6 13 18 13q6 0 14 -5l70 -43l5 106q1 18 21 18h80z" />
<glyph unicode="+" d="M312 58q-4 -20 -11.5 -27t-33.5 -7h-74q-24 0 -30.5 7.5t-1.5 32.5l24 125h-125q-20 0 -25 9t-1 27l12 62q5 24 12.5 32t27.5 8h126l25 131q4 20 11.5 27t33.5 7h74q24 0 30.5 -7.5t1.5 -32.5l-24 -125h125q20 0 25 -9t1 -27l-12 -62q-5 -24 -12.5 -32t-27.5 -8h-126z " />
<glyph unicode="," horiz-adv-x="246" d="M96 165q38 0 53.5 -13.5t16.5 -40.5q0 -7 -1 -16.5t-5 -27.5q-4 -20 -15 -47t-29.5 -58t-44.5 -64t-60 -64q-17 -15 -36 -2l-37 26q-16 11 1 28q13 14 24.5 26.5t20.5 23.5q13 14 21 24.5t8 20.5q0 5 -6 13l-10 9q-13 12 -13 31q0 14 8 54t30 58.5t64 18.5h10z" />
<glyph unicode="-" horiz-adv-x="364" d="M56 188q-25 0 -32.5 7t-7.5 25v75q0 18 8.5 25t31.5 7h220q23 0 31.5 -7t8.5 -25v-75q0 -18 -7.5 -25t-32.5 -7h-220z" />
<glyph unicode="." horiz-adv-x="241" d="M162 118q0 -11 -1.5 -25t-5.5 -28q-11 -44 -33.5 -59t-59.5 -15h-9q-36 0 -52 13t-16 37q0 11 2 25t4 25q11 44 34 59t60 15h9q68 0 68 -47z" />
<glyph unicode="/" horiz-adv-x="406" d="M114 12q-11 -20 -23 -27.5t-33 -7.5h-88q-24 0 -24 16q0 5 3 12.5t14 29.5l329 616q11 20 23 27.5t33 7.5h89q23 0 23 -16q0 -5 -3 -12.5t-14 -29.5z" />
<glyph unicode="0" d="M350 656q104 0 158 -45.5t54 -142.5q0 -42 -9.5 -103.5t-27.5 -129.5q-18 -67 -44 -113.5t-61.5 -75.5t-82 -42t-105.5 -13h-2q-104 0 -158 45.5t-54 142.5q0 42 9.5 103.5t27.5 129.5q18 67 44 113.5t61.5 75.5t82 42t105.5 13h2zM252 126q49 0 74.5 35t44.5 113 q26 107 26 183q0 35 -15.5 49.5t-49.5 14.5h-4q-49 0 -74.5 -35t-44.5 -113q-26 -107 -26 -183q0 -35 15.5 -49.5t49.5 -14.5h4z" />
<glyph unicode="1" d="M469 129q16 0 21 -4t5 -14q0 -4 -1 -11t-3 -15l-10 -53q-4 -20 -11.5 -26t-26.5 -6h-376q-16 0 -21 4t-5 14q0 4 1 11t3 15l10 53q4 20 11.5 26t26.5 6h108l69 352h-5l-92 -39q-15 -6 -22 -6q-13 0 -19 14l-23 63q-2 6 -4 11t-2 10q0 13 20 22l165 72q14 6 24 9.5t19 6 t18 3t20 0.5h66q24 0 24 -18q0 -8 -1.5 -19t-5.5 -31l-87 -450h104z" />
<glyph unicode="2" d="M310 520q-29 0 -62 -6.5t-68 -17.5q-18 -5 -25 -1t-11 19l-18 69q-4 14 0.5 23t21.5 15q44 16 94 25.5t98 9.5h6q46 0 84 -9t65 -29.5t42 -53t15 -80.5q0 -90 -48.5 -141t-138.5 -83l-48 -17q-38 -14 -62 -26t-39 -25t-22.5 -28.5t-11.5 -34.5h263q17 0 22.5 -8t2.5 -25 l-13 -66q-4 -18 -10.5 -24t-26.5 -6h-384q-20 0 -26.5 7.5t-1.5 27.5l12 57q10 49 23.5 87t36 68.5t56.5 53.5t85 42l63 23q32 12 52 22.5t31 22t15 24.5t4 30q0 55 -74 55h-2z" />
<glyph unicode="3" d="M23 128q5 16 13 21.5t31 -2.5q19 -6 39 -11t39 -8.5t35.5 -5.5t28.5 -2h3q56 0 87 23t31 79q0 26 -21 38t-69 12h-50q-20 0 -25 5.5t-1 25.5l12 62q4 18 11 26t28 8h25q35 0 58 4.5t38 15.5q27 18 27 54q0 30 -16.5 41.5t-48.5 11.5h-1q-26 0 -62.5 -7t-69.5 -17 q-16 -5 -24.5 -2.5t-12.5 15.5l-18 66q-5 19 0 26.5t20 13.5q18 7 42.5 13.5t50.5 11t52 7.5t49 3h13q92 0 142.5 -35.5t50.5 -114.5q0 -54 -28 -97.5t-84 -63.5l-1 -3q38 -12 58.5 -38.5t20.5 -72.5q0 -112 -72 -176t-214 -64h-4q-22 0 -47.5 3t-50 7.5t-47.5 11t-41 13.5 q-17 8 -19 18t3 24z" />
<glyph unicode="4" d="M303 268l44 222l-172 -222h128zM277 138h-251q-37 0 -31 33l5 25q2 9 4 16t6 14t10 16t17 23l273 350q15 20 26.5 26t35.5 6h125q21 0 29 -6.5t4 -26.5l-68 -346h56q16 0 22 -5.5t3 -20.5l-15 -79q-3 -14 -9.5 -19.5t-23.5 -5.5h-58l-20 -105q-4 -21 -12 -27t-28 -6h-90 q-20 0 -27 6.5t-3 26.5z" />
<glyph unicode="5" d="M281 515q-6 0 -9.5 -2t-5.5 -11l-23 -96q21 7 50 12t55 5h5q74 0 117 -38t43 -119q0 -57 -18 -107.5t-54.5 -87.5t-91.5 -58.5t-128 -21.5h-5q-23 0 -48 3t-49.5 7.5t-47 11t-40.5 13.5q-14 5 -19 11.5t-5 15.5q0 5 1.5 10.5t3.5 13.5l17 53q5 17 13.5 24t28.5 -1 q41 -15 79.5 -24t67.5 -9h5q56 0 90 30t34 86q0 28 -17.5 44t-54.5 16h-2q-23 0 -47 -6.5t-54 -17.5q-14 -5 -23.5 -4.5t-21.5 6.5l-35 17q-15 7 -15 22q0 6 2 14.5t4 18.5l66 271q4 17 13 23.5t27 6.5h322q19 0 25 -4.5t2 -24.5l-15 -76q-3 -14 -10 -20.5t-27 -6.5h-205z " />
<glyph unicode="6" d="M255 455q-7 -14 -13.5 -28.5t-11.5 -29.5q29 12 60.5 18t58.5 6h3q75 0 121.5 -36t46.5 -120q0 -67 -19 -118t-52.5 -85.5t-80.5 -52.5t-103 -18h-12q-114 0 -164.5 58.5t-50.5 159.5q0 42 7 89t21.5 93.5t35.5 90t48 77.5q44 54 99.5 75.5t126.5 21.5q38 0 79.5 -7.5 t68.5 -18.5q17 -7 19 -16t-3 -26l-21 -59q-6 -17 -15 -20t-27 2q-23 6 -48 11t-48 5h-6q-46 0 -73 -16.5t-47 -55.5zM292 292q-20 0 -44 -3.5t-45 -9.5q-6 -42 -6 -80q0 -37 15.5 -57.5t51.5 -20.5h9q24 0 40.5 10.5t27 27t15 37.5t4.5 43q0 29 -17 41t-48 12h-3z" />
<glyph unicode="7" d="M212 27q-11 -17 -23 -22t-33 -5h-104q-21 0 -24.5 9.5t7.5 23.5l346 481h-246q-18 0 -22 8.5t-1 25.5l12 64q4 21 11 28t30 7h389q20 0 26.5 -5.5t3.5 -22.5l-6 -38q-3 -20 -14.5 -41.5t-37.5 -58.5z" />
<glyph unicode="8" d="M553 503q0 -28 -8.5 -53.5t-23 -48t-33 -40.5t-39.5 -31q35 -23 52.5 -53t17.5 -73q0 -42 -15 -79.5t-46 -66.5q-33 -31 -85 -49t-125 -18h-10q-116 0 -174 46q-54 42 -54 117q0 57 35.5 104.5t89.5 75.5q-26 23 -37.5 52.5t-11.5 67.5q0 48 19 86t52.5 63.5t80 39 t100.5 13.5h6q51 0 90.5 -11.5t65.5 -32t39.5 -48.5t13.5 -61zM232 279q-22 -15 -37 -40t-15 -53q0 -27 18 -48t61 -21h6q39 0 62.5 17t23.5 49q0 26 -17 41.5t-62 36.5zM250 469q0 -23 14 -38t46 -30l35 -17q17 17 32 41.5t15 50.5q0 29 -17 44t-46 15h-2q-32 0 -54.5 -17 t-22.5 -49z" />
<glyph unicode="9" d="M325 192q13 24 24 58q-28 -12 -59.5 -18t-58.5 -6h-3q-75 0 -121.5 36t-46.5 120q0 67 18.5 118t52.5 85.5t81 52.5t103 18h12q114 0 164.5 -58.5t50.5 -159.5q0 -42 -7 -89t-21.5 -93.5t-35.5 -90t-48 -77.5q-44 -54 -99.5 -75.5t-126.5 -21.5q-38 0 -79.5 7.5 t-68.5 18.5q-17 7 -19 16t3 26l21 59q6 17 15 20t27 -2q23 -6 48 -11t48 -5h6q46 0 73 16.5t47 55.5zM288 355q20 0 44 3.5t45 9.5q6 42 6 80q0 37 -15.5 57.5t-51.5 20.5h-9q-24 0 -40.5 -10.5t-27 -27t-15 -37.5t-4.5 -43q0 -29 17 -41t48 -12h3z" />
<glyph unicode=":" horiz-adv-x="241" d="M162 118q0 -11 -1.5 -25t-5.5 -28q-11 -44 -33.5 -59t-59.5 -15h-9q-36 0 -52 13t-16 37q0 11 2 25t4 25q11 44 34 59t60 15h9q68 0 68 -47zM236 499q0 -11 -1.5 -25t-5.5 -28q-11 -44 -33.5 -59t-59.5 -15h-9q-36 0 -52 13t-16 37q0 11 2 25t4 25q11 44 34 59t60 15h9 q68 0 68 -47z" />
<glyph unicode=";" horiz-adv-x="246" d="M98 165q38 0 53.5 -13.5t16.5 -40.5q0 -7 -1 -16.5t-5 -27.5q-4 -20 -15 -47t-29.5 -58t-44.5 -64t-60 -64q-17 -15 -36 -2l-37 26q-16 11 1 28q13 14 24.5 26.5t20.5 23.5q13 14 21 24.5t8 20.5q0 5 -6 13l-10 9q-13 12 -13 31q0 14 8 54t30 58.5t64 18.5h10zM233 499 q0 -11 -1.5 -25t-5.5 -28q-11 -44 -33.5 -59t-59.5 -15h-9q-36 0 -52 13t-16 37q0 11 2 25t4 25q11 44 34 59t60 15h9q68 0 68 -47z" />
<glyph unicode="&#x3c;" d="M463 132q20 -12 20 -23q0 -10 -15 -31l-44 -58q-15 -19 -27 -19q-10 0 -19 6l-317 193q-13 8 -16 16t0 25l7 38q4 19 9.5 26t22.5 15l389 192q12 6 20 6q14 0 21 -19l20 -54q7 -19 7 -28t-6.5 -14.5t-19.5 -12.5l-268 -130z" />
<glyph unicode="=" d="M87 312q-20 0 -25 9t-1 27l12 62q5 24 12.5 32t27.5 8h403q20 0 25 -9t1 -27l-12 -62q-5 -24 -12.5 -32t-27.5 -8h-403zM39 66q-20 0 -25 9t-1 27l12 62q5 24 12.5 32t27.5 8h403q20 0 25 -9t1 -27l-12 -62q-5 -24 -12.5 -32t-27.5 -8h-403z" />
<glyph unicode="&#x3e;" d="M96 387q-20 12 -20 23q0 10 15 31l44 58q15 19 27 19q10 0 19 -6l317 -193q13 -8 16 -16t0 -25l-7 -38q-4 -19 -9.5 -26t-22.5 -15l-389 -192q-12 -6 -20 -6q-14 0 -21 19l-20 54q-7 19 -7 28t6.5 14.5t19.5 12.5l268 130z" />
<glyph unicode="?" horiz-adv-x="463" d="M210 219q-3 -17 -26 -17h-82q-16 0 -16 12q0 54 22.5 94.5t85.5 73.5l34 18q19 10 33 19t23 18.5t13.5 21t4.5 27.5q0 22 -15 31t-44 9h-3q-23 0 -56.5 -6.5t-65.5 -16.5q-27 -9 -31 11l-16 74q-3 14 -0.5 21.5t21.5 14.5q41 15 93 23.5t99 8.5h4q92 0 135 -36.5 t43 -104.5q0 -39 -7 -67t-23 -49.5t-40.5 -39.5t-59.5 -36l-34 -18q-26 -14 -42.5 -24t-26.5 -19.5t-15 -19.5t-8 -23zM107 -9q-32 0 -51.5 15.5t-19.5 47.5q0 46 26 74.5t77 28.5h3q32 0 51.5 -15.5t19.5 -47.5q0 -46 -26 -74.5t-77 -28.5h-3z" />
<glyph unicode="@" horiz-adv-x="820" d="M778 407q0 -52 -14 -100.5t-41 -86.5t-67.5 -61t-92.5 -23q-45 0 -75.5 13t-42.5 36h-3q-14 -16 -38 -25.5t-53 -9.5h-2q-55 0 -79.5 28.5t-24.5 73.5q0 22 5.5 55t14.5 66q18 66 48.5 95.5t86.5 29.5q32 0 53.5 -11t33.5 -28l8 15q4 8 8 10.5t15 2.5h55q11 0 15.5 -3.5 t2.5 -14.5l-34 -168q-7 -35 -7 -54q0 -14 6.5 -22.5t23.5 -8.5q23 0 39 17t25.5 43t13.5 57t4 60q0 91 -55.5 138.5t-151.5 47.5q-61 0 -112 -20.5t-89 -60.5q-42 -44 -62 -104.5t-20 -127.5q0 -94 57.5 -145t175.5 -51q54 0 104.5 6t89.5 15q13 3 17.5 0.5t6.5 -12.5 l10 -49q2 -13 -1.5 -18t-17.5 -10q-21 -6 -48 -12t-56.5 -10.5t-60.5 -7t-61 -2.5q-172 0 -261 76t-89 211q0 81 26.5 158.5t85.5 139.5q60 62 142 94t179 32q65 0 121 -17.5t97.5 -52t65 -86t23.5 -118.5zM445 346q7 32 7 39q0 25 -27 25q-16 0 -26.5 -10t-17.5 -34 q-4 -13 -7 -28t-5.5 -29t-3.5 -26t-1 -20q0 -13 5.5 -21t19.5 -8q17 0 27.5 12t16.5 41z" />
<glyph unicode="A" horiz-adv-x="605" d="M349 248q-2 48 -6 109.5t-8 114.5h-11q-26 -55 -53 -113t-51 -111h129zM353 116h-187l-39 -83q-9 -19 -19 -26t-40 -7h-89q-29 0 -29 19q0 11 3.5 19t9.5 21q34 71 70.5 144t72.5 143t70.5 135t64.5 121q14 25 31.5 35t47.5 10h86q30 0 44 -10t17 -35q17 -125 32 -253.5 t30 -271.5q2 -17 3 -29.5t1 -23.5q0 -12 -8.5 -18t-31.5 -6h-88q-23 0 -33 7t-12 26z" />
<glyph unicode="B" horiz-adv-x="569" d="M324 656q118 0 167 -34t49 -98q0 -56 -23 -105t-79 -75v-3q38 -9 60 -35t22 -72q0 -44 -12 -89.5t-48 -80.5q-35 -34 -92.5 -49t-140.5 -15h-14q-54 0 -100 1.5t-80 4.5q-27 3 -27 24q0 11 1.5 22.5t5.5 29.5l102 533q4 19 12.5 25.5t29.5 8.5q34 4 72.5 5.5t79.5 1.5h15 zM196 170q-4 -19 -4 -24q0 -8 13 -9q7 -1 17 -1.5t20 -0.5h5q39 0 60.5 10t31.5 32q6 14 8 26.5t2 28.5q0 25 -16 34.5t-51 9.5h-66zM308 521q-10 0 -20 -0.5t-17 -1.5q-9 -2 -11 -11l-21 -113h38q68 0 85 50q3 9 4.5 19.5t1.5 18.5q0 22 -13.5 30t-39.5 8h-7z" />
<glyph unicode="C" horiz-adv-x="555" d="M249 -9q-144 0 -192 67q-12 17 -20.5 43.5t-8.5 65.5q0 12 2 31t6 47t11 66.5t18 89.5q16 75 36.5 121t57.5 77q34 29 83 43t119 14h7q48 0 93.5 -10t83.5 -30q13 -7 13 -15q0 -6 -3 -15.5t-12 -29.5l-26 -57q-7 -15 -17 -15t-20 5q-26 12 -54 19.5t-60 7.5h-4 q-61 0 -92 -34q-8 -8 -13.5 -18t-10 -23.5t-9 -32t-9.5 -45.5q-14 -68 -19.5 -107t-5.5 -64q0 -32 21 -46.5t77 -14.5h6q29 0 64 6.5t62 16.5q11 4 18 4q5 0 9 -4t6 -15l6 -44q2 -16 3.5 -26.5t1.5 -18.5q0 -17 -36 -30q-33 -12 -81.5 -20.5t-100.5 -8.5h-10z" />
<glyph unicode="D" horiz-adv-x="625" d="M281 510q-11 -1 -15 -4.5t-6 -12.5l-55 -288q-9 -50 -9 -54q0 -7 3.5 -9t9.5 -3q9 -1 19.5 -1h18.5h9q32 0 54.5 7t39.5 22q12 10 21 21.5t16.5 27.5t14 38t13.5 52q8 33 12.5 66.5t4.5 53.5q0 38 -17 59q-12 15 -32 21t-51 6h-9q-9 0 -21.5 -0.5t-20.5 -1.5zM173 0 q-38 0 -77.5 1t-59.5 3q-30 3 -30 28q0 5 2.5 19t9.5 47l97 505q5 24 15 31t27 9q66 6 170 6h11q92 0 144 -18t78 -51q28 -36 34.5 -87.5t-5.5 -136.5q-9 -64 -21 -110.5t-27 -80t-33 -56.5t-40 -41q-46 -38 -112 -53t-162 -15h-21z" />
<glyph unicode="E" horiz-adv-x="521" d="M200 264l-4 -22q-5 -23 -8.5 -49.5t-3.5 -43.5q0 -13 16 -13h210q14 0 20 -3t6 -14q0 -6 -1.5 -16.5t-4.5 -29.5l-7 -42q-4 -18 -11.5 -24.5t-28.5 -6.5h-308q-31 0 -43 11.5t-12 38.5q0 19 2 46.5t6 61.5t9.5 72t13.5 78l5 27q6 31 13.5 67t15.5 70.5t15.5 65.5t13.5 53 q4 16 9.5 27t14 17.5t22 9t33.5 2.5h322q14 0 18.5 -2.5t4.5 -10.5q0 -4 -1.5 -13.5t-5.5 -30.5l-9 -49q-4 -18 -9.5 -24t-29.5 -6h-208q-14 0 -19 -4.5t-8 -15.5q-5 -17 -11 -45.5t-11 -55.5h205q15 0 21 -2.5t6 -10.5t-1.5 -18.5t-6.5 -30.5l-9 -41q-3 -13 -10 -18t-23 -5 h-208z" />
<glyph unicode="F" horiz-adv-x="513" d="M216 261l-44 -229q-2 -11 -4.5 -17t-7 -9.5t-11.5 -4.5t-19 -1h-93q-18 0 -25.5 2.5t-7.5 13.5q0 5 2 14.5t6 29.5l105 547q5 23 17 31.5t36 8.5h348q22 0 22 -16q0 -5 -2 -17.5t-6 -32.5l-8 -42q-3 -16 -11 -22t-28 -6h-205q-9 0 -12.5 -3t-5.5 -11l-21 -110h192 q15 0 21 -3t6 -11q0 -7 -2 -20t-5 -30l-6 -35q-3 -16 -10.5 -21.5t-26.5 -5.5h-194z" />
<glyph unicode="G" horiz-adv-x="622" d="M61 381q9 48 19 82.5t21.5 60t26 43.5t32.5 33q33 27 84.5 41.5t133.5 14.5h4q51 0 105 -11t95 -32q8 -4 10 -8t2 -9q0 -6 -2 -12.5t-7 -17.5l-29 -67q-5 -11 -9.5 -14t-10.5 -3q-4 0 -10.5 1.5t-25.5 8.5q-24 9 -57.5 16.5t-64.5 7.5h-4q-37 0 -61 -7.5t-40 -23.5 q-8 -8 -14 -18.5t-11.5 -25t-10 -34t-9.5 -46.5q-8 -43 -13 -71t-8 -46t-4 -29t-1 -20q0 -33 17 -47q21 -18 64 -18h6q16 0 32.5 1t29.5 5q11 3 16.5 7.5t7.5 16.5l19 92h-63q-18 0 -18 12q0 5 1 11.5t3 18.5l10 52q4 19 11 25t24 6h188q25 0 25 -17q0 -6 -2.5 -21t-7.5 -37 l-47 -233q-3 -16 -10.5 -24.5t-26.5 -16.5q-36 -16 -92.5 -26.5t-116.5 -10.5h-11q-81 0 -129.5 17t-70.5 45q-17 21 -25 45.5t-8 63.5q0 11 1 26t4.5 39.5t10 61t17.5 92.5z" />
<glyph unicode="H" horiz-adv-x="651" d="M391 0q-28 0 -28 17q0 3 1 12t6 32l37 196h-191l-43 -226q-4 -18 -12.5 -24.5t-28.5 -6.5h-98q-28 0 -28 17q0 3 1 12t6 32l108 560q3 17 9.5 21.5t29.5 4.5h97q19 0 25 -4t6 -12t-2 -16t-5 -25l-38 -197h191l43 223q4 21 11 26t30 5h96q19 0 25 -3.5t6 -11.5t-2.5 -18 t-4.5 -24l-108 -559q-4 -21 -10.5 -26t-29.5 -5h-99z" />
<glyph unicode="I" horiz-adv-x="301" d="M176 26q-3 -17 -9.5 -21.5t-29.5 -4.5h-97q-19 0 -25 4t-6 12t2 18.5t4 22.5l110 564q3 17 9.5 21.5t29.5 4.5h97q19 0 25 -4t6 -12t-2.5 -17.5t-4.5 -23.5z" />
<glyph unicode="J" horiz-adv-x="425" d="M347 202q-8 -40 -16 -68t-17.5 -47.5t-21.5 -33t-28 -23.5q-26 -17 -66.5 -23.5t-95.5 -6.5h-110q-28 0 -28 17q0 8 1.5 17.5t5.5 26.5l8 41q5 23 13 29.5t28 6.5h86q20 0 32.5 2t20 9t12 20t9.5 36l79 411q4 21 11.5 26t30.5 5h101q17 0 21 -3t4 -11t-7 -42z" />
<glyph unicode="K" horiz-adv-x="604" d="M173 28q-3 -17 -10 -22.5t-30 -5.5h-103q-13 0 -18.5 2.5t-5.5 13.5q0 4 1.5 13t5.5 29l108 558q5 21 12.5 26t27.5 5h97q18 0 24.5 -2.5t6.5 -10.5q0 -7 -2.5 -20.5t-8.5 -43.5l-33 -172h19q14 0 26 16l159 208q12 14 23.5 19.5t31.5 5.5h109q24 0 29 -9t-12 -29 l-229 -273l-4 -11q34 -60 69.5 -134t64.5 -143q5 -11 7 -17.5t2 -12.5q0 -9 -5.5 -13.5t-19.5 -4.5h-112q-20 0 -30.5 5.5t-15.5 21.5q-8 23 -18.5 52t-22 59t-24 57.5t-22.5 47.5q-6 11 -12 16t-18 5h-21z" />
<glyph unicode="L" horiz-adv-x="473" d="M196 154q-2 -11 2 -14.5t15 -3.5h167q26 0 26 -16q0 -5 -1.5 -14t-5.5 -29l-9 -45q-4 -19 -10.5 -25.5t-30.5 -6.5h-287q-24 0 -34 10t-10 31q0 30 7.5 78.5t23.5 129.5l71 367q4 21 11 26t30 5h103q24 0 24 -13q0 -7 -2.5 -20t-8.5 -43z" />
<glyph unicode="M" horiz-adv-x="803" d="M597 404q-45 -89 -83.5 -164.5t-70.5 -135.5q-12 -23 -25.5 -29t-36.5 -6h-63q-24 0 -33.5 7.5t-12.5 27.5q-8 55 -17.5 134t-17.5 166h-4q-11 -48 -21 -97.5t-20 -97.5t-19 -92.5t-16 -82.5q-4 -21 -12 -27.5t-33 -6.5h-80q-20 0 -27.5 4.5t-7.5 15.5q0 7 2.5 18.5 t4.5 22.5q14 64 29.5 133t31.5 138t32.5 136t31.5 127q9 32 21 42t39 10h87q35 0 48.5 -10t16.5 -38q10 -103 18.5 -187.5t16.5 -165.5h7q21 40 43 84.5t44.5 90t44.5 90.5t43 88q14 28 31 38t52 10h99q22 0 32 -6t10 -23q0 -11 -2.5 -29.5t-6.5 -44.5q-8 -49 -17 -110 t-19 -128.5t-21.5 -137t-23.5 -134.5q-4 -20 -12 -27t-33 -7h-84q-20 0 -26 4.5t-6 13.5q0 11 3 25.5t8 37.5q14 72 29 153.5t30 169.5h-4z" />
<glyph unicode="N" horiz-adv-x="643" d="M224 350h-2l-61 -316q-4 -21 -12.5 -27.5t-28.5 -6.5h-86q-17 0 -22.5 4t-5.5 14q0 7 2 16.5t4 23.5l108 556q4 20 13 26.5t27 6.5h40q23 0 34.5 -6t19.5 -22l161 -331h2l64 325q4 21 13 27.5t28 6.5h85q30 0 30 -17q0 -5 -2.5 -17.5l-5.5 -27.5l-107 -552 q-4 -20 -13.5 -26.5t-26.5 -6.5h-41q-21 0 -33 5.5t-21 22.5z" />
<glyph unicode="O" horiz-adv-x="633" d="M414 305q11 59 15.5 89t4.5 50q0 34 -12 49q-19 23 -62 23h-12q-23 0 -39.5 -6t-30.5 -18q-20 -17 -33 -55.5t-24 -94.5q-11 -57 -16 -87.5t-5 -50.5q0 -33 13 -49q19 -24 62 -24h12q23 0 39.5 6t30.5 18q21 18 33.5 56t23.5 94zM579 285q-10 -51 -20 -89t-23.5 -67 t-31.5 -50.5t-42 -38.5q-36 -25 -85.5 -37t-119.5 -12h-11q-57 0 -101.5 13t-68.5 34q-26 23 -37 55t-11 79q0 21 6 70t21 126q9 48 20 85.5t26 67t35 52t47 40.5q63 43 192 43h8q57 0 101 -12t70 -35q51 -45 51 -125q0 -34 -6 -79.5t-20 -119.5z" />
<glyph unicode="P" horiz-adv-x="575" d="M324 521q-11 0 -25.5 -0.5t-23.5 -2.5q-8 -1 -10 -12l-30 -157h52q47 0 70.5 15.5t34.5 56.5q8 32 8 52q0 18 -9 30q-15 18 -59 18h-8zM174 32q-2 -11 -4.5 -17t-7 -9.5t-11.5 -4.5t-19 -1h-93q-18 0 -25.5 2.5t-7.5 13.5q0 5 2.5 16.5t5.5 27.5l106 551q4 21 13 29 t34 10q69 6 166 6h12q54 0 96 -7.5t70.5 -26.5t43.5 -51.5t15 -82.5q0 -26 -5.5 -59t-17.5 -66.5t-32 -62.5t-50 -47q-40 -24 -90.5 -32.5t-117.5 -8.5h-48z" />
<glyph unicode="Q" horiz-adv-x="633" d="M414 305q11 59 15.5 89t4.5 50q0 34 -12 49q-19 23 -62 23h-12q-23 0 -39.5 -6t-30.5 -18q-20 -17 -33 -55.5t-24 -94.5q-11 -57 -16 -87.5t-5 -50.5q0 -33 13 -49q19 -24 62 -24h12q23 0 39.5 6t30.5 18q21 18 33.5 56t23.5 94zM462 40q-49 -34 -125 -44 q21 -24 48.5 -50.5t53.5 -46.5q13 -10 13 -19q0 -8 -5 -13t-14 -12l-63 -49q-14 -10 -24 -10q-13 0 -22 9q-20 17 -38 39.5t-34.5 47.5t-29.5 51.5t-22 50.5q-41 4 -74 15.5t-50 28.5q-26 23 -37 55t-11 79q0 21 6 70t21 126q9 48 20 85.5t26 67t35 52t47 40.5q63 43 192 43 h8q57 0 101 -12t70 -35q51 -45 51 -125q0 -34 -6 -79.5t-20 -119.5q-10 -51 -20 -89t-23.5 -67t-31.5 -50.5t-42 -38.5z" />
<glyph unicode="R" horiz-adv-x="591" d="M175 31q-4 -18 -11 -24.5t-30 -6.5h-98q-23 0 -27 7t-1 24l112 578q4 21 13 29.5t29 10.5q28 3 73 5t96 2h11q50 0 92.5 -6.5t74 -23.5t49 -46.5t17.5 -75.5q0 -43 -9.5 -83t-30 -74.5t-52 -60.5t-76.5 -40q12 -20 25.5 -46t26 -53.5t23 -55.5t17.5 -51q3 -9 3.5 -13 t0.5 -9q0 -18 -27 -18h-101q-26 0 -35.5 5.5t-13.5 22.5q-10 46 -27 95.5t-37 90.5q-5 11 -11 14t-15 3h-23zM320 520h-19t-16 -1q-8 -1 -13 -5t-7 -17l-26 -133h53q31 0 49 5t29 14q17 14 25 41.5t8 50.5q0 27 -15 36t-51 9h-17z" />
<glyph unicode="S" horiz-adv-x="537" d="M200 -9q-21 0 -47 2t-52 6t-49.5 9t-39.5 11q-18 7 -21.5 14t0.5 23l18 83q4 17 12 21.5t22 -0.5q39 -14 80.5 -22.5t76.5 -8.5h5q42 0 63.5 9.5t30.5 30.5q8 19 8 41q0 17 -12.5 28.5t-50.5 20.5l-61 14q-70 16 -98.5 50t-28.5 89q0 25 4 52t13 53t23.5 49.5t36.5 40.5 q32 26 78 37.5t115 11.5h4q45 0 90 -8t77 -20q17 -6 17 -20q0 -5 -3.5 -15.5t-11.5 -32.5l-17 -45q-6 -17 -14 -20t-23 2q-32 9 -61.5 14t-58.5 5h-5q-52 0 -76 -16t-24 -48q0 -19 13.5 -30.5t57.5 -22.5l63 -16q65 -17 93.5 -44t28.5 -77q0 -71 -14 -124t-46 -86 q-60 -61 -207 -61h-9z" />
<glyph unicode="T" horiz-adv-x="529" d="M82 511q-15 0 -21 3.5t-6 11.5q0 5 1.5 14t3.5 17l11 59q4 20 12 25.5t26 5.5h427q15 0 21.5 -3t6.5 -13q0 -5 -1.5 -13t-5.5 -27l-9 -50q-4 -19 -11 -24.5t-27 -5.5h-130l-93 -479q-4 -20 -11.5 -26t-30.5 -6h-96q-18 0 -24.5 3.5t-6.5 14.5q0 5 3 19.5t6 29.5l86 444 h-131z" />
<glyph unicode="U" horiz-adv-x="632" d="M204 231q-5 -28 -5 -44q0 -25 10 -36q16 -20 65 -20h5q49 0 73 20q14 11 21.5 30.5t13.5 49.5l75 385q5 21 11.5 26t29.5 5h98q15 0 21 -5t6 -16q0 -7 -3 -25l-73 -375q-6 -33 -13.5 -59t-17.5 -48t-24 -39.5t-34 -33.5q-72 -55 -205 -55h-12q-69 0 -113.5 14t-69.5 41 q-35 41 -35 103q0 17 1.5 35.5t6.5 41.5l76 390q4 21 11 26t30 5h99q15 0 21 -5t6 -16q0 -7 -3 -25z" />
<glyph unicode="V" horiz-adv-x="574" d="M255 180q54 107 103.5 220t89.5 219q8 20 16 24t29 4h99q17 0 23.5 -2.5t6.5 -10.5q0 -10 -7 -26t-12 -28q-29 -65 -61.5 -134.5t-67 -139.5t-70 -139t-70.5 -132q-9 -17 -23 -26t-41 -9h-98q-24 0 -35 9t-15 26q-12 58 -21.5 132.5t-17 153t-11.5 156.5t-5 144 q0 15 7 20.5t30 5.5h91q22 0 29 -4t7 -24q0 -54 1.5 -114t3.5 -119t5.5 -112.5t8.5 -93.5h5z" />
<glyph unicode="W" horiz-adv-x="825" d="M424 363q-35 -88 -72 -174.5t-69 -155.5q-8 -17 -21 -25t-42 -8h-92q-27 0 -37 7t-11 24q-9 139 -11.5 291t1.5 299q1 14 8.5 20t27.5 6h98q18 0 26 -4.5t7 -21.5q-7 -132 -11.5 -239t-7.5 -202h4q21 48 43.5 101.5t44.5 107t42 103t37 90.5q5 14 14 20t29 6h73 q20 0 28 -6t8 -20q1 -91 2 -195.5t3 -206.5h4q32 92 70 200.5t83 240.5q5 17 15 21.5t28 4.5h98q29 0 29 -14q0 -7 -6 -22t-11 -29q-25 -67 -52.5 -137t-56 -140.5t-57.5 -140t-58 -133.5q-8 -17 -20.5 -24t-39.5 -7h-83q-29 0 -39 8t-12 25q-5 69 -6 154.5t-2 175.5h-6z " />
<glyph unicode="X" horiz-adv-x="582" d="M257 230q-32 -45 -63 -98.5t-57 -101.5q-10 -18 -22 -24t-35 -6h-98q-11 0 -17.5 4t-5.5 11q0 5 3 10.5t7 11.5q19 35 43 72.5t48.5 73.5t48.5 68.5t44 56.5q5 5 10 13t5 16q0 9 -4 18q-23 57 -45.5 126t-43.5 139q-3 11 4 19t26 8h100q21 0 30 -5t12 -17 q10 -53 20 -103.5t21 -90.5q3 -12 6.5 -16.5t8.5 -4.5h3q8 0 22 20q24 35 57 87.5t62 107.5q6 12 17 17t33 5h100q21 0 24.5 -7.5t-4.5 -19.5q-45 -75 -94 -147t-94 -128q-13 -16 -13 -24q0 -9 6 -22q28 -72 51 -138t42 -124q5 -14 0.5 -25.5t-27.5 -11.5h-96 q-21 0 -29.5 7.5t-12.5 22.5q-5 19 -11 44.5t-13.5 52.5t-15.5 53.5t-15 49.5q-8 21 -13 21h-5q-5 0 -20 -21z" />
<glyph unicode="Y" horiz-adv-x="530" d="M150 0q-28 0 -28 17q0 10 7 42l26 132q-14 42 -28 93.5t-26 107.5t-21 112.5t-13 109.5q-3 33 24 33h99q22 0 29.5 -2.5t9.5 -21.5q2 -32 5.5 -69.5t8 -75.5t9.5 -74t10 -65h5q16 29 35 65t37.5 74t36 75.5t32.5 69.5q7 19 15 21.5t30 2.5h104q20 0 20 -14 q0 -10 -6 -22.5t-14 -29.5q-24 -49 -52.5 -101.5t-59.5 -104t-62.5 -100t-61.5 -88.5l-30 -156q-4 -18 -11.5 -24.5t-26.5 -6.5h-103z" />
<glyph unicode="Z" horiz-adv-x="529" d="M421 136q16 0 23 -3.5t7 -14.5q0 -5 -1 -14t-5 -29l-9 -43q-4 -20 -12.5 -26t-28.5 -6h-397q-30 0 -30 17q0 11 4 28l4 19q3 17 8 26.5t18 25.5l313 395h-205q-30 0 -30 18q0 6 1.5 15t4.5 23l9 48q4 20 12.5 26t28.5 6h384q18 0 24 -5.5t3 -23.5l-7 -34q-3 -16 -9 -27.5 t-22 -31.5l-318 -389h230z" />
<glyph unicode="[" horiz-adv-x="356" d="M242 50q14 0 19 -3.5t5 -10.5q0 -4 -1 -11.5t-4 -21.5l-12 -62q-3 -17 -10 -22t-25 -5h-200q-26 0 -26 16q0 5 1 12.5t4 21.5l134 686q3 17 10.5 22t24.5 5h200q26 0 26 -14q0 -8 -4 -28l-13 -66q-2 -15 -9 -21.5t-25 -6.5h-76l-95 -491h76z" />
<glyph unicode="\" horiz-adv-x="393" d="M70 622q-3 20 -4 28t-1 12q0 12 7 18t24 6h97q23 0 29 -7.5t9 -27.5l93 -621q2 -11 3 -19.5t1 -13.5q0 -8 -6.5 -14t-24.5 -6h-98q-23 0 -29 7.5t-9 27.5z" />
<glyph unicode="]" horiz-adv-x="356" d="M102 541q-14 0 -19 3.5t-5 10.5q0 4 1 11.5t4 21.5l12 62q3 17 10 22t25 5h200q26 0 26 -16q0 -5 -1 -12.5t-4 -21.5l-134 -686q-3 -17 -10.5 -22t-24.5 -5h-200q-26 0 -26 14q0 8 4 28l13 66q2 15 9 21.5t25 6.5h76l95 491h-76z" />
<glyph unicode="^" horiz-adv-x="570" d="M367 647q17 0 25.5 -5.5t16.5 -20.5l98 -184q4 -9 6 -14t2 -10q0 -8 -4.5 -13t-18.5 -13l-58 -35q-14 -9 -22.5 -7t-15.5 13l-85 132l-139 -134q-13 -12 -21 -14t-19 8l-42 37q-13 11 -13 20q0 6 2.5 11t10.5 13l174 190q15 15 24.5 20.5t32.5 5.5h46z" />
<glyph unicode="_" horiz-adv-x="565" d="M6 -161q-25 0 -32.5 7t-7.5 25v59q0 18 8.5 25t31.5 7h421q23 0 31.5 -7t8.5 -25v-59q0 -18 -7.5 -25t-32.5 -7h-421z" />
<glyph unicode="`" horiz-adv-x="414" d="M373 640q7 -7 7 -14q0 -9 -16 -25l-34 -34q-7 -7 -12 -10.5t-11 -3.5q-5 0 -10.5 2.5t-10.5 6.5l-161 123q-13 10 -13 20q0 9 11 21l56 61q11 11 21 11q9 0 23 -13z" />
<glyph unicode="a" horiz-adv-x="503" d="M271 38q-17 -22 -49.5 -34.5t-88.5 -12.5h-3q-69 0 -104.5 32.5t-35.5 89.5q0 17 2 36t7.5 37.5t14 35.5t20.5 30q24 26 66.5 39t105.5 13h6q20 0 42 -1t33 -3q3 11 4.5 20t1.5 14v2q0 20 -16.5 29t-52.5 9h-3q-19 0 -42.5 -3t-42.5 -8q-8 -2 -20 -4.5t-18 -2.5 q-14 0 -15 16l-5 51q-1 10 -1.5 18.5t-0.5 13.5q0 7 3 11t12 7q15 5 36.5 9.5t45.5 8.5t49 6t49 2h3q51 0 85 -8.5t57 -25.5q18 -14 28 -35.5t10 -56.5q0 -14 -3.5 -45.5t-14.5 -85.5l-43 -214q-3 -15 -11 -21.5t-28 -6.5h-52q-16 0 -21.5 4t-6.5 16l-1 18h-2zM269 197 q-11 2 -26 2.5t-29 0.5h-11q-36 0 -52.5 -14.5t-16.5 -42.5q0 -18 11 -28t38 -10h5q35 0 53 15q9 8 13.5 18.5t9.5 30.5z" />
<glyph unicode="b" horiz-adv-x="536" d="M181 219q-5 -23 -6.5 -39t-1.5 -23q0 -22 11 -31.5t39 -9.5h4q22 0 34.5 4.5t20.5 13.5q8 10 13 26.5t10 40.5l13 65q5 22 7.5 39t2.5 31q0 20 -13.5 28.5t-36.5 8.5h-5q-32 0 -48 -12q-11 -8 -16.5 -20.5t-10.5 -35.5zM233 477q20 10 50.5 16t69.5 6h5q61 0 97.5 -27 t36.5 -88q0 -20 -2.5 -45t-9.5 -59l-14 -72q-14 -68 -30 -107.5t-45 -62.5q-34 -27 -77 -37t-106 -10h-11q-71 0 -108.5 13t-56.5 37q-10 13 -16.5 29t-6.5 42q0 23 4 50.5t12 71.5l81 414q3 16 11.5 22.5t27.5 6.5h95q26 0 26 -19q0 -8 -2.5 -20t-7.5 -37l-25 -124h2z" />
<glyph unicode="c" horiz-adv-x="452" d="M235 116q18 0 45 5t45 10q10 3 16 3q14 0 15 -17l5 -50q1 -8 1.5 -15.5t0.5 -14.5q0 -9 -6 -14t-21 -10q-31 -10 -68 -16t-84 -6h-10q-59 0 -95.5 13t-54.5 36q-14 17 -20 39.5t-6 49.5q0 18 2.5 41t7.5 52l14 76q11 60 31 98t55 62q26 18 65.5 29.5t89.5 11.5h5 q39 0 81 -10t71 -24q9 -5 12 -9.5t3 -9.5q0 -7 -3 -14.5t-8 -19.5l-21 -46q-5 -11 -9 -15t-11 -4q-6 0 -18 5q-17 8 -41 14.5t-44 6.5h-5q-39 0 -63 -21q-14 -12 -22.5 -31t-14.5 -53l-8 -45q-3 -17 -5 -31t-2 -25q0 -26 15.5 -38.5t54.5 -12.5h5z" />
<glyph unicode="d" horiz-adv-x="531" d="M315 304q5 24 3.5 35.5t-6.5 18.5q-12 15 -46 15h-8q-33 0 -50 -17q-11 -11 -17 -27t-11 -44l-11 -59q-4 -21 -6.5 -40.5t-2.5 -34.5q0 -35 48 -35h6q14 0 28 3t23 10t15 16.5t11 35.5zM349 481l33 167q6 29 40 29h91q16 0 22 -4.5t6 -13.5q0 -7 -6 -40l-82 -426 q-6 -33 -12.5 -57t-14 -42.5t-17.5 -32t-25 -24.5q-28 -21 -71.5 -33.5t-121.5 -12.5h-9q-62 0 -95 12.5t-50 26.5q-17 15 -27.5 38t-10.5 54q0 14 1.5 38t8.5 61l15 78q11 59 27.5 94.5t42.5 58.5q23 21 62 34t88 13h9q29 0 53 -5t41 -13h2z" />
<glyph unicode="e" horiz-adv-x="493" d="M244 116q23 0 53 4.5t53 9.5q4 1 9 2t10 1q13 0 15 -17l4 -46q1 -9 1.5 -17t0.5 -13q0 -10 -7 -15.5t-24 -10.5q-27 -8 -71 -15.5t-89 -7.5h-14q-89 0 -138 33t-49 116q0 26 3 53.5t8 51.5l7 35q16 78 38.5 118.5t52.5 61.5q26 18 67 28.5t98 10.5h3q45 0 80.5 -9.5 t58.5 -31.5q17 -17 26.5 -40.5t9.5 -58.5q0 -21 -4 -48.5t-11 -65.5l-5 -27q-3 -17 -10.5 -22.5t-23.5 -5.5h-237q-4 -19 -4 -35q0 -20 16.5 -29.5t66.5 -9.5h6zM287 294q10 0 13 10l2 9q4 19 4 31q0 43 -51 43h-2q-31 0 -47 -15q-10 -9 -15 -22.5t-10 -38.5l-3 -17h109z " />
<glyph unicode="f" horiz-adv-x="387" d="M33 365q-18 0 -18 14q0 5 4 25l8 41q3 15 8 20t16 8l67 15l8 43q8 42 23 71t41 48q48 36 137 36h10q29 0 55.5 -4t42.5 -9q11 -3 14.5 -7t3.5 -9q0 -6 -2.5 -16.5t-5.5 -21.5l-11 -43q-4 -14 -8.5 -18.5t-11.5 -4.5q-11 0 -30 4.5t-40 4.5h-3q-31 0 -44 -13 q-6 -6 -10 -16t-7 -27l-3 -16h86q22 0 22 -14q0 -5 -6 -36l-10 -51q-3 -14 -9.5 -19t-20.5 -5h-87l-47 -241q-10 -51 -19 -92.5t-18 -74.5t-18.5 -59.5t-19.5 -48.5q-8 -17 -17.5 -21.5t-26.5 -4.5h-80q-29 0 -29 21q0 8 8 35q11 37 19.5 67t15 56.5t12.5 50.5t11 51l51 261 h-61z" />
<glyph unicode="g" horiz-adv-x="526" d="M138 0q-34 0 -64 10.5t-49 32.5q-21 25 -25 66t8 105l14 75q6 31 13 55.5t16.5 44.5t22 36t28.5 30q26 23 63.5 33.5t82.5 10.5h10q43 0 76 -12.5t47 -35.5h2l9 20q5 12 10.5 15.5t17.5 3.5h63q12 0 17 -5.5t2 -20.5l-86 -443q-12 -62 -31.5 -102.5t-48.5 -64t-68 -32.5 t-90 -9h-9q-38 0 -77.5 6t-65.5 14q-16 4 -16 15q0 5 2 13.5t4 17.5l14 55q4 12 8.5 15.5t24.5 -1.5q25 -6 48.5 -9.5t48.5 -3.5h6q48 0 71 18t31 58l3 15h-2q-17 -13 -46.5 -19.5t-76.5 -6.5h-8zM313 304q5 23 4.5 34.5t-5.5 19.5q-8 15 -43 15h-8q-35 0 -50 -14 q-13 -13 -19 -32t-13 -57l-9 -46q-4 -20 -6 -33.5t-2 -24.5q0 -15 6 -25q9 -16 43 -16h7q32 0 49 15q18 15 24 48z" />
<glyph unicode="h" horiz-adv-x="524" d="M311 305q3 16 3 28q0 20 -12.5 29t-35.5 9q-12 0 -23.5 -3t-20.5 -10q-17 -14 -24 -53l-54 -276q-3 -14 -10 -21.5t-27 -7.5h-93q-17 0 -23.5 4.5t-6.5 12.5t2 18t5 24l116 594q3 14 10 19t23 5h98q17 0 22.5 -4.5t5.5 -12.5t-2.5 -21t-5.5 -27l-27 -138h3q23 12 50 18.5 t61 6.5h2q62 0 97.5 -24t35.5 -80q0 -18 -2 -40t-9 -54l-54 -272q-3 -14 -10 -21.5t-27 -7.5h-91q-17 0 -23.5 4.5t-6.5 14.5q0 11 6 38z" />
<glyph unicode="i" horiz-adv-x="266" d="M148 29q-2 -14 -10 -21.5t-28 -7.5h-92q-17 0 -23 4.5t-6 12.5q0 6 2 16t5 24l78 404q3 14 11 21.5t28 7.5h92q16 0 22 -4.5t6 -13.5q0 -6 -2 -17t-7 -37zM166 532q-72 0 -72 56q0 110 100 110h7q72 0 72 -56q0 -110 -100 -110h-7z" />
<glyph unicode="j" horiz-adv-x="261" d="M75 461q3 14 11 21.5t28 7.5h92q16 0 22 -4.5t6 -13.5q0 -6 -2 -17t-7 -37l-72 -370q-14 -73 -30 -112t-41 -62q-28 -26 -68.5 -38.5t-92.5 -12.5h-54q-22 0 -22 17q0 8 1.5 15.5t3.5 20.5l9 49q2 14 8.5 19t21.5 5h19q19 0 33 4.5t24 15.5t17.5 31t13.5 52zM167 532 q-72 0 -72 56q0 110 100 110h7q72 0 72 -56q0 -110 -100 -110h-7z" />
<glyph unicode="k" horiz-adv-x="511" d="M144 30q-3 -15 -12 -22.5t-29 -7.5h-91q-16 0 -22 4.5t-6 13.5q0 6 1.5 15t4.5 25l116 590q3 14 11.5 21.5t28.5 7.5h91q16 0 22 -4.5t6 -13.5q0 -10 -6 -40l-58 -297h21q4 0 8 4t15 17l102 124q11 14 21 18.5t30 4.5h112q17 0 17 -12q0 -7 -13 -23l-178 -202 q26 -42 54.5 -98.5t50.5 -107.5q4 -9 7.5 -17.5t2.5 -13.5q-3 -16 -24 -16h-100q-21 0 -29.5 5.5t-13.5 20.5q-12 35 -29.5 78t-34.5 76q-5 9 -8.5 11.5t-10.5 2.5h-25z" />
<glyph unicode="l" horiz-adv-x="308" d="M213 124q14 0 19 -4t5 -14q0 -8 -6 -38l-7 -34q-5 -21 -13 -27.5t-26 -6.5h-68q-45 0 -66.5 7t-34.5 22q-8 10 -12 21t-4 28t4 42.5t11 60.5l91 467q4 18 11.5 23.5t27.5 5.5h91q20 0 26 -6t3 -23l-90 -465q-3 -14 -5.5 -25.5t-2.5 -19.5q0 -14 18 -14h28z" />
<glyph unicode="m" horiz-adv-x="791" d="M414 29q-3 -14 -11 -21.5t-28 -7.5h-92q-20 0 -25 7.5t-2 21.5l54 277q3 16 3 28q0 37 -47 37q-12 0 -24 -3t-20 -10q-9 -8 -15 -20t-10 -32l-54 -277q-3 -14 -10 -21.5t-27 -7.5h-93q-29 0 -29 18q0 5 1.5 13.5t5.5 28.5l78 402q3 15 11 21.5t25 6.5h52q17 0 23 -4.5 t8 -18.5l2 -21h3q28 26 64 39.5t84 13.5h11q42 0 70 -13.5t36 -39.5h3q28 26 64.5 39.5t84.5 13.5h8q59 0 94 -24t35 -80q0 -18 -2.5 -40t-8.5 -54l-53 -272q-3 -14 -11 -21.5t-28 -7.5h-92q-20 0 -25 7.5t-2 21.5l54 277q3 16 3 28q0 37 -47 37q-12 0 -23.5 -3t-19.5 -10 q-17 -14 -24 -52z" />
<glyph unicode="n" horiz-adv-x="523" d="M310 305q3 16 3 28q0 20 -12.5 29t-35.5 9q-12 0 -23.5 -3t-20.5 -10q-17 -14 -24 -53l-54 -276q-3 -14 -10 -21.5t-27 -7.5h-93q-29 0 -29 18q0 5 1.5 13.5t5.5 28.5l78 402q3 15 11 21.5t25 6.5h52q15 0 21 -3.5t8 -14.5l3 -21h3q27 24 64 36t88 12h2q62 0 97.5 -24 t35.5 -80q0 -18 -2 -40t-9 -54l-54 -272q-3 -14 -10 -21.5t-27 -7.5h-91q-17 0 -23.5 4.5t-6.5 14.5q0 11 6 38z" />
<glyph unicode="o" horiz-adv-x="520" d="M177 274q-11 -49 -15 -75.5t-4 -41.5q0 -20 10.5 -30.5t36.5 -10.5h2q14 0 27 3t22 10q14 11 22.5 30t16.5 57q11 49 15 75.5t4 41.5q0 20 -10.5 30.5t-36.5 10.5h-2q-14 0 -27 -3t-22 -10q-14 -11 -22 -30t-17 -57zM179 -9q-48 0 -82.5 10.5t-56.5 28.5t-32 44.5 t-10 58.5q0 13 2.5 33.5t6.5 45.5t9 51.5t11 50.5q13 55 34 90t59 59q29 18 66.5 27t90.5 9h18q48 0 82.5 -10.5t56.5 -28.5t32 -44.5t10 -58.5q0 -26 -7 -72.5t-22 -105.5q-16 -62 -36.5 -96.5t-51.5 -54.5t-70 -28.5t-90 -8.5h-20z" />
<glyph unicode="p" horiz-adv-x="531" d="M188 451q29 23 66.5 35.5t91.5 12.5h7q67 0 102 -28.5t35 -91.5q0 -18 -5.5 -56.5t-19.5 -114.5q-11 -60 -26.5 -104.5t-48.5 -71.5q-30 -25 -64.5 -33t-82.5 -8h-5q-25 0 -53 6t-45 14l-30 -153q-4 -22 -13.5 -28.5t-35.5 -6.5h-78q-33 0 -33 19q0 5 0.5 12t5.5 30 l114 581q3 14 10.5 19.5t24.5 5.5h48q16 0 22 -4t8 -15l3 -20h2zM177 203q-8 -38 -8 -51q0 -20 12.5 -28t38.5 -8h5q22 0 36 6.5t23 19.5t14.5 33.5t11.5 47.5q8 35 12.5 65.5t4.5 42.5q0 42 -51 42h-7q-32 0 -48 -14t-24 -54z" />
<glyph unicode="q" horiz-adv-x="526" d="M385 -142q-5 -22 -12.5 -28.5t-33.5 -6.5h-81q-33 0 -33 19q0 5 0.5 12t5.5 30l25 128q-17 -8 -44 -14.5t-62 -6.5h-4q-66 0 -107 31t-41 104q0 36 8 79l16 84q11 59 29.5 99.5t45.5 65t64 35t87 10.5h10q45 0 77 -12.5t46 -35.5h2l9 20q5 12 10.5 15.5t17.5 3.5h63 q12 0 17 -5.5t2 -20.5zM307 270q5 23 6.5 39t1.5 23q0 22 -11 31.5t-39 9.5h-4q-22 0 -34.5 -4.5t-20.5 -13.5q-8 -10 -13 -26.5t-10 -40.5l-13 -65q-4 -20 -7 -38t-3 -29q0 -40 50 -40h5q31 0 48 12q11 8 16.5 20.5t10.5 35.5z" />
<glyph unicode="r" horiz-adv-x="370" d="M69 462q3 16 10.5 22t25.5 6h52q15 0 21.5 -4.5t7.5 -16.5l2 -30h2q22 29 51 40t70 11h46q19 0 19 -11q0 -5 -1.5 -14l-4.5 -27l-9 -49q-3 -17 -9.5 -22.5t-21.5 -5.5h-28q-57 0 -81 -21q-12 -11 -19.5 -30t-13.5 -51l-45 -230q-3 -14 -10 -21.5t-27 -7.5h-93 q-29 0 -29 18q0 5 2 16t5 26z" />
<glyph unicode="s" horiz-adv-x="453" d="M151 -9q-18 0 -39.5 2t-43 6t-40.5 9t-32 10t-14 14t4 27l19 63q6 19 21 19q9 0 21 -4t28 -8.5t36.5 -8.5t45.5 -4h2q35 0 51.5 7t16.5 27q0 11 -12.5 16.5t-52.5 16.5l-16 4q-29 8 -48 17t-31 21q-31 31 -31 91q0 92 53.5 137.5t173.5 45.5h5q34 0 70 -5t60 -13 q13 -4 13 -13q0 -3 -2 -11t-7 -26l-15 -55q-2 -9 -6.5 -12t-10.5 -3q-12 0 -41.5 6.5t-62.5 6.5h-2q-67 0 -67 -30q0 -5 2 -9t8 -8t17.5 -7.5t31.5 -8.5l16 -4q66 -16 91 -43q25 -26 25 -73q0 -103 -57.5 -151.5t-173.5 -48.5h-6z" />
<glyph unicode="t" horiz-adv-x="387" d="M301 37q-5 -22 -12 -29.5t-26 -7.5h-80q-60 0 -90 9.5t-43 27.5q-14 20 -14 50q0 14 1.5 31t6.5 40l41 207h-53q-22 0 -22 13q0 4 1 10l3 18l7 33q4 17 9.5 24t23.5 12l55 13l19 98q2 14 10.5 21.5t28.5 7.5h91q20 0 25 -7.5t3 -21.5l-19 -96h83q11 0 16 -2.5t5 -10.5 q0 -5 -6 -35l-9 -48q-4 -19 -10 -24t-20 -5h-83l-38 -196q-3 -15 -3 -23q0 -14 9.5 -18t31.5 -4h46q14 0 19 -3.5t5 -13.5q0 -5 -2 -16.5t-5 -28.5z" />
<glyph unicode="u" horiz-adv-x="514" d="M433 168q-10 -51 -26.5 -83t-43.5 -52q-30 -22 -67.5 -32t-99.5 -10h-11q-87 0 -135.5 29.5t-48.5 91.5q0 16 2.5 34.5t7.5 41.5l53 273q3 15 11 22t28 7h91q17 0 23.5 -4.5t6.5 -12.5q0 -5 -2.5 -20t-7.5 -37l-46 -237q-3 -15 -3 -27q0 -32 44 -32h4q23 0 41 13 q8 7 13 17.5t10 33.5l54 277q3 15 11 22t28 7h91q17 0 23.5 -5t6.5 -14q0 -7 -6 -37z" />
<glyph unicode="v" horiz-adv-x="490" d="M498 477q0 -8 -6 -24t-16 -36q-22 -48 -49.5 -102.5t-56 -108t-56.5 -102t-51 -84.5q-7 -10 -15 -15t-24 -5h-99q-15 0 -22.5 4.5t-10.5 16.5q-12 44 -23.5 99.5t-20.5 115t-16 117.5t-10 108q-1 16 5 22.5t25 6.5h93q17 0 22.5 -4t6.5 -19q1 -39 4 -80.5t7 -80.5 t8 -73.5t8 -60.5h4q16 30 35 68t37 77t34.5 77t29.5 69q7 17 14 22t24 5h96q23 0 23 -13z" />
<glyph unicode="w" horiz-adv-x="689" d="M400 466q17 0 22 -6t5 -18q-1 -61 -0.5 -133t2.5 -136h3q14 34 29 74.5t29 80t26 76.5t20 64q4 13 10.5 17.5t22.5 4.5h103q20 0 20 -12q0 -8 -4.5 -21.5t-11.5 -30.5q-20 -49 -42.5 -103.5t-45.5 -108t-45 -103t-40 -87.5q-8 -17 -16.5 -20.5t-24.5 -3.5h-93 q-20 0 -26.5 6t-7.5 17q-2 27 -3.5 59t-3 66t-2 68t0.5 65h-4q-23 -60 -50.5 -126t-55.5 -132q-5 -12 -14 -17.5t-26 -5.5h-96q-17 0 -24.5 5t-9.5 17q-5 39 -9.5 92.5t-7.5 112.5t-5.5 119.5t-2.5 113.5q0 18 8 24t24 6h97q15 0 20.5 -4.5t5.5 -13.5q0 -8 -0.5 -23.5 t-1.5 -29.5q-1 -23 -2.5 -54.5t-2 -65.5t-1 -67t-0.5 -59h4q10 26 24 60.5t28 71.5t27.5 73t23.5 65q5 14 11 18.5t23 4.5h90z" />
<glyph unicode="x" horiz-adv-x="518" d="M217 156q-22 -29 -45 -66t-40 -69q-6 -11 -14.5 -16t-25.5 -5h-126q-17 0 -17 13q0 2 0.5 4t3.5 6.5t8.5 13.5t15.5 24q11 18 27 40t34 45l36 46t33 41q5 5 8 11.5t3 11.5t-1.5 10t-6.5 18q-5 11 -12.5 28.5t-16 37.5t-17.5 42t-16 42q-8 20 -10.5 28t-2.5 13q0 15 23 15 h111q17 0 24 -3.5t10 -17.5q8 -37 18.5 -73.5t19.5 -62.5q3 -10 7 -10h1q4 0 9 7q21 30 44 68t39 67q9 17 17.5 21t28.5 4h115q19 0 19 -12q0 -5 -6 -14.5t-21 -29.5q-14 -19 -30.5 -41.5t-34.5 -45.5t-36 -45.5t-35 -42.5q-11 -14 -11 -22q0 -9 17 -40q8 -15 17 -32.5 t17.5 -35t16 -33.5t13.5 -28q11 -23 15 -34t4 -15q0 -19 -23 -19h-100q-17 0 -24 5.5t-12 19.5q-11 30 -24 64.5t-27 63.5q-4 10 -9 10h-2q-4 0 -9 -7z" />
<glyph unicode="y" horiz-adv-x="488" d="M492 460q-55 -137 -133 -296t-196 -345q-14 -23 -31 -23q-6 0 -13.5 2.5t-16.5 6.5l-53 21q-13 5 -17 10.5t-4 11.5t2.5 11t6.5 10l21 31.5t21.5 33t20 31.5t16.5 27q-40 13 -52 74q-6 34 -12.5 84.5t-12 106t-9.5 109.5t-7 95q-1 29 36 29h84q17 0 23.5 -4.5t6.5 -19.5 q2 -89 6 -174t11 -160h5q20 40 39.5 82.5t38 85.5t35 84t29.5 79q5 16 14 21.5t24 5.5h96q34 0 21 -30z" />
<glyph unicode="z" horiz-adv-x="441" d="M50 363q-11 0 -15 3t-4 11q0 5 6 40l8 44q4 19 11 24t21 5h340q12 0 16 -4t4 -13q0 -5 -1 -14t-3 -17q-4 -22 -11 -36t-25 -35l-218 -244h166q13 0 19 -3t6 -14q0 -3 -1.5 -12t-6.5 -33l-8 -42q-2 -14 -9 -18.5t-21 -4.5h-340q-27 0 -27 18q0 4 1 11t5 23q5 23 12 37 t24 34l212 240h-161z" />
<glyph unicode="{" horiz-adv-x="400" d="M192 294q36 -12 45.5 -42t1.5 -72l-17 -88q-4 -17 -4 -28q0 -13 22 -13h49q19 0 19 -15q0 -4 -1 -10.5t-3 -18.5l-12 -63q-4 -17 -11 -23t-27 -6h-87q-56 0 -84.5 20t-28.5 68q0 14 2 29t4 28l23 117q5 23 -6.5 34t-40.5 16q-19 3 -19 18q0 9 4 26l13 65q3 17 9.5 22 t19.5 7q29 4 45.5 15.5t20.5 34.5l23 117q16 81 55 113t108 32h92q23 0 23 -16q0 -8 -4 -27l-13 -66q-5 -27 -31 -27h-47q-13 0 -20.5 -5t-10.5 -22l-20 -102q-8 -42 -30 -73t-61 -41z" />
<glyph unicode="|" horiz-adv-x="280" d="M124 649q4 21 14 29t37 8h71q15 0 24.5 -5.5t9.5 -17.5q0 -5 -2 -15.5t-4 -23.5l-118 -610q-4 -21 -14 -29t-37 -8h-71q-15 0 -24.5 5.5t-9.5 17.5q0 10 6 39z" />
<glyph unicode="}" horiz-adv-x="400" d="M193 298q-36 12 -45.5 42t-1.5 72l17 88q4 17 4 28q0 13 -22 13h-49q-19 0 -19 15q0 4 1 10.5t3 18.5l12 63q4 17 11 23t27 6h87q56 0 84.5 -20t28.5 -68q0 -14 -2 -29t-4 -28l-23 -117q-5 -23 6.5 -34t40.5 -16q19 -3 19 -18q0 -9 -4 -26l-13 -65q-3 -17 -9.5 -22 t-19.5 -7q-29 -4 -45.5 -15.5t-20.5 -34.5l-23 -117q-16 -81 -55 -113t-108 -32h-92q-23 0 -23 16q0 8 4 27l13 66q4 27 31 27h47q13 0 20.5 5t10.5 22l20 102q8 42 30 73t61 41z" />
<glyph unicode="~" horiz-adv-x="570" d="M513 364q12 -8 12 -18q0 -8 -5 -18.5t-13 -21.5q-32 -45 -68 -72t-83 -27q-29 0 -51 9t-41.5 19.5t-37.5 19.5t-38 9t-33.5 -11t-27.5 -31q-7 -11 -14.5 -13.5t-21.5 6.5l-44 30q-12 8 -12 18q0 8 5 18.5t13 21.5q32 45 68 72t83 27q29 0 51 -9t41.5 -19.5t37.5 -19.5 t38 -9t33.5 11t27.5 31q7 11 14.5 13.5t21.5 -6.5z" />
<glyph unicode="&#xa1;" horiz-adv-x="255" d="M-15.9854 -173.959q-19.999 0 -27.999 4.99902q-7.99902 5 -7.99902 16.999q0 4 1.5 12.999q1.5 9 9.49902 38.998l84.9951 351.979q6 24.998 15.499 30.998t32.498 6h60.9961q26.998 0 26.998 -21.999q0 -11.999 -2.99902 -29.998l-53.9971 -368.978 q-4 -25.999 -13.499 -33.998t-35.498 -7.99902h-89.9941zM164.004 498.999q31.998 0 51.4961 -15.499q19.499 -15.499 19.499 -47.4971q0 -45.9971 -25.998 -74.4951q-25.999 -28.498 -76.9951 -28.498h-3q-31.998 0 -51.4971 15.499t-19.499 47.4971 q0 45.9971 25.998 74.4951q25.999 28.498 76.9961 28.498h3z" />
<glyph unicode="&#xa2;" d="M253 -9h-7q-59 0 -95.5 13t-54.5 36q-14 17 -20 39.5t-6 49.5q0 18 2.5 41t7.5 52l14 76q11 60 31 98t55 62q26 18 65.5 29.5t89.5 11.5h17l13 67q2 8 4.5 11t10.5 3h29q15 0 12 -14l-15 -74q24 -5 46.5 -12t39.5 -15q9 -5 12 -9.5t3 -9.5q0 -7 -3 -14.5t-8 -19.5 l-21 -47q-9 -19 -20 -19q-5 0 -9 1.5t-9 3.5q-14 6 -27.5 11t-27.5 8l-49 -253q17 2 34 5.5t30 8.5q6 2 9.5 2.5t6.5 0.5q14 0 15 -17l5 -50q1 -8 1.5 -15.5t0.5 -14.5q0 -9 -6 -14t-21 -10q-22 -7 -46 -12t-53 -7l-13 -70q-3 -14 -17 -14h-29q-13 0 -10 14zM232 167 q0 -22 10 -34t35 -16l50 254q-25 -4 -43 -19q-14 -12 -22.5 -31t-14.5 -53l-8 -45q-3 -17 -5 -31t-2 -25z" />
<glyph unicode="&#xa3;" d="M294 247q-8 -40 -27.5 -71.5t-42.5 -47.5h243q17 0 22.5 -7.5t2.5 -24.5l-13 -66q-4 -18 -10.5 -24t-26.5 -6h-422q-16 0 -21.5 5.5t-2.5 19.5l12 60q2 12 7 17t13 10q47 25 69.5 56.5t30.5 76.5l4 18h-68q-14 0 -17.5 5t-0.5 17l15 62q2 8 6.5 12.5t15.5 6.5l70 10 l12 58q11 57 26 93.5t38 61.5q31 35 74.5 51t105.5 16h2q42 0 81.5 -7t71.5 -19q18 -7 19.5 -16.5t-3.5 -24.5l-24 -66q-5 -14 -13.5 -16.5t-28.5 4.5t-44 13t-46 6q-45 0 -66 -25q-9 -11 -15.5 -27.5t-11.5 -44.5l-10 -51h141q16 0 20.5 -6t1.5 -23l-13 -68 q-3 -15 -8.5 -18.5t-19.5 -3.5h-146z" />
<glyph unicode="&#xa4;" d="M272 227q20 0 35 7t25 19t15 27t5 30q0 26 -14.5 40.5t-40.5 15.5q-20 0 -35 -7t-25 -19t-15 -27t-5 -30q0 -26 14.5 -41t40.5 -15zM246 98q-21 0 -40 4t-35 11l-66 -54q-14 -11 -22 -11t-16 11l-49 63q-9 12 -8.5 21t14.5 20l64 52q-2 9 -3 19t-1 20q0 36 9.5 69.5 t33.5 64.5l-44 50q-8 10 -6 19t16 22l67 58q11 10 19.5 10.5t17.5 -10.5l47 -55q36 13 79 13q21 0 40 -4t35 -11l66 54q14 11 22 11t16 -11l49 -63q9 -12 8.5 -21t-14.5 -20l-64 -52q2 -9 3 -19t1 -20q0 -36 -9.5 -69.5t-33.5 -64.5l44 -50q8 -10 6 -19t-16 -22l-67 -58 q-11 -10 -19.5 -10.5t-17.5 10.5l-47 55q-36 -13 -79 -13z" />
<glyph unicode="&#xa5;" d="M179 0q-19 0 -24.5 6.5t-1.5 24.5l10 54h-122q-14 0 -17 5.5t0 20.5l9 48q3 16 8 21t19 5h123q-2 10 -5 20.5t-5 19.5h-105q-14 0 -17 5.5t0 20.5l9 48q3 16 8 21t19 5h58q-17 70 -30.5 145t-18.5 144q-3 33 24 33h101q22 0 29.5 -2.5t9.5 -21.5q2 -32 5.5 -69.5 t7.5 -75.5t9 -74t10 -65h5q16 29 35 65t38 74t36.5 75.5t32.5 69.5q7 19 16 21.5t31 2.5h98q26 0 12 -33q-32 -69 -74 -144.5t-87 -144.5h54q14 0 17 -5.5t0 -20.5l-9 -48q-3 -16 -8 -21t-19 -5h-102l-26 -40h120q14 0 17 -5.5t0 -20.5l-9 -48q-3 -16 -8 -21t-19 -5h-119 l-10 -54q-4 -18 -11.5 -24.5t-26.5 -6.5h-97z" />
<glyph unicode="&#xa6;" horiz-adv-x="280" d="M157 20q-5 -29 -19.5 -36t-41.5 -7h-56q-22 0 -31 6t-9 20q0 9 6 39l39 197q5 29 15.5 36t30.5 7h81q17 0 23.5 -4.5t6.5 -16.5q0 -8 -1.5 -16.5t-3.5 -20.5zM123 643q5 29 19.5 36t41.5 7h56q22 0 31 -6t9 -20q0 -9 -6 -39l-39 -197q-5 -29 -15.5 -36t-30.5 -7h-81 q-17 0 -23.5 4.5t-6.5 16.5q0 8 1.5 16.5t3.5 20.5z" />
<glyph unicode="&#xa7;" horiz-adv-x="494" d="M202 366q-7 -5 -13 -13t-6 -19q0 -10 9 -18t36 -14l48 -11q7 6 12 16t5 21q0 10 -11 16.5t-39 12.5zM398 516q-19 5 -42 9.5t-44 4.5h-4q-36 0 -47.5 -7t-11.5 -18q0 -8 12.5 -12.5t46.5 -12.5l36 -8q55 -12 80.5 -31t24.5 -53q0 -39 -22 -70t-60 -53q24 -11 34.5 -34 t10.5 -50q0 -97 -61.5 -143.5t-170.5 -46.5h-12q-18 0 -38 2.5t-40 6.5t-38.5 9.5t-33.5 11.5q-20 8 -20 19q0 7 2.5 14.5t8.5 21.5l21 48q10 24 21 24q8 0 18 -4q29 -12 59.5 -18.5t55.5 -6.5h5q32 0 45 6.5t13 20.5q0 11 -11.5 16t-39.5 11l-37 8q-69 15 -92.5 39.5 t-23.5 58.5q0 37 22.5 65t58.5 46q-20 12 -30 35t-11 50q0 9 0.5 19t4.5 27q9 38 32 64t54.5 41.5t68.5 22.5t73 7h7q38 0 73.5 -6t61.5 -16q12 -5 12 -14t-11 -35l-25 -60q-4 -9 -7 -11.5t-8 -2.5q-4 0 -8.5 1.5t-12.5 3.5z" />
<glyph unicode="&#xa8;" horiz-adv-x="391" d="M136 567q-25 0 -39 12t-14 34q0 11 3 23l1 4q8 31 24.5 48t51.5 17h7q25 0 39 -12t14 -34q0 -11 -3 -23l-1 -4q-8 -31 -24.5 -48t-51.5 -17h-7zM322 567q-25 0 -39 12t-14 34q0 11 3 23l1 4q8 31 24.5 48t51.5 17h7q25 0 39 -12t14 -34q0 -11 -3 -23l-1 -4 q-8 -31 -24.5 -48t-51.5 -17h-7z" />
<glyph unicode="&#xa9;" horiz-adv-x="844" d="M675 415q0 42 -13 76t-39.5 59t-66.5 38.5t-94 13.5q-69 0 -123.5 -25.5t-92 -69t-57.5 -102t-20 -125.5q0 -42 13 -76t39.5 -59t66.5 -38.5t94 -13.5q69 0 123.5 25.5t92 69t57.5 102t20 125.5zM364 -15q-80 0 -140 21t-100.5 59.5t-61 92t-20.5 119.5q0 90 31.5 168.5 t89 137.5t138.5 93t179 34q79 0 139.5 -21t101 -59.5t61 -92t20.5 -119.5q0 -90 -31.5 -168.5t-89 -137.5t-138.5 -93t-179 -34zM507 210q2 -12 -4.5 -18.5t-23.5 -12.5q-22 -8 -47 -12.5t-48 -4.5q-69 0 -98.5 25.5t-29.5 76.5q0 11 1 23t5 32l12 65q16 83 56.5 117 t113.5 34q28 0 56.5 -6.5t47.5 -14.5q11 -5 12.5 -11t-3.5 -20l-13 -38q-4 -11 -9 -13.5t-18 2.5q-14 5 -32 9.5t-35 4.5q-29 0 -41.5 -13t-19.5 -47l-15 -77q-2 -8 -3 -16.5t-1 -13.5q0 -16 10 -24t35 -8q23 0 64 12q13 4 17 0.5t6 -12.5z" />
<glyph unicode="&#xaa;" horiz-adv-x="343" d="M216 314h-2q-10 -16 -32 -25t-56 -9h-10q-23 0 -39 6.5t-26 17t-15 24t-5 26.5q0 11 1 25.5t5 27.5q12 42 46.5 60t94.5 18h6q11 0 25 -0.5t24 -2.5q3 13 3 20q0 12 -10 19t-36 7h-3q-14 0 -32.5 -3t-38.5 -8q-6 -2 -12 -2t-8 14l-2 19q-1 7 -2 15.5t-1 12.5q0 12 11 15 q23 8 57.5 13t64.5 5h5q28 0 46.5 -4t32.5 -12q33 -19 33 -59q0 -26 -4 -47t-7 -38l-29 -143q-4 -19 -22 -19h-45q-16 0 -17 12zM220 415q-7 1 -18 1.5t-21 0.5h-5q-22 0 -31 -4.5t-14 -17.5q-3 -8 -3 -19q0 -22 30 -22h6q24 0 35 10q13 10 17 32z" />
<glyph unicode="&#xab;" horiz-adv-x="741" d="M196 219l96 -104q13 -14 13 -25q0 -7 -3.5 -13t-14.5 -15l-47 -37q-10 -8 -15.5 -11.5t-11.5 -3.5q-10 0 -22 12l-164 157q-11 11 -14.5 18.5t-3.5 17.5t3 24q2 9 4.5 15.5t6.5 12t10 10.5t15 12l224 156q15 11 24 11q7 0 12 -4t10 -11l36 -45q17 -21 17 -32 q0 -8 -3.5 -13.5t-14.5 -13.5zM529 219l96 -104q13 -14 13 -25q0 -7 -3.5 -13t-14.5 -15l-47 -37q-10 -8 -15.5 -11.5t-11.5 -3.5q-10 0 -22 12l-164 157q-11 11 -14.5 18.5t-3.5 17.5t3 24q2 9 4.5 15.5t6.5 12t10 10.5t15 12l224 156q15 11 24 11q7 0 12 -4t10 -11l36 -45 q17 -21 17 -32q0 -8 -3.5 -13.5t-14.5 -13.5z" />
<glyph unicode="&#xac;" d="M364 32q-20 0 -27 7.5t-3 25.5l24 124h-299q-20 0 -25 9t-1 27l12 62q5 24 12.5 32t27.5 8h398q20 0 27 -9.5t3 -30.5l-43 -222q-4 -18 -11.5 -25.5t-27.5 -7.5h-67v0z" />
<glyph unicode="&#xad;" horiz-adv-x="364" d="M56 188q-25 0 -32.5 7t-7.5 25v75q0 18 8.5 25t31.5 7h220q23 0 31.5 -7t8.5 -25v-75q0 -18 -7.5 -25t-32.5 -7h-220z" />
<glyph unicode="&#xae;" horiz-adv-x="844" d="M366 189q-2 -12 -8 -16.5t-23 -4.5h-48q-18 0 -23 4.5t-3 16.5l59 305q3 16 9 24t25 10q17 2 44.5 3t50.5 1q133 0 133 -97q0 -41 -24 -76.5t-70 -54.5l51 -109q7 -14 3 -20.5t-24 -6.5h-63q-14 0 -19 3.5t-10 15.5l-39 104h-2zM438 448h-10t-10 -1l-15 -78h17 q13 0 21.5 1.5t16.5 8.5t12 19t4 22q0 14 -8 21t-28 7zM675 415q0 42 -13 76t-39.5 59t-66.5 38.5t-94 13.5q-69 0 -123.5 -25.5t-92 -69t-57.5 -102t-20 -125.5q0 -42 13 -76t39.5 -59t66.5 -38.5t94 -13.5q69 0 123.5 25.5t92 69t57.5 102t20 125.5zM364 -15 q-80 0 -140 21t-100.5 59.5t-61 92t-20.5 119.5q0 90 31.5 168.5t89 137.5t138.5 93t179 34q79 0 139.5 -21t101 -59.5t61 -92t20.5 -119.5q0 -90 -31.5 -168.5t-89 -137.5t-138.5 -93t-179 -34z" />
<glyph unicode="&#xaf;" horiz-adv-x="392" d="M368 681q12 0 15.5 -5t1.5 -19l-9 -49q-3 -16 -8 -20.5t-19 -4.5h-229q-12 0 -15.5 5t-1.5 19l9 49q3 16 8 20.5t19 4.5h229z" />
<glyph unicode="&#xb0;" horiz-adv-x="364" d="M71 572q0 35 12.5 67.5t36 57t57 39.5t74.5 15q56 0 90.5 -34.5t34.5 -87.5q0 -41 -14 -73.5t-38 -55.5t-57 -35.5t-70 -12.5q-55 0 -90 34t-36 86zM213 553q22 0 38 16.5t16 42.5q0 16 -9.5 26.5t-26.5 10.5q-22 0 -38 -16.5t-16 -42.5q0 -16 9.5 -26.5t26.5 -10.5z" />
<glyph unicode="&#xb1;" d="M333 214q-4 -20 -11 -26.5t-32 -6.5h-70q-23 0 -29 7.5t-1 30.5l23 119h-119q-19 0 -23.5 8.5t-0.5 25.5l11 58q5 23 11.5 30.5t26.5 7.5h119l24 124q4 20 11 26.5t32 6.5h70q23 0 29 -7.5t1 -30.5l-23 -119h119q19 0 23.5 -8.5t0.5 -25.5l-11 -58q-5 -23 -11.5 -30.5 t-26.5 -7.5h-119zM18 0q-20 0 -25 9t-1 27l12 62q5 24 12.5 32t27.5 8h403q20 0 25 -9t1 -27l-12 -62q-5 -24 -12.5 -32t-27.5 -8h-403z" />
<glyph unicode="&#xb2;" horiz-adv-x="448" d="M372 521q16 0 19.5 -5t-0.5 -24l-10 -50q-4 -17 -8.5 -22.5t-20.5 -5.5h-234q-20 0 -25 6.5t-1 27.5l6 34q5 29 13.5 51t22 39t33.5 31t47 26l33 15q34 15 45.5 24t11.5 23q0 11 -7.5 16.5t-26.5 5.5t-41 -4t-45 -11q-20 -6 -24 14l-12 64q-2 12 2 17.5t15 9.5 q29 9 65 14.5t68 5.5h4q63 0 98 -27.5t35 -82.5q0 -25 -4 -44.5t-15.5 -36t-32 -30.5t-52.5 -29l-35 -16q-33 -15 -43.5 -21.5t-13.5 -14.5h133z" />
<glyph unicode="&#xb3;" horiz-adv-x="448" d="M106 523q3 10 8.5 15.5t21.5 0.5q18 -5 42.5 -10t46.5 -5q26 0 38.5 9.5t12.5 26.5q0 11 -8.5 15t-29.5 4h-21q-14 0 -17 4t-1 17l8 39q2 12 6.5 16.5t18.5 4.5h17q27 0 39 8.5t12 22.5q0 23 -35 23q-18 0 -40.5 -2.5t-40.5 -5.5q-12 -2 -16.5 2.5t-5.5 16.5l-3 49 q-1 15 5 21.5t20 11.5q23 7 53 11.5t61 4.5h2q66 0 100.5 -23t34.5 -71q0 -32 -15 -61.5t-50 -44.5v-3q17 -8 26.5 -22t9.5 -40q0 -33 -13 -59.5t-36.5 -45t-55.5 -28.5t-70 -10h-2q-32 0 -66 5.5t-60 13.5q-14 5 -17 12t2 22z" />
<glyph unicode="&#xb4;" horiz-adv-x="414" d="M331 763q5 4 10.5 6.5t10.5 2.5q10 0 17 -13l36 -62q5 -8 5 -15q0 -8 -5 -13t-18 -13l-175 -105q-11 -7 -19 -7q-6 0 -9.5 3t-8.5 10l-29 44q-6 9 -6 14q0 8 15 19z" />
<glyph unicode="&#xb5;" horiz-adv-x="557" d="M336 461q3 17 10.5 23t28.5 6h91q20 0 25.5 -7.5t2.5 -21.5l-59 -304q-4 -20 0.5 -28.5t19.5 -8.5q7 0 15 1t14 3q20 4 17 -15l-9 -72q-2 -11 -7.5 -17t-16.5 -11q-15 -7 -41 -12.5t-54 -5.5h-1q-71 0 -91 38h-3q-14 -15 -37.5 -26.5t-52.5 -11.5q-32 0 -51 8l-28 -146 q-3 -16 -11.5 -22.5t-28.5 -6.5h-91q-20 0 -24.5 7.5t-2.5 21.5l118 608q4 18 11 23.5t27 5.5h94q20 0 24.5 -7.5t1.5 -21.5l-54 -282q-3 -15 -3 -27q0 -32 44 -32h4q23 0 41 13q8 7 13 17.5t10 33.5z" />
<glyph unicode="&#xb6;" horiz-adv-x="664" d="M343 -108q-22 0 -22 16q0 4 1 12t4 23l113 582h-63l-117 -604q-4 -19 -13 -24t-26 -5h-95q-22 0 -22 16q0 4 1 12t4 23l65 332q-66 12 -99.5 53.5t-32.5 106.5q0 38 16 76.5t44 67.5q35 36 92 56.5t144 20.5h343q19 0 19 -12q0 -6 -4 -25l-13 -71q-4 -23 -28 -23h-60 l-117 -604q-4 -19 -13 -24t-26 -5h-95z" />
<glyph unicode="&#xb7;" horiz-adv-x="241" d="M200 330q0 -11 -1.5 -25t-5.5 -28q-11 -44 -33.5 -59t-59.5 -15h-9q-36 0 -52 13t-16 37q0 11 2 25t4 25q11 44 34 59t60 15h9q68 0 68 -47z" />
<glyph unicode="&#xb8;" horiz-adv-x="444" d="M194 -53q15 3 28 3q31 0 52.5 -16.5t22.5 -54.5q0 -53 -38 -87.5t-100 -34.5q-30 0 -57.5 4.5t-41.5 10.5q-16 6 -10 26l11 35q4 11 9.5 13t15.5 -1q12 -4 30 -7t34 -3q17 0 27 6t10 21q0 16 -26 16h-3q-15 0 -25 -2.5t-18 -2.5q-5 0 -7 2t-4 5l-9 14q-4 7 -4 13 q0 5 7 21l31 64q6 13 18 13h54q8 0 12 -3.5t-1 -13.5z" />
<glyph unicode="&#xb9;" horiz-adv-x="448" d="M118 414q-26 0 -20 28l11 58q3 17 8 22.5t21 5.5h61l28 142h-4l-54 -24q-15 -7 -22 -5t-12 14l-22 50q-6 14 -5.5 21t13.5 14l123 60q16 8 29 12t33 4h48q16 0 21 -5.5t2 -22.5l-51 -260h55q16 0 20 -5.5t1 -22.5l-11 -58q-3 -17 -8.5 -22.5t-22.5 -5.5h-242z" />
<glyph unicode="&#xba;" horiz-adv-x="356" d="M236 419q7 32 9.5 49t2.5 25q0 28 -31 28h-4q-19 0 -31 -11t-19 -43q-4 -18 -6 -29.5t-3.5 -19t-2 -13t-0.5 -10.5q0 -14 9 -20.5t24 -6.5h4q20 0 30.5 10t17.5 41zM341 426q-15 -77 -53 -111.5t-114 -34.5h-6q-122 0 -122 95q0 12 2 29.5t10 58.5q15 78 54 112t114 34h6 q61 0 91 -24.5t30 -69.5q0 -6 -0.5 -13t-1.5 -17t-3.5 -24t-6.5 -35z" />
<glyph unicode="&#xbb;" horiz-adv-x="741" d="M180.012 247.014l-95.9941 103.993q-12.999 13.999 -12.999 24.999q0 6.99902 3.5 12.999q3.5 5.99902 14.499 14.999l46.9971 36.998q9.99902 7.99902 15.499 11.499t11.499 3.5q10 0 21.999 -12l163.99 -156.99q10.999 -10.999 14.499 -18.499 q3.5 -7.49902 3.5 -17.499q0 -9.99902 -3 -23.998q-2 -8.99902 -4.5 -15.499t-6.5 -11.999q-3.99902 -5.5 -9.99902 -10.5q-6 -4.99902 -14.999 -11.999l-223.986 -155.99q-14.999 -11 -23.999 -11q-6.99902 0 -11.999 4q-4.99902 4 -9.99902 11l-35.998 44.9971 q-16.999 20.998 -16.999 31.998q0 7.99902 3.5 13.499t14.499 13.499zM514.012 247.014l-95.9941 103.993q-12.999 13.999 -12.999 24.999q0 6.99902 3.5 12.999q3.5 5.99902 14.499 14.999l46.9971 36.998q9.99902 7.99902 15.499 11.499t11.499 3.5q10 0 21.999 -12 l163.99 -156.99q10.999 -10.999 14.499 -18.499q3.5 -7.49902 3.5 -17.499q0 -9.99902 -3 -23.998q-2 -8.99902 -4.5 -15.499t-6.5 -11.999q-3.99902 -5.5 -9.99902 -10.5q-6 -4.99902 -14.999 -11.999l-223.986 -155.99q-14.999 -11 -23.999 -11q-6.99902 0 -11.999 4 q-4.99902 4 -9.99902 11l-35.998 44.9971q-16.999 20.998 -16.999 31.998q0 7.99902 3.5 13.499t14.499 13.499z" />
<glyph unicode="&#xbc;" horiz-adv-x="1046" d="M894 86l-12 -62q-3 -14 -9 -19t-22 -5h-72q-26 0 -22 23l13 63h-151q-17 0 -21 5t-1 21l5 25q3 14 8.5 23.5t19.5 26.5l157 188q13 16 23 21.5t26 5.5h88q20 0 24 -7t1 -24l-36 -187h27q11 0 14.5 -4t1.5 -18l-10 -52q-3 -17 -8.5 -20.5t-16.5 -3.5h-27zM729 184h60 l18 96h-2zM98 244q-26 0 -20 28l11 58q3 17 8 22.5t21 5.5h61l28 142h-4l-54 -24q-15 -7 -22 -5t-12 14l-22 50q-6 14 -5.5 21t13.5 14l123 60q16 8 29 12t33 4h48q16 0 21 -5.5t2 -22.5l-51 -260h55q16 0 20 -5.5t1 -22.5l-11 -58q-3 -17 -8.5 -22.5t-22.5 -5.5h-242z M717 638q8 10 15.5 14t23.5 4h86q13 0 17.5 -7.5t-3.5 -18.5l-476 -621q-8 -10 -15.5 -14t-23.5 -4h-86q-13 0 -17.5 7.5t3.5 18.5z" />
<glyph unicode="&#xbd;" horiz-adv-x="1046" d="M709 638q8 10 15.5 14t23.5 4h86q13 0 17.5 -7.5t-3.5 -18.5l-476 -621q-8 -10 -15.5 -14t-23.5 -4h-86q-13 0 -17.5 7.5t3.5 18.5zM97 245q-26 0 -20 28l11 58q3 17 8 22.5t21 5.5h61l28 142h-4l-54 -24q-15 -7 -22 -5t-12 14l-22 50q-6 14 -5.5 21t13.5 14l123 60 q16 8 29 12t33 4h48q16 0 21 -5.5t2 -22.5l-51 -260h55q16 0 20 -5.5t1 -22.5l-11 -58q-3 -17 -8.5 -22.5t-22.5 -5.5h-242zM921 110q16 0 19.5 -5t-0.5 -24l-10 -50q-4 -17 -8.5 -22.5t-20.5 -5.5h-234q-20 0 -25 6.5t-1 27.5l6 34q5 29 13.5 51t22 39t33.5 31t47 26l33 15 q34 15 45.5 24t11.5 23q0 11 -7.5 16.5t-26.5 5.5t-41 -4t-45 -11q-20 -6 -24 14l-12 64q-2 12 2 17.5t15 9.5q29 9 65 14.5t68 5.5h4q63 0 98 -27.5t35 -82.5q0 -25 -4 -44.5t-15.5 -36t-32 -30.5t-52.5 -29l-35 -16q-33 -15 -43.5 -21.5t-13.5 -14.5h133z" />
<glyph unicode="&#xbe;" horiz-adv-x="1046" d="M879 86l-12 -62q-3 -14 -9 -19t-22 -5h-72q-26 0 -22 23l13 63h-151q-17 0 -21 5t-1 21l5 25q3 14 8.5 23.5t19.5 26.5l157 188q13 16 23 21.5t26 5.5h88q20 0 24 -7t1 -24l-36 -187h27q11 0 14.5 -4t1.5 -18l-10 -52q-3 -17 -8.5 -20.5t-16.5 -3.5h-27zM714 184h60 l18 96h-2zM706 638q8 10 15.5 14t23.5 4h86q13 0 17.5 -7.5t-3.5 -18.5l-476 -621q-8 -10 -15.5 -14t-23.5 -4h-86q-13 0 -17.5 7.5t3.5 18.5zM92 352q3 10 8.5 15.5t21.5 0.5q18 -5 42.5 -10t46.5 -5q26 0 38.5 9.5t12.5 26.5q0 11 -8.5 15t-29.5 4h-21q-14 0 -17 4t-1 17 l8 39q2 12 6.5 16.5t18.5 4.5h17q27 0 39 8.5t12 22.5q0 23 -35 23q-18 0 -40.5 -2.5t-40.5 -5.5q-12 -2 -16.5 2.5t-5.5 16.5l-3 49q-1 15 5 21.5t20 11.5q23 7 53 11.5t61 4.5h2q66 0 100.5 -23t34.5 -71q0 -32 -15 -61.5t-50 -44.5v-3q17 -8 26.5 -22t9.5 -40 q0 -33 -13 -59.5t-36.5 -45t-55.5 -28.5t-70 -10h-2q-32 0 -66 5.5t-60 13.5q-14 5 -17 12t2 22z" />
<glyph unicode="&#xbf;" horiz-adv-x="463" d="M220.013 271.014q3 16.999 25.999 16.999h81.9941q15.999 0 15.999 -12q0 -53.9961 -22.498 -94.4941q-22.499 -40.4971 -85.4951 -73.4951l-33.998 -17.999q-18.999 -9.99902 -32.998 -18.999q-13.999 -8.99902 -22.998 -18.499q-9 -9.49902 -13.499 -20.998 q-4.5 -11.5 -4.5 -27.499q0 -21.998 14.999 -30.998q14.999 -8.99902 43.9971 -8.99902h3q22.999 0 56.4961 6.49902q33.498 6.5 65.4961 16.499q26.999 9 30.998 -10.999l15.999 -73.9951q3 -13.999 0.5 -21.499q-2.49902 -7.49902 -21.498 -14.499 q-40.998 -14.999 -92.9941 -23.499q-51.9971 -8.49902 -98.9941 -8.49902h-4q-91.9941 0 -134.992 36.498q-42.9971 36.4971 -42.9971 104.493q0 38.998 7 66.9961q6.99902 27.998 22.998 49.4971t40.498 39.4971q24.498 17.999 59.4961 35.998l33.998 17.999 q25.998 13.999 42.4971 23.999q16.499 9.99902 26.499 19.498q9.99902 9.5 14.999 19.499q4.99902 9.99902 7.99902 22.999zM323.007 498.999q31.998 0 51.4961 -15.499q19.499 -15.499 19.499 -47.4971q0 -45.9971 -25.998 -74.4951t-76.9951 -28.498h-3 q-31.998 0 -51.4971 15.499t-19.499 47.4971q0 45.9971 25.999 74.4951q25.998 28.498 76.9951 28.498h3z" />
<glyph unicode="&#xc0;" horiz-adv-x="605" d="M349 248q-2 48 -6 109.5t-8 114.5h-11q-26 -55 -53 -113t-51 -111h129zM353 116h-187l-39 -83q-9 -19 -19 -26t-40 -7h-89q-29 0 -29 19q0 11 3.5 19t9.5 21q34 71 70.5 144t72.5 143t70.5 135t64.5 121q14 25 31.5 35t47.5 10h86q30 0 44 -10t17 -35q17 -125 32 -253.5 t30 -271.5q2 -17 3 -29.5t1 -23.5q0 -12 -8.5 -18t-31.5 -6h-88q-23 0 -33 7t-12 26zM480 784q9 -6 9 -15t-12 -25l-29 -39q-13 -17 -23 -17q-8 0 -20 6l-177 99q-7 4 -11 8.5t-4 12.5q0 7 8 19l46 69q9 14 21 14q10 0 23 -10z" />
<glyph unicode="&#xc1;" horiz-adv-x="605" d="M349 248q-2 48 -6 109.5t-8 114.5h-11q-26 -55 -53 -113t-51 -111h129zM353 116h-187l-39 -83q-9 -19 -19 -26t-40 -7h-89q-29 0 -29 19q0 11 3.5 19t9.5 21q34 71 70.5 144t72.5 143t70.5 135t64.5 121q14 25 31.5 35t47.5 10h86q30 0 44 -10t17 -35q17 -125 32 -253.5 t30 -271.5q2 -17 3 -29.5t1 -23.5q0 -12 -8.5 -18t-31.5 -6h-88q-23 0 -33 7t-12 26zM463 896q10 5 17 5q12 0 19 -16l26 -67q3 -8 3 -13q0 -7 -6 -12.5t-22 -11.5l-190 -74q-10 -4 -17 -4q-12 0 -19 16l-21 48q-3 7 -3 13q0 9 18 18z" />
<glyph unicode="&#xc2;" horiz-adv-x="605" d="M349 248q-2 48 -6 109.5t-8 114.5h-11q-26 -55 -53 -113t-51 -111h129zM353 116h-187l-39 -83q-9 -19 -19 -26t-40 -7h-89q-29 0 -29 19q0 11 3.5 19t9.5 21q34 71 70.5 144t72.5 143t70.5 135t64.5 121q14 25 31.5 35t47.5 10h86q30 0 44 -10t17 -35q17 -125 32 -253.5 t30 -271.5q2 -17 3 -29.5t1 -23.5q0 -12 -8.5 -18t-31.5 -6h-88q-23 0 -33 7t-12 26zM292 699q-8 -7 -11.5 -9t-8.5 -2q-6 0 -12 6l-38 37q-12 12 1 25l114 107q8 8 15 10.5t15 2.5h61q8 0 13.5 -2.5t10.5 -10.5l70 -105q6 -9 6 -15q0 -4 -2 -7t-9 -8l-51 -33q-4 -2 -8 -4.5 t-8 -2.5q-8 0 -16 11l-54 75h-5z" />
<glyph unicode="&#xc3;" horiz-adv-x="605" d="M349 248q-2 48 -6 109.5t-8 114.5h-11q-26 -55 -53 -113t-51 -111h129zM353 116h-187l-39 -83q-9 -19 -19 -26t-40 -7h-89q-29 0 -29 19q0 11 3.5 19t9.5 21q34 71 70.5 144t72.5 143t70.5 135t64.5 121q14 25 31.5 35t47.5 10h86q30 0 44 -10t17 -35q17 -125 32 -253.5 t30 -271.5q2 -17 3 -29.5t1 -23.5q0 -12 -8.5 -18t-31.5 -6h-88q-23 0 -33 7t-12 26zM435 800q14 0 25 8.5t25 28.5q7 9 12.5 9t13.5 -5l37 -24q15 -9 5 -26q-25 -42 -57.5 -68.5t-71.5 -26.5q-24 0 -38.5 7t-26 16t-22 16t-25.5 7q-14 0 -25 -8.5t-25 -28.5q-7 -9 -12.5 -9 t-13.5 5l-37 24q-15 9 -5 26q25 42 57.5 68.5t71.5 26.5q24 0 39 -7t26.5 -16t22 -16t24.5 -7z" />
<glyph unicode="&#xc4;" horiz-adv-x="605" d="M349 248q-2 48 -6 109.5t-8 114.5h-11q-26 -55 -53 -113t-51 -111h129zM353 116h-187l-39 -83q-9 -19 -19 -26t-40 -7h-89q-29 0 -29 19q0 11 3.5 19t9.5 21q34 71 70.5 144t72.5 143t70.5 135t64.5 121q14 25 31.5 35t47.5 10h86q30 0 44 -10t17 -35q17 -125 32 -253.5 t30 -271.5q2 -17 3 -29.5t1 -23.5q0 -12 -8.5 -18t-31.5 -6h-88q-23 0 -33 7t-12 26zM272 724q-25 0 -39 12t-14 34q0 11 3 23l1 4q8 31 24.5 48t51.5 17h7q25 0 39 -12t14 -34q0 -11 -3 -23l-1 -4q-8 -31 -24.5 -48t-51.5 -17h-7zM458 724q-25 0 -39 12t-14 34q0 11 3 23 l1 4q8 31 24.5 48t51.5 17h7q25 0 39 -12t14 -34q0 -11 -3 -23l-1 -4q-8 -31 -24.5 -48t-51.5 -17h-7z" />
<glyph unicode="&#xc5;" horiz-adv-x="605" d="M349 248q-2 48 -6 109.5t-8 114.5h-11q-26 -55 -53 -113t-51 -111h129zM353 116h-187l-39 -83q-9 -19 -19 -26t-40 -7h-89q-29 0 -29 19q0 11 3.5 19t9.5 21q34 71 70.5 144t72.5 143t70.5 135t64.5 121q14 25 31.5 35t47.5 10h86q30 0 44 -10t17 -35q17 -125 32 -253.5 t30 -271.5q2 -17 3 -29.5t1 -23.5q0 -12 -8.5 -18t-31.5 -6h-88q-23 0 -33 7t-12 26zM378 752q14 0 24.5 9.5t10.5 26.5q0 11 -7 16.5t-17 5.5q-14 0 -24.5 -9.5t-10.5 -26.5q0 -11 7 -16.5t17 -5.5zM367 679q-38 0 -62 23t-24 61q0 26 9 48t25 38t38 25t47 9q40 0 63 -23 t23 -61q0 -26 -9 -48t-25 -38t-38 -25t-47 -9z" />
<glyph unicode="&#xc6;" horiz-adv-x="905" d="M554 264q-3 -16 -6.5 -35t-5.5 -36q-2 -14 -3 -24t-1 -18q0 -15 18 -15h208q14 0 20 -3t6 -14q0 -6 -1.5 -16.5t-4.5 -29.5l-7 -42q-4 -18 -11.5 -24.5t-28.5 -6.5h-261q-56 0 -78.5 15t-22.5 57q0 18 3 44h-184l-55 -83q-6 -9 -11.5 -15.5t-12.5 -10.5t-17 -5.5 t-25 -1.5h-88q-15 0 -20 5.5t-5 13.5t6 17.5t15 22.5q100 146 195.5 283.5t183.5 259.5q18 26 38 35.5t50 9.5h421q14 0 18.5 -2.5t4.5 -10.5q0 -4 -1.5 -13.5t-5.5 -30.5l-9 -49q-4 -18 -9.5 -24t-29.5 -6h-207q-14 0 -19.5 -4.5t-8.5 -15.5q-5 -17 -11 -45.5t-11 -55.5 h205q15 0 21 -2.5t6 -10.5t-1.5 -18.5t-6.5 -30.5l-9 -41q-3 -13 -10 -18t-23 -5h-208zM437 511q-18 -27 -39.5 -62t-43.5 -71t-43 -70t-38 -60h124l15 87l36 176h-11z" />
<glyph unicode="&#xc7;" horiz-adv-x="555" d="M243 -53q15 3 28 3q31 0 52.5 -16.5t22.5 -54.5q0 -53 -38 -87.5t-100 -34.5q-30 0 -57.5 4.5t-41.5 10.5q-16 6 -10 26l11 35q4 11 9.5 13t15.5 -1q12 -4 30 -7t34 -3q17 0 27 6t10 21q0 16 -26 16h-3q-15 0 -25 -2.5t-18 -2.5q-5 0 -7 2t-4 5l-9 14q-4 7 -4 13 q0 5 7 21l31 64q0 1 0.5 2t0.5 2q-87 12 -122 62q-12 17 -20.5 43.5t-8.5 65.5q0 12 2 31t6 47t11 66.5t18 89.5q16 75 36.5 121t57.5 77q34 29 83 43t119 14h7q48 0 93.5 -10t83.5 -30q13 -7 13 -15q0 -6 -3 -15.5t-12 -29.5l-26 -57q-7 -15 -17 -15t-20 5q-26 12 -54 19.5 t-60 7.5h-4q-61 0 -92 -34q-8 -8 -13.5 -18t-10 -23.5t-9 -32t-9.5 -45.5q-14 -68 -19.5 -107t-5.5 -64q0 -32 21 -46.5t77 -14.5h6q29 0 64 6.5t62 16.5q11 4 18 4q5 0 9 -4t6 -15l6 -44q2 -16 3.5 -26.5t1.5 -18.5q0 -17 -36 -30q-33 -12 -80.5 -20t-98.5 -9q-1 -1 -1 -3z " />
<glyph unicode="&#xc8;" horiz-adv-x="521" d="M200 264l-4 -22q-5 -23 -8.5 -49.5t-3.5 -43.5q0 -13 16 -13h210q14 0 20 -3t6 -14q0 -6 -1.5 -16.5t-4.5 -29.5l-7 -42q-4 -18 -11.5 -24.5t-28.5 -6.5h-308q-31 0 -43 11.5t-12 38.5q0 19 2 46.5t6 61.5t9.5 72t13.5 78l5 27q6 31 13.5 67t15.5 70.5t15.5 65.5t13.5 53 q4 16 9.5 27t14 17.5t22 9t33.5 2.5h322q14 0 18.5 -2.5t4.5 -10.5q0 -4 -1.5 -13.5t-5.5 -30.5l-9 -49q-4 -18 -9.5 -24t-29.5 -6h-208q-14 0 -19 -4.5t-8 -15.5q-5 -17 -11 -45.5t-11 -55.5h205q15 0 21 -2.5t6 -10.5t-1.5 -18.5t-6.5 -30.5l-9 -41q-3 -13 -10 -18t-23 -5 h-208zM457 784q9 -6 9 -15t-12 -25l-29 -39q-13 -17 -23 -17q-8 0 -20 6l-177 99q-7 4 -11 8.5t-4 12.5q0 7 8 19l46 69q9 14 21 14q10 0 23 -10z" />
<glyph unicode="&#xc9;" horiz-adv-x="521" d="M200 264l-4 -22q-5 -23 -8.5 -49.5t-3.5 -43.5q0 -13 16 -13h210q14 0 20 -3t6 -14q0 -6 -1.5 -16.5t-4.5 -29.5l-7 -42q-4 -18 -11.5 -24.5t-28.5 -6.5h-308q-31 0 -43 11.5t-12 38.5q0 19 2 46.5t6 61.5t9.5 72t13.5 78l5 27q6 31 13.5 67t15.5 70.5t15.5 65.5t13.5 53 q4 16 9.5 27t14 17.5t22 9t33.5 2.5h322q14 0 18.5 -2.5t4.5 -10.5q0 -4 -1.5 -13.5t-5.5 -30.5l-9 -49q-4 -18 -9.5 -24t-29.5 -6h-208q-14 0 -19 -4.5t-8 -15.5q-5 -17 -11 -45.5t-11 -55.5h205q15 0 21 -2.5t6 -10.5t-1.5 -18.5t-6.5 -30.5l-9 -41q-3 -13 -10 -18t-23 -5 h-208zM452 896q10 5 17 5q12 0 19 -16l26 -67q3 -8 3 -13q0 -7 -6 -12.5t-22 -11.5l-190 -74q-10 -4 -17 -4q-12 0 -19 16l-21 48q-3 7 -3 13q0 9 18 18z" />
<glyph unicode="&#xca;" horiz-adv-x="521" d="M200 264l-4 -22q-5 -23 -8.5 -49.5t-3.5 -43.5q0 -13 16 -13h210q14 0 20 -3t6 -14q0 -6 -1.5 -16.5t-4.5 -29.5l-7 -42q-4 -18 -11.5 -24.5t-28.5 -6.5h-308q-31 0 -43 11.5t-12 38.5q0 19 2 46.5t6 61.5t9.5 72t13.5 78l5 27q6 31 13.5 67t15.5 70.5t15.5 65.5t13.5 53 q4 16 9.5 27t14 17.5t22 9t33.5 2.5h322q14 0 18.5 -2.5t4.5 -10.5q0 -4 -1.5 -13.5t-5.5 -30.5l-9 -49q-4 -18 -9.5 -24t-29.5 -6h-208q-14 0 -19 -4.5t-8 -15.5q-5 -17 -11 -45.5t-11 -55.5h205q15 0 21 -2.5t6 -10.5t-1.5 -18.5t-6.5 -30.5l-9 -41q-3 -13 -10 -18t-23 -5 h-208zM275 699q-8 -7 -11.5 -9t-8.5 -2q-6 0 -12 6l-38 37q-12 12 1 25l114 107q8 8 15 10.5t15 2.5h61q8 0 13.5 -2.5t10.5 -10.5l70 -105q6 -9 6 -15q0 -4 -2 -7t-9 -8l-51 -33q-4 -2 -8 -4.5t-8 -2.5q-8 0 -16 11l-54 75h-5z" />
<glyph unicode="&#xcb;" horiz-adv-x="521" d="M200 264l-4 -22q-5 -23 -8.5 -49.5t-3.5 -43.5q0 -13 16 -13h210q14 0 20 -3t6 -14q0 -6 -1.5 -16.5t-4.5 -29.5l-7 -42q-4 -18 -11.5 -24.5t-28.5 -6.5h-308q-31 0 -43 11.5t-12 38.5q0 19 2 46.5t6 61.5t9.5 72t13.5 78l5 27q6 31 13.5 67t15.5 70.5t15.5 65.5t13.5 53 q4 16 9.5 27t14 17.5t22 9t33.5 2.5h322q14 0 18.5 -2.5t4.5 -10.5q0 -4 -1.5 -13.5t-5.5 -30.5l-9 -49q-4 -18 -9.5 -24t-29.5 -6h-208q-14 0 -19 -4.5t-8 -15.5q-5 -17 -11 -45.5t-11 -55.5h205q15 0 21 -2.5t6 -10.5t-1.5 -18.5t-6.5 -30.5l-9 -41q-3 -13 -10 -18t-23 -5 h-208zM249 724q-25 0 -39 12t-14 34q0 11 3 23l1 4q8 31 24.5 48t51.5 17h7q25 0 39 -12t14 -34q0 -11 -3 -23l-1 -4q-8 -31 -24.5 -48t-51.5 -17h-7zM435 724q-25 0 -39 12t-14 34q0 11 3 23l1 4q8 31 24.5 48t51.5 17h7q25 0 39 -12t14 -34q0 -11 -3 -23l-1 -4 q-8 -31 -24.5 -48t-51.5 -17h-7z" />
<glyph unicode="&#xcc;" horiz-adv-x="301" d="M176 26q-3 -17 -9.5 -21.5t-29.5 -4.5h-97q-19 0 -25 4t-6 12t2 18.5t4 22.5l110 564q3 17 9.5 21.5t29.5 4.5h97q19 0 25 -4t6 -12t-2.5 -17.5t-4.5 -23.5zM326 784q9 -6 9 -15t-12 -25l-29 -39q-13 -17 -23 -17q-8 0 -20 6l-177 99q-7 4 -11 8.5t-4 12.5q0 7 8 19 l46 69q9 14 21 14q10 0 23 -10z" />
<glyph unicode="&#xcd;" horiz-adv-x="301" d="M176 26q-3 -17 -9.5 -21.5t-29.5 -4.5h-97q-19 0 -25 4t-6 12t2 18.5t4 22.5l110 564q3 17 9.5 21.5t29.5 4.5h97q19 0 25 -4t6 -12t-2.5 -17.5t-4.5 -23.5zM340 896q10 5 17 5q12 0 19 -16l26 -67q3 -8 3 -13q0 -7 -6 -12.5t-22 -11.5l-190 -74q-10 -4 -17 -4 q-12 0 -19 16l-21 48q-3 7 -3 13q0 9 18 18z" />
<glyph unicode="&#xce;" horiz-adv-x="301" d="M176 26q-3 -17 -9.5 -21.5t-29.5 -4.5h-97q-19 0 -25 4t-6 12t2 18.5t4 22.5l110 564q3 17 9.5 21.5t29.5 4.5h97q19 0 25 -4t6 -12t-2.5 -17.5t-4.5 -23.5zM147 699q-8 -7 -11.5 -9t-8.5 -2q-6 0 -12 6l-38 37q-12 12 1 25l114 107q8 8 15 10.5t15 2.5h61q8 0 13.5 -2.5 t10.5 -10.5l70 -105q6 -9 6 -15q0 -4 -2 -7t-9 -8l-51 -33q-4 -2 -8 -4.5t-8 -2.5q-8 0 -16 11l-54 75h-5z" />
<glyph unicode="&#xcf;" horiz-adv-x="301" d="M176 26q-3 -17 -9.5 -21.5t-29.5 -4.5h-97q-19 0 -25 4t-6 12t2 18.5t4 22.5l110 564q3 17 9.5 21.5t29.5 4.5h97q19 0 25 -4t6 -12t-2.5 -17.5t-4.5 -23.5zM129 724q-25 0 -39 12t-14 34q0 11 3 23l1 4q8 31 24.5 48t51.5 17h7q25 0 39 -12t14 -34q0 -11 -3 -23l-1 -4 q-8 -31 -24.5 -48t-51.5 -17h-7zM315 724q-25 0 -39 12t-14 34q0 11 3 23l1 4q8 31 24.5 48t51.5 17h7q25 0 39 -12t14 -34q0 -11 -3 -23l-1 -4q-8 -31 -24.5 -48t-51.5 -17h-7z" />
<glyph unicode="&#xd0;" horiz-adv-x="659" d="M207 0q-38 0 -77.5 1t-59.5 3q-30 3 -30 28q0 5 2.5 19t9.5 47l32 170h-51q-21 0 -21 14q0 3 1 8t3 19l8 41q3 17 9.5 22.5t20.5 5.5h51l44 225q5 24 15 31t27 9q66 6 170 6h11q92 0 144 -18t78 -51q28 -36 34.5 -87.5t-5.5 -136.5q-9 -64 -21 -110.5t-27 -80t-33 -56.5 t-40 -41q-46 -38 -112 -53t-162 -15h-21zM315 510q-11 -1 -15 -4.5t-6 -12.5l-22 -115h69q21 0 21 -14q0 -3 -1 -8t-3 -19l-8 -41q-3 -17 -9.5 -22.5t-20.5 -5.5h-69l-12 -63q-9 -50 -9 -54q0 -7 3.5 -9t9.5 -3q9 -1 19.5 -1h18.5h9q32 0 54.5 7t39.5 22q12 10 21 21.5 t16.5 27.5t14 38t13.5 52q8 33 12.5 66.5t4.5 53.5q0 38 -17 59q-12 15 -32 21t-51 6h-9q-9 0 -21.5 -0.5t-20.5 -1.5z" />
<glyph unicode="&#xd1;" horiz-adv-x="643" d="M224 350h-2l-61 -316q-4 -21 -12.5 -27.5t-28.5 -6.5h-86q-17 0 -22.5 4t-5.5 14q0 7 2 16.5t4 23.5l108 556q4 20 13 26.5t27 6.5h40q23 0 34.5 -6t19.5 -22l161 -331h2l64 325q4 21 13 27.5t28 6.5h85q30 0 30 -17q0 -5 -2.5 -17.5l-5.5 -27.5l-107 -552 q-4 -20 -13.5 -26.5t-26.5 -6.5h-41q-21 0 -33 5.5t-21 22.5zM467 800q14 0 25 8.5t25 28.5q7 9 12.5 9t13.5 -5l37 -24q15 -9 5 -26q-25 -42 -57.5 -68.5t-71.5 -26.5q-24 0 -38.5 7t-26 16t-22 16t-25.5 7q-14 0 -25 -8.5t-25 -28.5q-7 -9 -12.5 -9t-13.5 5l-37 24 q-15 9 -5 26q25 42 57.5 68.5t71.5 26.5q24 0 39 -7t26.5 -16t22 -16t24.5 -7z" />
<glyph unicode="&#xd2;" horiz-adv-x="633" d="M414 305q11 59 15.5 89t4.5 50q0 34 -12 49q-19 23 -62 23h-12q-23 0 -39.5 -6t-30.5 -18q-20 -17 -33 -55.5t-24 -94.5q-11 -57 -16 -87.5t-5 -50.5q0 -33 13 -49q19 -24 62 -24h12q23 0 39.5 6t30.5 18q21 18 33.5 56t23.5 94zM579 285q-10 -51 -20 -89t-23.5 -67 t-31.5 -50.5t-42 -38.5q-36 -25 -85.5 -37t-119.5 -12h-11q-57 0 -101.5 13t-68.5 34q-26 23 -37 55t-11 79q0 21 6 70t21 126q9 48 20 85.5t26 67t35 52t47 40.5q63 43 192 43h8q57 0 101 -12t70 -35q51 -45 51 -125q0 -34 -6 -79.5t-20 -119.5zM495 784q9 -6 9 -15 t-12 -25l-29 -39q-13 -17 -23 -17q-8 0 -20 6l-177 99q-7 4 -11 8.5t-4 12.5q0 7 8 19l46 69q9 14 21 14q10 0 23 -10z" />
<glyph unicode="&#xd3;" horiz-adv-x="633" d="M414 305q11 59 15.5 89t4.5 50q0 34 -12 49q-19 23 -62 23h-12q-23 0 -39.5 -6t-30.5 -18q-20 -17 -33 -55.5t-24 -94.5q-11 -57 -16 -87.5t-5 -50.5q0 -33 13 -49q19 -24 62 -24h12q23 0 39.5 6t30.5 18q21 18 33.5 56t23.5 94zM579 285q-10 -51 -20 -89t-23.5 -67 t-31.5 -50.5t-42 -38.5q-36 -25 -85.5 -37t-119.5 -12h-11q-57 0 -101.5 13t-68.5 34q-26 23 -37 55t-11 79q0 21 6 70t21 126q9 48 20 85.5t26 67t35 52t47 40.5q63 43 192 43h8q57 0 101 -12t70 -35q51 -45 51 -125q0 -34 -6 -79.5t-20 -119.5zM483 896q10 5 17 5 q12 0 19 -16l26 -67q3 -8 3 -13q0 -7 -6 -12.5t-22 -11.5l-190 -74q-10 -4 -17 -4q-12 0 -19 16l-21 48q-3 7 -3 13q0 9 18 18z" />
<glyph unicode="&#xd4;" horiz-adv-x="633" d="M414 305q11 59 15.5 89t4.5 50q0 34 -12 49q-19 23 -62 23h-12q-23 0 -39.5 -6t-30.5 -18q-20 -17 -33 -55.5t-24 -94.5q-11 -57 -16 -87.5t-5 -50.5q0 -33 13 -49q19 -24 62 -24h12q23 0 39.5 6t30.5 18q21 18 33.5 56t23.5 94zM579 285q-10 -51 -20 -89t-23.5 -67 t-31.5 -50.5t-42 -38.5q-36 -25 -85.5 -37t-119.5 -12h-11q-57 0 -101.5 13t-68.5 34q-26 23 -37 55t-11 79q0 21 6 70t21 126q9 48 20 85.5t26 67t35 52t47 40.5q63 43 192 43h8q57 0 101 -12t70 -35q51 -45 51 -125q0 -34 -6 -79.5t-20 -119.5zM302 699q-8 -7 -11.5 -9 t-8.5 -2q-6 0 -12 6l-38 37q-12 12 1 25l114 107q8 8 15 10.5t15 2.5h61q8 0 13.5 -2.5t10.5 -10.5l70 -105q6 -9 6 -15q0 -4 -2 -7t-9 -8l-51 -33q-4 -2 -8 -4.5t-8 -2.5q-8 0 -16 11l-54 75h-5z" />
<glyph unicode="&#xd5;" horiz-adv-x="633" d="M414 305q11 59 15.5 89t4.5 50q0 34 -12 49q-19 23 -62 23h-12q-23 0 -39.5 -6t-30.5 -18q-20 -17 -33 -55.5t-24 -94.5q-11 -57 -16 -87.5t-5 -50.5q0 -33 13 -49q19 -24 62 -24h12q23 0 39.5 6t30.5 18q21 18 33.5 56t23.5 94zM579 285q-10 -51 -20 -89t-23.5 -67 t-31.5 -50.5t-42 -38.5q-36 -25 -85.5 -37t-119.5 -12h-11q-57 0 -101.5 13t-68.5 34q-26 23 -37 55t-11 79q0 21 6 70t21 126q9 48 20 85.5t26 67t35 52t47 40.5q63 43 192 43h8q57 0 101 -12t70 -35q51 -45 51 -125q0 -34 -6 -79.5t-20 -119.5zM459 800q14 0 25 8.5 t25 28.5q7 9 12.5 9t13.5 -5l37 -24q15 -9 5 -26q-25 -42 -57.5 -68.5t-71.5 -26.5q-24 0 -38.5 7t-26 16t-22 16t-25.5 7q-14 0 -25 -8.5t-25 -28.5q-7 -9 -12.5 -9t-13.5 5l-37 24q-15 9 -5 26q25 42 57.5 68.5t71.5 26.5q24 0 39 -7t26.5 -16t22 -16t24.5 -7z" />
<glyph unicode="&#xd6;" horiz-adv-x="633" d="M414 305q11 59 15.5 89t4.5 50q0 34 -12 49q-19 23 -62 23h-12q-23 0 -39.5 -6t-30.5 -18q-20 -17 -33 -55.5t-24 -94.5q-11 -57 -16 -87.5t-5 -50.5q0 -33 13 -49q19 -24 62 -24h12q23 0 39.5 6t30.5 18q21 18 33.5 56t23.5 94zM579 285q-10 -51 -20 -89t-23.5 -67 t-31.5 -50.5t-42 -38.5q-36 -25 -85.5 -37t-119.5 -12h-11q-57 0 -101.5 13t-68.5 34q-26 23 -37 55t-11 79q0 21 6 70t21 126q9 48 20 85.5t26 67t35 52t47 40.5q63 43 192 43h8q57 0 101 -12t70 -35q51 -45 51 -125q0 -34 -6 -79.5t-20 -119.5zM290 724q-25 0 -39 12 t-14 34q0 11 3 23l1 4q8 31 24.5 48t51.5 17h7q25 0 39 -12t14 -34q0 -11 -3 -23l-1 -4q-8 -31 -24.5 -48t-51.5 -17h-7zM476 724q-25 0 -39 12t-14 34q0 11 3 23l1 4q8 31 24.5 48t51.5 17h7q25 0 39 -12t14 -34q0 -11 -3 -23l-1 -4q-8 -31 -24.5 -48t-51.5 -17h-7z" />
<glyph unicode="&#xd7;" d="M375 251l70 -86q12 -15 10.5 -26t-20.5 -27l-59 -49q-17 -14 -28.5 -14.5t-23.5 13.5l-71 87l-106 -87q-17 -14 -28.5 -14t-23.5 15l-39 49q-13 16 -10 27.5t20 25.5l105 86l-67 85q-13 14 -11 26t21 27l59 49q18 15 29 15t23 -14l68 -86l107 88q19 16 30.5 14t21.5 -15 l39 -49q13 -16 10 -27.5t-20 -25.5z" />
<glyph unicode="&#xd8;" horiz-adv-x="633" d="M62 52q-18 22 -26 51t-8 69q0 21 6 70t21 126q9 48 20 85.5t26 67t35 52t47 40.5q63 43 192 43h8q66 0 115 -17l58 79q9 12 16 14.5t23 -8.5l21 -15q17 -13 18.5 -20t-9.5 -22l-55 -75q35 -43 35 -108q0 -34 -6 -79.5t-20 -119.5q-10 -51 -20 -89t-23.5 -67t-31.5 -50.5 t-42 -38.5q-36 -25 -85.5 -37t-119.5 -12h-8q-32 0 -61 4.5t-53 11.5l-52 -70q-9 -12 -16 -14.5t-23 8.5l-21 15q-17 13 -18.5 20t9.5 22zM414 305q7 35 11 59.5t6 41.5l-198 -267q15 -8 42 -8h12q23 0 39.5 6t30.5 18q21 18 33.5 56t23.5 94zM221 342q-7 -34 -11 -58 t-7 -41l198 266q-15 7 -41 7h-12q-23 0 -39.5 -6t-30.5 -18q-20 -17 -33 -55.5t-24 -94.5z" />
<glyph unicode="&#xd9;" horiz-adv-x="632" d="M204 231q-5 -28 -5 -44q0 -25 10 -36q16 -20 65 -20h5q49 0 73 20q14 11 21.5 30.5t13.5 49.5l75 385q5 21 11.5 26t29.5 5h98q15 0 21 -5t6 -16q0 -7 -3 -25l-73 -375q-6 -33 -13.5 -59t-17.5 -48t-24 -39.5t-34 -33.5q-72 -55 -205 -55h-12q-69 0 -113.5 14t-69.5 41 q-35 41 -35 103q0 17 1.5 35.5t6.5 41.5l76 390q4 21 11 26t30 5h99q15 0 21 -5t6 -16q0 -7 -3 -25zM490 784q9 -6 9 -15t-12 -25l-29 -39q-13 -17 -23 -17q-8 0 -20 6l-177 99q-7 4 -11 8.5t-4 12.5q0 7 8 19l46 69q9 14 21 14q10 0 23 -10z" />
<glyph unicode="&#xda;" horiz-adv-x="632" d="M204 231q-5 -28 -5 -44q0 -25 10 -36q16 -20 65 -20h5q49 0 73 20q14 11 21.5 30.5t13.5 49.5l75 385q5 21 11.5 26t29.5 5h98q15 0 21 -5t6 -16q0 -7 -3 -25l-73 -375q-6 -33 -13.5 -59t-17.5 -48t-24 -39.5t-34 -33.5q-72 -55 -205 -55h-12q-69 0 -113.5 14t-69.5 41 q-35 41 -35 103q0 17 1.5 35.5t6.5 41.5l76 390q4 21 11 26t30 5h99q15 0 21 -5t6 -16q0 -7 -3 -25zM492 896q10 5 17 5q12 0 19 -16l26 -67q3 -8 3 -13q0 -7 -6 -12.5t-22 -11.5l-190 -74q-10 -4 -17 -4q-12 0 -19 16l-21 48q-3 7 -3 13q0 9 18 18z" />
<glyph unicode="&#xdb;" horiz-adv-x="632" d="M204 231q-5 -28 -5 -44q0 -25 10 -36q16 -20 65 -20h5q49 0 73 20q14 11 21.5 30.5t13.5 49.5l75 385q5 21 11.5 26t29.5 5h98q15 0 21 -5t6 -16q0 -7 -3 -25l-73 -375q-6 -33 -13.5 -59t-17.5 -48t-24 -39.5t-34 -33.5q-72 -55 -205 -55h-12q-69 0 -113.5 14t-69.5 41 q-35 41 -35 103q0 17 1.5 35.5t6.5 41.5l76 390q4 21 11 26t30 5h99q15 0 21 -5t6 -16q0 -7 -3 -25zM311 699q-8 -7 -11.5 -9t-8.5 -2q-6 0 -12 6l-38 37q-12 12 1 25l114 107q8 8 15 10.5t15 2.5h61q8 0 13.5 -2.5t10.5 -10.5l70 -105q6 -9 6 -15q0 -4 -2 -7t-9 -8l-51 -33 q-4 -2 -8 -4.5t-8 -2.5q-8 0 -16 11l-54 75h-5z" />
<glyph unicode="&#xdc;" horiz-adv-x="632" d="M204 231q-5 -28 -5 -44q0 -25 10 -36q16 -20 65 -20h5q49 0 73 20q14 11 21.5 30.5t13.5 49.5l75 385q5 21 11.5 26t29.5 5h98q15 0 21 -5t6 -16q0 -7 -3 -25l-73 -375q-6 -33 -13.5 -59t-17.5 -48t-24 -39.5t-34 -33.5q-72 -55 -205 -55h-12q-69 0 -113.5 14t-69.5 41 q-35 41 -35 103q0 17 1.5 35.5t6.5 41.5l76 390q4 21 11 26t30 5h99q15 0 21 -5t6 -16q0 -7 -3 -25zM294 724q-25 0 -39 12t-14 34q0 11 3 23l1 4q8 31 24.5 48t51.5 17h7q25 0 39 -12t14 -34q0 -11 -3 -23l-1 -4q-8 -31 -24.5 -48t-51.5 -17h-7zM480 724q-25 0 -39 12 t-14 34q0 11 3 23l1 4q8 31 24.5 48t51.5 17h7q25 0 39 -12t14 -34q0 -11 -3 -23l-1 -4q-8 -31 -24.5 -48t-51.5 -17h-7z" />
<glyph unicode="&#xdd;" horiz-adv-x="530" d="M150 0q-28 0 -28 17q0 10 7 42l26 132q-14 42 -28 93.5t-26 107.5t-21 112.5t-13 109.5q-3 33 24 33h99q22 0 29.5 -2.5t9.5 -21.5q2 -32 5.5 -69.5t8 -75.5t9.5 -74t10 -65h5q16 29 35 65t37.5 74t36 75.5t32.5 69.5q7 19 15 21.5t30 2.5h104q20 0 20 -14 q0 -10 -6 -22.5t-14 -29.5q-24 -49 -52.5 -101.5t-59.5 -104t-62.5 -100t-61.5 -88.5l-30 -156q-4 -18 -11.5 -24.5t-26.5 -6.5h-103zM445 896q10 5 17 5q12 0 19 -16l26 -67q3 -8 3 -13q0 -7 -6 -12.5t-22 -11.5l-190 -74q-10 -4 -17 -4q-12 0 -19 16l-21 48q-3 7 -3 13 q0 9 18 18z" />
<glyph unicode="&#xde;" horiz-adv-x="576" d="M188 104l-14 -72q-2 -11 -4.5 -17t-7 -9.5t-11.5 -4.5t-19 -1h-93q-18 0 -25.5 2.5t-7.5 13.5q0 5 2.5 16.5t5.5 27.5l109 564q4 21 11.5 26.5t30.5 5.5h93q18 0 25.5 -2.5t7.5 -13.5q0 -1 -1.5 -10t-4.5 -22.5t-6.5 -30.5t-6.5 -33q13 2 29 3t29 1h10q113 0 162 -36 t49 -115q0 -40 -7 -78.5t-20 -71.5t-33 -59.5t-45 -41.5q-40 -24 -90.5 -33t-117.5 -9h-50zM305 413q-11 0 -25.5 -0.5t-23.5 -2.5q-8 -1 -10 -12l-30 -157h52q54 0 78 21q10 8 16.5 21t10.5 27t6 28.5t2 26.5q0 28 -16 38t-51 10h-9z" />
<glyph unicode="&#xdf;" d="M-5 -84q-20 0 -25.5 6.5t-1.5 24.5l98 498q13 66 29.5 105t42.5 66q66 70 199 70h4q94 0 145 -37t51 -116q0 -55 -22.5 -98t-64.5 -70v-4q34 -13 52.5 -43.5t18.5 -78.5q0 -59 -20 -106.5t-54 -80.5q-63 -61 -162 -61h-2q-20 0 -43.5 2.5t-38.5 5.5q-14 3 -17.5 9 t-1.5 17l14 73q3 14 10.5 17t21.5 1q7 -1 17 -1.5t17 -0.5h1q24 0 40 7t29 23q12 16 19.5 38.5t7.5 51.5q0 34 -19 47q-10 7 -25 9t-37 2h-19q-12 0 -16 4.5t-2 16.5l15 76q3 13 8 17t17 4h7q25 0 39.5 5t25.5 14q14 11 22.5 29.5t8.5 46.5q0 53 -62 53h-2q-42 0 -66 -30 q-10 -13 -17 -31.5t-13 -48.5l-97 -501q-4 -19 -11 -25t-29 -6h-92z" />
<glyph unicode="&#xe0;" horiz-adv-x="503" d="M271 38q-17 -22 -49.5 -34.5t-88.5 -12.5h-3q-69 0 -104.5 32.5t-35.5 89.5q0 17 2 36t7.5 37.5t14 35.5t20.5 30q24 26 66.5 39t105.5 13h6q20 0 42 -1t33 -3q3 11 4.5 20t1.5 14v2q0 20 -16.5 29t-52.5 9h-3q-19 0 -42.5 -3t-42.5 -8q-8 -2 -20 -4.5t-18 -2.5 q-14 0 -15 16l-5 51q-1 10 -1.5 18.5t-0.5 13.5q0 7 3 11t12 7q15 5 36.5 9.5t45.5 8.5t49 6t49 2h3q51 0 85 -8.5t57 -25.5q18 -14 28 -35.5t10 -56.5q0 -14 -3.5 -45.5t-14.5 -85.5l-43 -214q-3 -15 -11 -21.5t-28 -6.5h-52q-16 0 -21.5 4t-6.5 16l-1 18h-2zM269 197 q-11 2 -26 2.5t-29 0.5h-11q-36 0 -52.5 -14.5t-16.5 -42.5q0 -18 11 -28t38 -10h5q35 0 53 15q9 8 13.5 18.5t9.5 30.5zM387 640q7 -7 7 -14q0 -9 -16 -25l-34 -34q-7 -7 -12 -10.5t-11 -3.5q-5 0 -10.5 2.5t-10.5 6.5l-161 123q-13 10 -13 20q0 9 11 21l56 61q11 11 21 11 q9 0 23 -13z" />
<glyph unicode="&#xe1;" horiz-adv-x="503" d="M271 38q-17 -22 -49.5 -34.5t-88.5 -12.5h-3q-69 0 -104.5 32.5t-35.5 89.5q0 17 2 36t7.5 37.5t14 35.5t20.5 30q24 26 66.5 39t105.5 13h6q20 0 42 -1t33 -3q3 11 4.5 20t1.5 14v2q0 20 -16.5 29t-52.5 9h-3q-19 0 -42.5 -3t-42.5 -8q-8 -2 -20 -4.5t-18 -2.5 q-14 0 -15 16l-5 51q-1 10 -1.5 18.5t-0.5 13.5q0 7 3 11t12 7q15 5 36.5 9.5t45.5 8.5t49 6t49 2h3q51 0 85 -8.5t57 -25.5q18 -14 28 -35.5t10 -56.5q0 -14 -3.5 -45.5t-14.5 -85.5l-43 -214q-3 -15 -11 -21.5t-28 -6.5h-52q-16 0 -21.5 4t-6.5 16l-1 18h-2zM269 197 q-11 2 -26 2.5t-29 0.5h-11q-36 0 -52.5 -14.5t-16.5 -42.5q0 -18 11 -28t38 -10h5q35 0 53 15q9 8 13.5 18.5t9.5 30.5zM375 763q5 4 10.5 6.5t10.5 2.5q10 0 17 -13l36 -62q5 -8 5 -15q0 -8 -5 -13t-18 -13l-175 -105q-11 -7 -19 -7q-6 0 -9.5 3t-8.5 10l-29 44 q-6 9 -6 14q0 8 15 19z" />
<glyph unicode="&#xe2;" horiz-adv-x="503" d="M271 38q-17 -22 -49.5 -34.5t-88.5 -12.5h-3q-69 0 -104.5 32.5t-35.5 89.5q0 17 2 36t7.5 37.5t14 35.5t20.5 30q24 26 66.5 39t105.5 13h6q20 0 42 -1t33 -3q3 11 4.5 20t1.5 14v2q0 20 -16.5 29t-52.5 9h-3q-19 0 -42.5 -3t-42.5 -8q-8 -2 -20 -4.5t-18 -2.5 q-14 0 -15 16l-5 51q-1 10 -1.5 18.5t-0.5 13.5q0 7 3 11t12 7q15 5 36.5 9.5t45.5 8.5t49 6t49 2h3q51 0 85 -8.5t57 -25.5q18 -14 28 -35.5t10 -56.5q0 -14 -3.5 -45.5t-14.5 -85.5l-43 -214q-3 -15 -11 -21.5t-28 -6.5h-52q-16 0 -21.5 4t-6.5 16l-1 18h-2zM269 197 q-11 2 -26 2.5t-29 0.5h-11q-36 0 -52.5 -14.5t-16.5 -42.5q0 -18 11 -28t38 -10h5q35 0 53 15q9 8 13.5 18.5t9.5 30.5zM214 565q-8 -7 -11.5 -9t-8.5 -2q-6 0 -12 6l-38 37q-12 12 1 25l114 107q8 8 15 10.5t15 2.5h61q8 0 13.5 -2.5t10.5 -10.5l70 -105q6 -9 6 -15 q0 -4 -2 -7t-9 -8l-51 -33q-4 -2 -8 -4.5t-8 -2.5q-8 0 -16 11l-54 75h-5z" />
<glyph unicode="&#xe3;" horiz-adv-x="503" d="M271 38q-17 -22 -49.5 -34.5t-88.5 -12.5h-3q-69 0 -104.5 32.5t-35.5 89.5q0 17 2 36t7.5 37.5t14 35.5t20.5 30q24 26 66.5 39t105.5 13h6q20 0 42 -1t33 -3q3 11 4.5 20t1.5 14v2q0 20 -16.5 29t-52.5 9h-3q-19 0 -42.5 -3t-42.5 -8q-8 -2 -20 -4.5t-18 -2.5 q-14 0 -15 16l-5 51q-1 10 -1.5 18.5t-0.5 13.5q0 7 3 11t12 7q15 5 36.5 9.5t45.5 8.5t49 6t49 2h3q51 0 85 -8.5t57 -25.5q18 -14 28 -35.5t10 -56.5q0 -14 -3.5 -45.5t-14.5 -85.5l-43 -214q-3 -15 -11 -21.5t-28 -6.5h-52q-16 0 -21.5 4t-6.5 16l-1 18h-2zM269 197 q-11 2 -26 2.5t-29 0.5h-11q-36 0 -52.5 -14.5t-16.5 -42.5q0 -18 11 -28t38 -10h5q35 0 53 15q9 8 13.5 18.5t9.5 30.5zM368 660q14 0 25 8.5t25 28.5q7 9 12.5 9t13.5 -5l37 -24q15 -9 5 -26q-25 -42 -57.5 -68.5t-71.5 -26.5q-24 0 -38.5 7t-26 16t-22 16t-25.5 7 q-14 0 -25 -8.5t-25 -28.5q-7 -9 -12.5 -9t-13.5 5l-37 24q-15 9 -5 26q25 42 57.5 68.5t71.5 26.5q24 0 39 -7t26.5 -16t22 -16t24.5 -7z" />
<glyph unicode="&#xe4;" horiz-adv-x="503" d="M271 38q-17 -22 -49.5 -34.5t-88.5 -12.5h-3q-69 0 -104.5 32.5t-35.5 89.5q0 17 2 36t7.5 37.5t14 35.5t20.5 30q24 26 66.5 39t105.5 13h6q20 0 42 -1t33 -3q3 11 4.5 20t1.5 14v2q0 20 -16.5 29t-52.5 9h-3q-19 0 -42.5 -3t-42.5 -8q-8 -2 -20 -4.5t-18 -2.5 q-14 0 -15 16l-5 51q-1 10 -1.5 18.5t-0.5 13.5q0 7 3 11t12 7q15 5 36.5 9.5t45.5 8.5t49 6t49 2h3q51 0 85 -8.5t57 -25.5q18 -14 28 -35.5t10 -56.5q0 -14 -3.5 -45.5t-14.5 -85.5l-43 -214q-3 -15 -11 -21.5t-28 -6.5h-52q-16 0 -21.5 4t-6.5 16l-1 18h-2zM269 197 q-11 2 -26 2.5t-29 0.5h-11q-36 0 -52.5 -14.5t-16.5 -42.5q0 -18 11 -28t38 -10h5q35 0 53 15q9 8 13.5 18.5t9.5 30.5zM204 567q-25 0 -39 12t-14 34q0 11 3 23l1 4q8 31 24.5 48t51.5 17h7q25 0 39 -12t14 -34q0 -11 -3 -23l-1 -4q-8 -31 -24.5 -48t-51.5 -17h-7z M390 567q-25 0 -39 12t-14 34q0 11 3 23l1 4q8 31 24.5 48t51.5 17h7q25 0 39 -12t14 -34q0 -11 -3 -23l-1 -4q-8 -31 -24.5 -48t-51.5 -17h-7z" />
<glyph unicode="&#xe5;" horiz-adv-x="503" d="M271 38q-17 -22 -49.5 -34.5t-88.5 -12.5h-3q-69 0 -104.5 32.5t-35.5 89.5q0 17 2 36t7.5 37.5t14 35.5t20.5 30q24 26 66.5 39t105.5 13h6q20 0 42 -1t33 -3q3 11 4.5 20t1.5 14v2q0 20 -16.5 29t-52.5 9h-3q-19 0 -42.5 -3t-42.5 -8q-8 -2 -20 -4.5t-18 -2.5 q-14 0 -15 16l-5 51q-1 10 -1.5 18.5t-0.5 13.5q0 7 3 11t12 7q15 5 36.5 9.5t45.5 8.5t49 6t49 2h3q51 0 85 -8.5t57 -25.5q18 -14 28 -35.5t10 -56.5q0 -14 -3.5 -45.5t-14.5 -85.5l-43 -214q-3 -15 -11 -21.5t-28 -6.5h-52q-16 0 -21.5 4t-6.5 16l-1 18h-2zM269 197 q-11 2 -26 2.5t-29 0.5h-11q-36 0 -52.5 -14.5t-16.5 -42.5q0 -18 11 -28t38 -10h5q35 0 53 15q9 8 13.5 18.5t9.5 30.5zM301 622q14 0 24.5 9.5t10.5 26.5q0 11 -7 16.5t-17 5.5q-14 0 -24.5 -9.5t-10.5 -26.5q0 -11 7 -16.5t17 -5.5zM290 549q-38 0 -62 23t-24 61 q0 26 9 48t25 38t38 25t47 9q40 0 63 -23t23 -61q0 -26 -9 -48t-25 -38t-38 -25t-47 -9z" />
<glyph unicode="&#xe6;" horiz-adv-x="762" d="M544 499q45 0 80.5 -9.5t58.5 -31.5q17 -17 26.5 -40.5t9.5 -58.5q0 -21 -4 -48.5t-11 -65.5l-5 -27q-3 -16 -10.5 -22t-23.5 -6h-237q-4 -19 -4 -35q0 -20 16.5 -29.5t66.5 -9.5h6q24 0 53.5 4.5t52.5 9.5q4 1 9 2t10 1q13 0 15 -17l4 -46q1 -9 1.5 -17t0.5 -13 q0 -16 -31 -26q-27 -8 -71 -15.5t-89 -7.5h-14q-60 0 -99 16t-57 39h-2q-31 -29 -71 -42t-92 -13h-7q-66 0 -101 32t-35 87q0 20 2.5 41.5t10.5 45.5q16 52 63 79.5t139 27.5h7q20 0 42 -1t33 -3q3 11 4.5 20t1.5 14v2q0 20 -16.5 29t-52.5 9h-3q-19 0 -42.5 -3t-42.5 -8 q-8 -2 -20 -4.5t-18 -2.5q-14 0 -15 16l-5 51q-1 10 -1.5 18.5t-0.5 13.5q0 7 3 11t12 7q15 5 36.5 9.5t45.5 8.5t49 6t49 2h5q42 0 73.5 -8t51.5 -34h4q26 18 60 30t76 12h3zM269 197q-11 2 -26 2.5t-29 0.5h-8q-33 0 -47 -7t-21 -26q-2 -6 -3 -14t-1 -15q0 -14 11 -23.5 t34 -9.5h9q35 0 53 15q9 8 14 18.5t9 30.5zM556 294q10 0 13 10l2 9q4 19 4 31q0 43 -51 43h-2q-31 0 -47 -15q-10 -9 -15 -22.5t-10 -38.5l-3 -17h109z" />
<glyph unicode="&#xe7;" horiz-adv-x="452" d="M185 -53q15 3 28 3q31 0 52.5 -16.5t22.5 -54.5q0 -53 -38 -87.5t-100 -34.5q-30 0 -57.5 4.5t-41.5 10.5q-16 6 -10 26l11 35q4 11 9.5 13t15.5 -1q12 -4 30 -7t34 -3q17 0 27 6t10 21q0 16 -26 16h-3q-15 0 -25 -2.5t-18 -2.5q-5 0 -7 2t-4 5l-9 14q-4 7 -4 13 q0 5 7 21l31 64q0 2 1 3q-36 5 -59.5 16.5t-37.5 28.5t-20 39.5t-6 49.5q0 18 2.5 41t7.5 52l14 76q11 60 31 98t55 62q26 18 65.5 29.5t89.5 11.5h5q19 0 39.5 -2.5t40.5 -7t38.5 -11t33.5 -13.5q9 -5 12 -9.5t3 -9.5q0 -7 -3 -14.5t-8 -19.5l-21 -47q-9 -19 -20 -19 q-9 0 -18 5q-18 10 -41.5 16t-43.5 6h-5q-39 0 -63 -21q-14 -12 -22.5 -31t-14.5 -53l-8 -45q-3 -17 -5 -31t-2 -25q0 -26 15.5 -38.5t54.5 -12.5h5q20 0 46 4.5t44 10.5q6 2 9.5 2.5t6.5 0.5q12 0 15 -17l5 -50q1 -8 1.5 -15.5t0.5 -14.5q0 -9 -6 -14t-21 -10 q-28 -9 -60 -14t-72 -7q0 -1 -0.5 -1.5t-0.5 -2.5z" />
<glyph unicode="&#xe8;" horiz-adv-x="493" d="M244 116q23 0 53 4.5t53 9.5q4 1 9 2t10 1q13 0 15 -17l4 -46q1 -9 1.5 -17t0.5 -13q0 -10 -7 -15.5t-24 -10.5q-27 -8 -71 -15.5t-89 -7.5h-14q-89 0 -138 33t-49 116q0 26 3 53.5t8 51.5l7 35q16 78 38.5 118.5t52.5 61.5q26 18 67 28.5t98 10.5h3q45 0 80.5 -9.5 t58.5 -31.5q17 -17 26.5 -40.5t9.5 -58.5q0 -21 -4 -48.5t-11 -65.5l-5 -27q-3 -17 -10.5 -22.5t-23.5 -5.5h-237q-4 -19 -4 -35q0 -20 16.5 -29.5t66.5 -9.5h6zM287 294q10 0 13 10l2 9q4 19 4 31q0 43 -51 43h-2q-31 0 -47 -15q-10 -9 -15 -22.5t-10 -38.5l-3 -17h109z M366 640q7 -7 7 -14q0 -9 -16 -25l-34 -34q-7 -7 -12 -10.5t-11 -3.5q-5 0 -10.5 2.5t-10.5 6.5l-161 123q-13 10 -13 20q0 9 11 21l56 61q11 11 21 11q9 0 23 -13z" />
<glyph unicode="&#xe9;" horiz-adv-x="493" d="M244 116q23 0 53 4.5t53 9.5q4 1 9 2t10 1q13 0 15 -17l4 -46q1 -9 1.5 -17t0.5 -13q0 -10 -7 -15.5t-24 -10.5q-27 -8 -71 -15.5t-89 -7.5h-14q-89 0 -138 33t-49 116q0 26 3 53.5t8 51.5l7 35q16 78 38.5 118.5t52.5 61.5q26 18 67 28.5t98 10.5h3q45 0 80.5 -9.5 t58.5 -31.5q17 -17 26.5 -40.5t9.5 -58.5q0 -21 -4 -48.5t-11 -65.5l-5 -27q-3 -17 -10.5 -22.5t-23.5 -5.5h-237q-4 -19 -4 -35q0 -20 16.5 -29.5t66.5 -9.5h6zM287 294q10 0 13 10l2 9q4 19 4 31q0 43 -51 43h-2q-31 0 -47 -15q-10 -9 -15 -22.5t-10 -38.5l-3 -17h109z M361 763q5 4 10.5 6.5t10.5 2.5q10 0 17 -13l36 -62q5 -8 5 -15q0 -8 -5 -13t-18 -13l-175 -105q-11 -7 -19 -7q-6 0 -9.5 3t-8.5 10l-29 44q-6 9 -6 14q0 8 15 19z" />
<glyph unicode="&#xea;" horiz-adv-x="493" d="M244 116q23 0 53 4.5t53 9.5q4 1 9 2t10 1q13 0 15 -17l4 -46q1 -9 1.5 -17t0.5 -13q0 -10 -7 -15.5t-24 -10.5q-27 -8 -71 -15.5t-89 -7.5h-14q-89 0 -138 33t-49 116q0 26 3 53.5t8 51.5l7 35q16 78 38.5 118.5t52.5 61.5q26 18 67 28.5t98 10.5h3q45 0 80.5 -9.5 t58.5 -31.5q17 -17 26.5 -40.5t9.5 -58.5q0 -21 -4 -48.5t-11 -65.5l-5 -27q-3 -17 -10.5 -22.5t-23.5 -5.5h-237q-4 -19 -4 -35q0 -20 16.5 -29.5t66.5 -9.5h6zM287 294q10 0 13 10l2 9q4 19 4 31q0 43 -51 43h-2q-31 0 -47 -15q-10 -9 -15 -22.5t-10 -38.5l-3 -17h109z M200 565q-8 -7 -11.5 -9t-8.5 -2q-6 0 -12 6l-38 37q-12 12 1 25l114 107q8 8 15 10.5t15 2.5h61q8 0 13.5 -2.5t10.5 -10.5l70 -105q6 -9 6 -15q0 -4 -2 -7t-9 -8l-51 -33q-4 -2 -8 -4.5t-8 -2.5q-8 0 -16 11l-54 75h-5z" />
<glyph unicode="&#xeb;" horiz-adv-x="493" d="M244 116q23 0 53 4.5t53 9.5q4 1 9 2t10 1q13 0 15 -17l4 -46q1 -9 1.5 -17t0.5 -13q0 -10 -7 -15.5t-24 -10.5q-27 -8 -71 -15.5t-89 -7.5h-14q-89 0 -138 33t-49 116q0 26 3 53.5t8 51.5l7 35q16 78 38.5 118.5t52.5 61.5q26 18 67 28.5t98 10.5h3q45 0 80.5 -9.5 t58.5 -31.5q17 -17 26.5 -40.5t9.5 -58.5q0 -21 -4 -48.5t-11 -65.5l-5 -27q-3 -17 -10.5 -22.5t-23.5 -5.5h-237q-4 -19 -4 -35q0 -20 16.5 -29.5t66.5 -9.5h6zM287 294q10 0 13 10l2 9q4 19 4 31q0 43 -51 43h-2q-31 0 -47 -15q-10 -9 -15 -22.5t-10 -38.5l-3 -17h109z M182 567q-25 0 -39 12t-14 34q0 11 3 23l1 4q8 31 24.5 48t51.5 17h7q25 0 39 -12t14 -34q0 -11 -3 -23l-1 -4q-8 -31 -24.5 -48t-51.5 -17h-7zM368 567q-25 0 -39 12t-14 34q0 11 3 23l1 4q8 31 24.5 48t51.5 17h7q25 0 39 -12t14 -34q0 -11 -3 -23l-1 -4q-8 -31 -24.5 -48 t-51.5 -17h-7z" />
<glyph unicode="&#xec;" horiz-adv-x="266" d="M148 29q-2 -14 -10 -21.5t-28 -7.5h-92q-17 0 -23 4.5t-6 12.5q0 6 2 16t5 24l78 404q3 14 11 21.5t28 7.5h92q16 0 22 -4.5t6 -13.5q0 -6 -2 -17t-7 -37zM275 640q7 -7 7 -14q0 -9 -16 -25l-34 -34q-7 -7 -12 -10.5t-11 -3.5q-5 0 -10.5 2.5t-10.5 6.5l-161 123 q-13 10 -13 20q0 9 11 21l56 61q11 11 21 11q9 0 23 -13z" />
<glyph unicode="&#xed;" horiz-adv-x="266" d="M148 29q-2 -14 -10 -21.5t-28 -7.5h-92q-17 0 -23 4.5t-6 12.5q0 6 2 16t5 24l78 404q3 14 11 21.5t28 7.5h92q16 0 22 -4.5t6 -13.5q0 -6 -2 -17t-7 -37zM263 763q5 4 10.5 6.5t10.5 2.5q10 0 17 -13l36 -62q5 -8 5 -15q0 -8 -5 -13t-18 -13l-175 -105q-11 -7 -19 -7 q-6 0 -9.5 3t-8.5 10l-29 44q-6 9 -6 14q0 8 15 19z" />
<glyph unicode="&#xee;" horiz-adv-x="266" d="M148 29q-2 -14 -10 -21.5t-28 -7.5h-92q-17 0 -23 4.5t-6 12.5q0 6 2 16t5 24l78 404q3 14 11 21.5t28 7.5h92q16 0 22 -4.5t6 -13.5q0 -6 -2 -17t-7 -37zM105 565q-8 -7 -11.5 -9t-8.5 -2q-6 0 -12 6l-38 37q-12 12 1 25l114 107q8 8 15 10.5t15 2.5h61q8 0 13.5 -2.5 t10.5 -10.5l70 -105q6 -9 6 -15q0 -4 -2 -7t-9 -8l-51 -33q-4 -2 -8 -4.5t-8 -2.5q-8 0 -16 11l-54 75h-5z" />
<glyph unicode="&#xef;" horiz-adv-x="266" d="M148 29q-2 -14 -10 -21.5t-28 -7.5h-92q-17 0 -23 4.5t-6 12.5q0 6 2 16t5 24l78 404q3 14 11 21.5t28 7.5h92q16 0 22 -4.5t6 -13.5q0 -6 -2 -17t-7 -37zM81 567q-25 0 -39 12t-14 34q0 11 3 23l1 4q8 31 24.5 48t51.5 17h7q25 0 39 -12t14 -34q0 -11 -3 -23l-1 -4 q-8 -31 -24.5 -48t-51.5 -17h-7zM267 567q-25 0 -39 12t-14 34q0 11 3 23l1 4q8 31 24.5 48t51.5 17h7q25 0 39 -12t14 -34q0 -11 -3 -23l-1 -4q-8 -31 -24.5 -48t-51.5 -17h-7z" />
<glyph unicode="&#xf0;" horiz-adv-x="513" d="M254 512q-10 -11 -15.5 -11t-16.5 8l-25 21q-11 8 -10.5 14t9.5 16l32 36l-42 23q-14 8 -14 16q0 6 7 16l37 56q4 5 7 8t8 3t10.5 -2t13.5 -6q14 -6 26.5 -12t25.5 -13l40 44q10 11 15.5 11t16.5 -8l25 -21q11 -8 10.5 -14t-9.5 -16l-33 -37q49 -34 75 -87t26 -128 q0 -14 -1 -32t-3.5 -38t-5 -39.5t-5.5 -35.5l-15 -80q-11 -61 -28.5 -101.5t-45.5 -64.5q-29 -26 -72.5 -36.5t-107.5 -10.5h-10q-93 0 -135 41.5t-42 114.5q0 9 1 20t2 23t2.5 23t3.5 19l7 37q10 53 26 88t39 58q29 29 69 42t89 13h1q29 0 53 -5.5t39 -13.5h2 q-1 29 -11.5 54.5t-34.5 46.5zM302 275q3 16 3 28q0 20 -12 30.5t-39 10.5h-3q-38 0 -55.5 -19t-25.5 -62l-9 -45q-2 -13 -4 -26.5t-2 -23.5q0 -52 52 -52h6q32 0 48 16.5t23 50.5z" />
<glyph unicode="&#xf1;" horiz-adv-x="525" d="M310 305q3 16 3 28q0 20 -12.5 29t-35.5 9q-12 0 -23.5 -3t-20.5 -10q-17 -14 -24 -53l-54 -276q-3 -14 -10 -21.5t-27 -7.5h-93q-29 0 -29 18q0 5 1.5 13.5t5.5 28.5l78 402q3 15 11 21.5t25 6.5h52q15 0 21 -3.5t8 -14.5l3 -21h3q27 24 64 36t88 12h2q62 0 97.5 -24 t35.5 -80q0 -18 -2 -40t-9 -54l-54 -272q-3 -14 -10 -21.5t-27 -7.5h-91q-17 0 -23.5 4.5t-6.5 14.5q0 11 6 38zM375 660q14 0 25 8.5t25 28.5q7 9 12.5 9t13.5 -5l37 -24q15 -9 5 -26q-25 -42 -57.5 -68.5t-71.5 -26.5q-24 0 -38.5 7t-26 16t-22 16t-25.5 7q-14 0 -25 -8.5 t-25 -28.5q-7 -9 -12.5 -9t-13.5 5l-37 24q-15 9 -5 26q25 42 57.5 68.5t71.5 26.5q24 0 39 -7t26.5 -16t22 -16t24.5 -7z" />
<glyph unicode="&#xf2;" horiz-adv-x="520" d="M177 274q-11 -49 -15 -75.5t-4 -41.5q0 -20 10.5 -30.5t36.5 -10.5h2q14 0 27 3t22 10q14 11 22.5 30t16.5 57q11 49 15 75.5t4 41.5q0 20 -10.5 30.5t-36.5 10.5h-2q-14 0 -27 -3t-22 -10q-14 -11 -22 -30t-17 -57zM179 -9q-48 0 -82.5 10.5t-56.5 28.5t-32 44.5 t-10 58.5q0 13 2.5 33.5t6.5 45.5t9 51.5t11 50.5q13 55 34 90t59 59q29 18 66.5 27t90.5 9h18q48 0 82.5 -10.5t56.5 -28.5t32 -44.5t10 -58.5q0 -26 -7 -72.5t-22 -105.5q-16 -62 -36.5 -96.5t-51.5 -54.5t-70 -28.5t-90 -8.5h-20zM410 640q7 -7 7 -14q0 -9 -16 -25 l-34 -34q-7 -7 -12 -10.5t-11 -3.5q-5 0 -10.5 2.5t-10.5 6.5l-161 123q-13 10 -13 20q0 9 11 21l56 61q11 11 21 11q9 0 23 -13z" />
<glyph unicode="&#xf3;" horiz-adv-x="520" d="M177 274q-11 -49 -15 -75.5t-4 -41.5q0 -20 10.5 -30.5t36.5 -10.5h2q14 0 27 3t22 10q14 11 22.5 30t16.5 57q11 49 15 75.5t4 41.5q0 20 -10.5 30.5t-36.5 10.5h-2q-14 0 -27 -3t-22 -10q-14 -11 -22 -30t-17 -57zM179 -9q-48 0 -82.5 10.5t-56.5 28.5t-32 44.5 t-10 58.5q0 13 2.5 33.5t6.5 45.5t9 51.5t11 50.5q13 55 34 90t59 59q29 18 66.5 27t90.5 9h18q48 0 82.5 -10.5t56.5 -28.5t32 -44.5t10 -58.5q0 -26 -7 -72.5t-22 -105.5q-16 -62 -36.5 -96.5t-51.5 -54.5t-70 -28.5t-90 -8.5h-20zM392 763q5 4 10.5 6.5t10.5 2.5 q10 0 17 -13l36 -62q5 -8 5 -15q0 -8 -5 -13t-18 -13l-175 -105q-11 -7 -19 -7q-6 0 -9.5 3t-8.5 10l-29 44q-6 9 -6 14q0 8 15 19z" />
<glyph unicode="&#xf4;" horiz-adv-x="520" d="M177 274q-11 -49 -15 -75.5t-4 -41.5q0 -20 10.5 -30.5t36.5 -10.5h2q14 0 27 3t22 10q14 11 22.5 30t16.5 57q11 49 15 75.5t4 41.5q0 20 -10.5 30.5t-36.5 10.5h-2q-14 0 -27 -3t-22 -10q-14 -11 -22 -30t-17 -57zM179 -9q-48 0 -82.5 10.5t-56.5 28.5t-32 44.5 t-10 58.5q0 13 2.5 33.5t6.5 45.5t9 51.5t11 50.5q13 55 34 90t59 59q29 18 66.5 27t90.5 9h18q48 0 82.5 -10.5t56.5 -28.5t32 -44.5t10 -58.5q0 -26 -7 -72.5t-22 -105.5q-16 -62 -36.5 -96.5t-51.5 -54.5t-70 -28.5t-90 -8.5h-20zM232 565q-8 -7 -11.5 -9t-8.5 -2 q-6 0 -12 6l-38 37q-12 12 1 25l114 107q8 8 15 10.5t15 2.5h61q8 0 13.5 -2.5t10.5 -10.5l70 -105q6 -9 6 -15q0 -4 -2 -7t-9 -8l-51 -33q-4 -2 -8 -4.5t-8 -2.5q-8 0 -16 11l-54 75h-5z" />
<glyph unicode="&#xf5;" horiz-adv-x="520" d="M177 274q-11 -49 -15 -75.5t-4 -41.5q0 -20 10.5 -30.5t36.5 -10.5h2q14 0 27 3t22 10q14 11 22.5 30t16.5 57q11 49 15 75.5t4 41.5q0 20 -10.5 30.5t-36.5 10.5h-2q-14 0 -27 -3t-22 -10q-14 -11 -22 -30t-17 -57zM179 -9q-48 0 -82.5 10.5t-56.5 28.5t-32 44.5 t-10 58.5q0 13 2.5 33.5t6.5 45.5t9 51.5t11 50.5q13 55 34 90t59 59q29 18 66.5 27t90.5 9h18q48 0 82.5 -10.5t56.5 -28.5t32 -44.5t10 -58.5q0 -26 -7 -72.5t-22 -105.5q-16 -62 -36.5 -96.5t-51.5 -54.5t-70 -28.5t-90 -8.5h-20zM380 660q14 0 25 8.5t25 28.5 q7 9 12.5 9t13.5 -5l37 -24q15 -9 5 -26q-25 -42 -57.5 -68.5t-71.5 -26.5q-24 0 -38.5 7t-26 16t-22 16t-25.5 7q-14 0 -25 -8.5t-25 -28.5q-7 -9 -12.5 -9t-13.5 5l-37 24q-15 9 -5 26q25 42 57.5 68.5t71.5 26.5q24 0 39 -7t26.5 -16t22 -16t24.5 -7z" />
<glyph unicode="&#xf6;" horiz-adv-x="520" d="M177 274q-11 -49 -15 -75.5t-4 -41.5q0 -20 10.5 -30.5t36.5 -10.5h2q14 0 27 3t22 10q14 11 22.5 30t16.5 57q11 49 15 75.5t4 41.5q0 20 -10.5 30.5t-36.5 10.5h-2q-14 0 -27 -3t-22 -10q-14 -11 -22 -30t-17 -57zM179 -9q-48 0 -82.5 10.5t-56.5 28.5t-32 44.5 t-10 58.5q0 13 2.5 33.5t6.5 45.5t9 51.5t11 50.5q13 55 34 90t59 59q29 18 66.5 27t90.5 9h18q48 0 82.5 -10.5t56.5 -28.5t32 -44.5t10 -58.5q0 -26 -7 -72.5t-22 -105.5q-16 -62 -36.5 -96.5t-51.5 -54.5t-70 -28.5t-90 -8.5h-20zM201 567q-25 0 -39 12t-14 34q0 11 3 23 l1 4q8 31 24.5 48t51.5 17h7q25 0 39 -12t14 -34q0 -11 -3 -23l-1 -4q-8 -31 -24.5 -48t-51.5 -17h-7zM387 567q-25 0 -39 12t-14 34q0 11 3 23l1 4q8 31 24.5 48t51.5 17h7q25 0 39 -12t14 -34q0 -11 -3 -23l-1 -4q-8 -31 -24.5 -48t-51.5 -17h-7z" />
<glyph unicode="&#xf7;" d="M390 447q-8 -41 -32 -60.5t-58 -19.5h-12q-45 0 -57 19.5t-4 60.5l2 7q8 45 33.5 61.5t57.5 16.5h12q34 0 51 -16.5t9 -61.5zM316 63q-8 -41 -32.5 -60.5t-58.5 -19.5h-12q-45 0 -56.5 19.5t-3.5 60.5l1 7q9 45 34 61.5t57 16.5h12q34 0 51.5 -16.5t8.5 -61.5zM60 189 q-20 0 -25 9t-1 27l12 62q5 24 12.5 32t27.5 8h403q20 0 25 -9t1 -27l-12 -62q-5 -24 -12.5 -32t-27.5 -8h-403z" />
<glyph unicode="&#xf8;" horiz-adv-x="520" d="M179 -9q-28 0 -51.5 4t-43.5 10l-45 -56q-7 -9 -13 -11.5t-16 5.5l-24 19q-11 8 -11 13.5t8 16.5l42 52q-14 17 -20.5 40t-6.5 49q0 13 2.5 33.5t6.5 45.5t9 51.5t11 50.5q13 55 34 90t59 59q29 18 66.5 27t90.5 9h18q26 0 47.5 -3.5t39.5 -8.5l48 59q7 9 13 11.5 t16 -5.5l24 -19q11 -8 11 -13.5t-8 -16.5l-42 -52q32 -35 32 -94q0 -26 -7 -72.5t-22 -105.5q-16 -62 -36.5 -96.5t-51.5 -54.5t-70 -28.5t-90 -8.5h-20zM295 216q5 21 8 37t5 30l-131 -163q9 -4 28 -4h2q14 0 27 3t22 10q14 11 22.5 30t16.5 57zM165 217l124 154 q-9 3 -22 3h-2q-14 0 -27 -3t-22 -10q-14 -11 -22 -30t-17 -57z" />
<glyph unicode="&#xf9;" horiz-adv-x="514" d="M433 168q-10 -51 -26.5 -83t-43.5 -52q-30 -22 -67.5 -32t-99.5 -10h-11q-87 0 -135.5 29.5t-48.5 91.5q0 16 2.5 34.5t7.5 41.5l53 273q3 15 11 22t28 7h91q17 0 23.5 -4.5t6.5 -12.5q0 -5 -2.5 -20t-7.5 -37l-46 -237q-3 -15 -3 -27q0 -32 44 -32h4q23 0 41 13 q8 7 13 17.5t10 33.5l54 277q3 15 11 22t28 7h91q17 0 23.5 -5t6.5 -14q0 -7 -6 -37zM400 640q7 -7 7 -14q0 -9 -16 -25l-34 -34q-7 -7 -12 -10.5t-11 -3.5q-5 0 -10.5 2.5t-10.5 6.5l-161 123q-13 10 -13 20q0 9 11 21l56 61q11 11 21 11q9 0 23 -13z" />
<glyph unicode="&#xfa;" horiz-adv-x="514" d="M433 168q-10 -51 -26.5 -83t-43.5 -52q-30 -22 -67.5 -32t-99.5 -10h-11q-87 0 -135.5 29.5t-48.5 91.5q0 16 2.5 34.5t7.5 41.5l53 273q3 15 11 22t28 7h91q17 0 23.5 -4.5t6.5 -12.5q0 -5 -2.5 -20t-7.5 -37l-46 -237q-3 -15 -3 -27q0 -32 44 -32h4q23 0 41 13 q8 7 13 17.5t10 33.5l54 277q3 15 11 22t28 7h91q17 0 23.5 -5t6.5 -14q0 -7 -6 -37zM397 763q5 4 10.5 6.5t10.5 2.5q10 0 17 -13l36 -62q5 -8 5 -15q0 -8 -5 -13t-18 -13l-175 -105q-11 -7 -19 -7q-6 0 -9.5 3t-8.5 10l-29 44q-6 9 -6 14q0 8 15 19z" />
<glyph unicode="&#xfb;" horiz-adv-x="514" d="M433 168q-10 -51 -26.5 -83t-43.5 -52q-30 -22 -67.5 -32t-99.5 -10h-11q-87 0 -135.5 29.5t-48.5 91.5q0 16 2.5 34.5t7.5 41.5l53 273q3 15 11 22t28 7h91q17 0 23.5 -4.5t6.5 -12.5q0 -5 -2.5 -20t-7.5 -37l-46 -237q-3 -15 -3 -27q0 -32 44 -32h4q23 0 41 13 q8 7 13 17.5t10 33.5l54 277q3 15 11 22t28 7h91q17 0 23.5 -5t6.5 -14q0 -7 -6 -37zM225 565q-8 -7 -11.5 -9t-8.5 -2q-6 0 -12 6l-38 37q-12 12 1 25l114 107q8 8 15 10.5t15 2.5h61q8 0 13.5 -2.5t10.5 -10.5l70 -105q6 -9 6 -15q0 -4 -2 -7t-9 -8l-51 -33q-4 -2 -8 -4.5 t-8 -2.5q-8 0 -16 11l-54 75h-5z" />
<glyph unicode="&#xfc;" horiz-adv-x="514" d="M433 168q-10 -51 -26.5 -83t-43.5 -52q-30 -22 -67.5 -32t-99.5 -10h-11q-87 0 -135.5 29.5t-48.5 91.5q0 16 2.5 34.5t7.5 41.5l53 273q3 15 11 22t28 7h91q17 0 23.5 -4.5t6.5 -12.5q0 -5 -2.5 -20t-7.5 -37l-46 -237q-3 -15 -3 -27q0 -32 44 -32h4q23 0 41 13 q8 7 13 17.5t10 33.5l54 277q3 15 11 22t28 7h91q17 0 23.5 -5t6.5 -14q0 -7 -6 -37zM198 567q-25 0 -39 12t-14 34q0 11 3 23l1 4q8 31 24.5 48t51.5 17h7q25 0 39 -12t14 -34q0 -11 -3 -23l-1 -4q-8 -31 -24.5 -48t-51.5 -17h-7zM384 567q-25 0 -39 12t-14 34q0 11 3 23 l1 4q8 31 24.5 48t51.5 17h7q25 0 39 -12t14 -34q0 -11 -3 -23l-1 -4q-8 -31 -24.5 -48t-51.5 -17h-7z" />
<glyph unicode="&#xfd;" horiz-adv-x="488" d="M492 460q-55 -137 -133 -296t-196 -345q-14 -23 -31 -23q-6 0 -13.5 2.5t-16.5 6.5l-53 21q-13 5 -17 10.5t-4 11.5t2.5 11t6.5 10l21 31.5t21.5 33t20 31.5t16.5 27q-40 13 -52 74q-6 34 -12.5 84.5t-12 106t-9.5 109.5t-7 95q-1 29 36 29h84q17 0 23.5 -4.5t6.5 -19.5 q2 -89 6 -174t11 -160h5q20 40 39.5 82.5t38 85.5t35 84t29.5 79q5 16 14 21.5t24 5.5h96q34 0 21 -30zM379 763q5 4 10.5 6.5t10.5 2.5q10 0 17 -13l36 -62q5 -8 5 -15q0 -8 -5 -13t-18 -13l-175 -105q-11 -7 -19 -7q-6 0 -9.5 3t-8.5 10l-29 44q-6 9 -6 14q0 8 15 19z" />
<glyph unicode="&#xfe;" horiz-adv-x="531" d="M238 -9q-25 0 -53 6t-45 14l-30 -153q-4 -22 -13.5 -28.5t-35.5 -6.5h-78q-33 0 -33 19q0 5 0.5 12t5.5 30l151 769q3 14 10 19t23 5h98q17 0 22.5 -4.5t5.5 -12.5t-2.5 -21t-5.5 -27l-26 -134q46 21 114 21h7q67 0 102 -28.5t35 -91.5q0 -18 -5.5 -56.5t-19.5 -114.5 q-11 -60 -26.5 -104.5t-48.5 -71.5q-30 -25 -64.5 -33t-82.5 -8h-5zM177 203q-8 -38 -8 -51q0 -20 12.5 -28t38.5 -8h5q22 0 36 6.5t23 19.5t14.5 33.5t11.5 47.5q8 35 12.5 65.5t4.5 42.5q0 42 -51 42h-7q-32 0 -48 -14t-24 -54z" />
<glyph unicode="&#xff;" horiz-adv-x="488" d="M492 460q-55 -137 -133 -296t-196 -345q-14 -23 -31 -23q-6 0 -13.5 2.5t-16.5 6.5l-53 21q-13 5 -17 10.5t-4 11.5t2.5 11t6.5 10l21 31.5t21.5 33t20 31.5t16.5 27q-40 13 -52 74q-6 34 -12.5 84.5t-12 106t-9.5 109.5t-7 95q-1 29 36 29h84q17 0 23.5 -4.5t6.5 -19.5 q2 -89 6 -174t11 -160h5q20 40 39.5 82.5t38 85.5t35 84t29.5 79q5 16 14 21.5t24 5.5h96q34 0 21 -30zM175 567q-25 0 -39 12t-14 34q0 11 3 23l1 4q8 31 24.5 48t51.5 17h7q25 0 39 -12t14 -34q0 -11 -3 -23l-1 -4q-8 -31 -24.5 -48t-51.5 -17h-7zM361 567q-25 0 -39 12 t-14 34q0 11 3 23l1 4q8 31 24.5 48t51.5 17h7q25 0 39 -12t14 -34q0 -11 -3 -23l-1 -4q-8 -31 -24.5 -48t-51.5 -17h-7z" />
<glyph unicode="&#x110;" horiz-adv-x="659" d="M207 0q-38 0 -77.5 1t-59.5 3q-30 3 -30 28q0 5 2.5 19t9.5 47l32 170h-51q-21 0 -21 14q0 3 1 8t3 19l8 41q3 17 9.5 22.5t20.5 5.5h51l44 225q5 24 15 31t27 9q66 6 170 6h11q92 0 144 -18t78 -51q28 -36 34.5 -87.5t-5.5 -136.5q-9 -64 -21 -110.5t-27 -80t-33 -56.5 t-40 -41q-46 -38 -112 -53t-162 -15h-21zM315 510q-11 -1 -15 -4.5t-6 -12.5l-22 -115h69q21 0 21 -14q0 -3 -1 -8t-3 -19l-8 -41q-3 -17 -9.5 -22.5t-20.5 -5.5h-69l-12 -63q-9 -50 -9 -54q0 -7 3.5 -9t9.5 -3q9 -1 19.5 -1h18.5h9q32 0 54.5 7t39.5 22q12 10 21 21.5 t16.5 27.5t14 38t13.5 52q8 33 12.5 66.5t4.5 53.5q0 38 -17 59q-12 15 -32 21t-51 6h-9q-9 0 -21.5 -0.5t-20.5 -1.5z" />
<glyph unicode="&#x131;" horiz-adv-x="266" d="M148 29q-2 -14 -10 -21.5t-28 -7.5h-92q-17 0 -23 4.5t-6 12.5q0 6 2 16t5 24l78 404q3 14 11 21.5t28 7.5h92q16 0 22 -4.5t6 -13.5q0 -6 -2 -17t-7 -37z" />
<glyph unicode="&#x152;" horiz-adv-x="882" d="M561 264q-3 -16 -6.5 -35t-5.5 -36q-2 -14 -3 -24t-1 -18q0 -15 18 -15h208q14 0 20 -3t6 -14q0 -6 -1.5 -16.5t-4.5 -29.5l-7 -42q-4 -18 -11.5 -24.5t-28.5 -6.5h-261q-38 0 -60 6.5t-32 23.5q-37 -21 -73 -30t-74 -9h-8q-57 0 -97.5 13.5t-62.5 33.5q-26 23 -37 55 t-11 79q0 21 6 70t21 126q9 48 20 85.5t26 67t35 52t47 40.5q63 43 165 43h8q41 0 77.5 -12.5t66.5 -35.5q22 23 55 31t82 8h239q14 0 18.5 -2.5t4.5 -10.5q0 -4 -1.5 -13.5t-5.5 -30.5l-9 -49q-4 -18 -9.5 -24t-29.5 -6h-207q-14 0 -19.5 -4.5t-8.5 -15.5q-5 -17 -11 -45.5 t-11 -55.5h205q15 0 21 -2.5t6 -10.5t-1.5 -18.5t-6.5 -30.5l-9 -41q-3 -13 -10 -18t-23 -5h-208zM283 131q26 0 53 8t54 26q5 34 11.5 76t15.5 94q8 48 15.5 85t15.5 66q-42 30 -90 30h-10q-23 0 -39.5 -6t-30.5 -18q-20 -17 -33 -55.5t-24 -94.5q-11 -57 -16 -87.5 t-5 -50.5q0 -33 13 -49q19 -24 62 -24h8z" />
<glyph unicode="&#x153;" horiz-adv-x="781" d="M177 -9q-46 0 -80.5 10.5t-56.5 28.5t-32 44.5t-10 58.5q0 13 2.5 33.5t6.5 45.5t9 51.5t11 50.5q13 55 34 90t59 59q29 18 66 27t90 9h12q43 0 73 -9t51 -25q56 34 148 34h10q48 0 84 -13t52 -31q18 -21 25 -44t7 -52q0 -21 -4 -48.5t-11 -65.5l-5 -27q-3 -16 -10.5 -22 t-23.5 -6h-237q-4 -19 -4 -35q0 -20 16.5 -29.5t66.5 -9.5h6q24 0 53.5 4.5t52.5 9.5q4 1 9 2t10 1q13 0 15 -17l4 -46q1 -9 1.5 -17t0.5 -13q0 -16 -31 -26q-27 -8 -71 -15.5t-89 -7.5h-14q-46 0 -78.5 11t-53.5 25q-30 -17 -68 -26.5t-83 -9.5h-13zM575 294q12 0 13 10 l2 9q2 11 3 21t1 18q0 12 -6 21q-10 14 -42 14h-5q-30 0 -45 -14q-9 -8 -15.5 -21t-10.5 -36l-4 -20v-2h109zM177 274q-11 -49 -15 -75.5t-4 -41.5q0 -20 10.5 -30.5t36.5 -10.5h2q14 0 27 3t22 10q14 11 22.5 30t16.5 57q11 49 15 75.5t4 41.5q0 20 -10.5 30.5t-36.5 10.5 h-2q-14 0 -27 -3t-22 -10q-14 -11 -22 -30t-17 -57z" />
<glyph unicode="&#x178;" horiz-adv-x="530" d="M150 0q-28 0 -28 17q0 10 7 42l26 132q-14 42 -28 93.5t-26 107.5t-21 112.5t-13 109.5q-3 33 24 33h99q22 0 29.5 -2.5t9.5 -21.5q2 -32 5.5 -69.5t8 -75.5t9.5 -74t10 -65h5q16 29 35 65t37.5 74t36 75.5t32.5 69.5q7 19 15 21.5t30 2.5h104q20 0 20 -14 q0 -10 -6 -22.5t-14 -29.5q-24 -49 -52.5 -101.5t-59.5 -104t-62.5 -100t-61.5 -88.5l-30 -156q-4 -18 -11.5 -24.5t-26.5 -6.5h-103zM238 724q-25 0 -39 12t-14 34q0 11 3 23l1 4q8 31 24.5 48t51.5 17h7q25 0 39 -12t14 -34q0 -11 -3 -23l-1 -4q-8 -31 -24.5 -48 t-51.5 -17h-7zM424 724q-25 0 -39 12t-14 34q0 11 3 23l1 4q8 31 24.5 48t51.5 17h7q25 0 39 -12t14 -34q0 -11 -3 -23l-1 -4q-8 -31 -24.5 -48t-51.5 -17h-7z" />
<glyph unicode="&#x2c6;" horiz-adv-x="365" d="M151 565q-8 -7 -11.5 -9t-8.5 -2q-6 0 -12 6l-38 37q-12 12 1 25l114 107q8 8 15 10.5t15 2.5h61q8 0 13.5 -2.5t10.5 -10.5l70 -105q6 -9 6 -15q0 -4 -2 -7t-9 -8l-51 -33q-4 -2 -8 -4.5t-8 -2.5q-8 0 -16 11l-54 75h-5z" />
<glyph unicode="&#x2da;" horiz-adv-x="446" d="M267 622q14 0 24.5 9.5t10.5 26.5q0 11 -7 16.5t-17 5.5q-14 0 -24.5 -9.5t-10.5 -26.5q0 -11 7 -16.5t17 -5.5zM256 549q-38 0 -62 23t-24 61q0 26 9 48t25 38t38 25t47 9q40 0 63 -23t23 -61q0 -26 -9 -48t-25 -38t-38 -25t-47 -9z" />
<glyph unicode="&#x2dc;" horiz-adv-x="345" d="M293 660q14 0 25 8.5t25 28.5q7 9 12.5 9t13.5 -5l37 -24q15 -9 5 -26q-25 -42 -57.5 -68.5t-71.5 -26.5q-24 0 -38.5 7t-26 16t-22 16t-25.5 7q-14 0 -25 -8.5t-25 -28.5q-7 -9 -12.5 -9t-13.5 5l-37 24q-15 9 -5 26q25 42 57.5 68.5t71.5 26.5q24 0 39 -7t26.5 -16 t22 -16t24.5 -7z" />
<glyph unicode="&#x2013;" horiz-adv-x="500" d="M56 188q-25 0 -32.5 7t-7.5 25v75q0 18 8.5 25t31.5 7h360q23 0 31.5 -7t8.5 -25v-75q0 -18 -7.5 -25t-32.5 -7h-360z" />
<glyph unicode="&#x2014;" horiz-adv-x="1000" d="M56 188q-25 0 -32.5 7t-7.5 25v75q0 18 8.5 25t31.5 7h860q23 0 31.5 -7t8.5 -25v-75q0 -18 -7.5 -25t-32.5 -7h-860z" />
<glyph unicode="&#x2018;" horiz-adv-x="272" d="M134.006 402.01q-37.998 0 -53.4971 13.499q-15.499 13.5 -16.499 40.498q0 6.99902 1 16.499q1 9.49902 5 27.498q4 19.999 14.999 46.9971q10.999 26.999 29.498 57.9971t44.4971 63.9961q25.999 32.998 59.9971 63.9961q16.999 14.999 35.9971 2l36.998 -25.999 q15.999 -10.999 -1 -27.998q-12.999 -13.999 -24.498 -26.498q-11.5 -12.5 -20.499 -23.499q-12.999 -13.999 -20.999 -24.498q-7.99902 -10.5 -7.99902 -20.499q0 -5 5.99902 -12.999l10 -9q12.999 -11.999 12.999 -30.998q0 -13.999 -7.99902 -53.9961 q-8 -39.998 -29.999 -58.4971q-21.998 -18.499 -63.9961 -18.499h-9.99902z" />
<glyph unicode="&#x2019;" horiz-adv-x="273" d="M231 743q38 0 53.5 -13.5t16.5 -40.5q0 -7 -1 -16.5t-5 -27.5q-4 -20 -15 -47t-29.5 -58t-44.5 -64t-60 -64q-17 -15 -36 -2l-37 26q-16 11 1 28q13 14 24.5 26.5t20.5 23.5q13 14 21 24.5t8 20.5q0 5 -6 13l-10 9q-13 12 -13 31q0 14 8 54t30 58.5t64 18.5h10z" />
<glyph unicode="&#x201a;" horiz-adv-x="272" d="M108 165q38 0 53.5 -13.5t16.5 -40.5q0 -7 -1 -16.5t-5 -27.5q-4 -20 -15 -47t-29.5 -58t-44.5 -64t-60 -64q-17 -15 -36 -2l-37 26q-16 11 1 28q13 14 24.5 26.5t20.5 23.5q13 14 21 24.5t8 20.5q0 5 -6 13l-10 9q-13 12 -13 31q0 14 8 54t30 58.5t64 18.5h10z" />
<glyph unicode="&#x201c;" horiz-adv-x="519" d="M381.006 402.01q-37.998 0 -53.4971 13.499q-15.499 13.5 -16.499 40.498q0 6.99902 1 16.499q1 9.49902 5 27.498q4 19.999 14.999 46.9971q10.999 26.999 29.498 57.9971t44.4971 63.9961q25.999 32.998 59.9971 63.9961q16.999 14.999 35.9971 2l36.998 -25.999 q15.999 -10.999 -1 -27.998q-12.999 -13.999 -24.498 -26.498q-11.5 -12.5 -20.499 -23.499q-12.999 -13.999 -20.999 -24.498q-7.99902 -10.5 -7.99902 -20.499q0 -5 5.99902 -12.999l10 -9q12.999 -11.999 12.999 -30.998q0 -13.999 -7.99902 -53.9961 q-8 -39.998 -29.999 -58.4971q-21.998 -18.499 -63.9961 -18.499h-9.99902zM134.006 402.01q-37.998 0 -53.4971 13.499q-15.499 13.5 -16.499 40.498q0 6.99902 1 16.499q1 9.49902 5 27.498q4 19.999 14.999 46.9971q10.999 26.999 29.498 57.9971t44.4971 63.9961 q25.999 32.998 59.9971 63.9961q16.999 14.999 35.9971 2l36.998 -25.999q15.999 -10.999 -1 -27.998q-12.999 -13.999 -24.498 -26.498q-11.5 -12.5 -20.499 -23.499q-12.999 -13.999 -20.999 -24.498q-7.99902 -10.5 -7.99902 -20.499q0 -5 5.99902 -12.999l10 -9 q12.999 -11.999 12.999 -30.998q0 -13.999 -7.99902 -53.9961q-8 -39.998 -29.999 -58.4971q-21.998 -18.499 -63.9961 -18.499h-9.99902z" />
<glyph unicode="&#x201d;" horiz-adv-x="519" d="M477 744q38 0 53.5 -13.5t16.5 -40.5q0 -7 -1 -16.5t-5 -27.5q-4 -20 -15 -47t-29.5 -58t-44.5 -64t-60 -64q-17 -15 -36 -2l-37 26q-16 11 1 28q13 14 24.5 26.5t20.5 23.5q13 14 21 24.5t8 20.5q0 5 -6 13l-10 9q-13 12 -13 31q0 14 8 54t30 58.5t64 18.5h10zM231 744 q38 0 53.5 -13.5t16.5 -40.5q0 -7 -1 -16.5t-5 -27.5q-4 -20 -15 -47t-29.5 -58t-44.5 -64t-60 -64q-17 -15 -36 -2l-37 26q-16 11 1 28q13 14 24.5 26.5t20.5 23.5q13 14 21 24.5t8 20.5q0 5 -6 13l-10 9q-13 12 -13 31q0 14 8 54t30 58.5t64 18.5h10z" />
<glyph unicode="&#x201e;" horiz-adv-x="519" d="M355 165q38 0 53.5 -13.5t16.5 -40.5q0 -7 -1 -16.5t-5 -27.5q-4 -20 -15 -47t-29.5 -58t-44.5 -64t-60 -64q-17 -15 -36 -2l-37 26q-16 11 1 28q13 14 24.5 26.5t20.5 23.5q13 14 21 24.5t8 20.5q0 5 -6 13l-10 9q-13 12 -13 31q0 14 8 54t30 58.5t64 18.5h10zM108 165 q38 0 53.5 -13.5t16.5 -40.5q0 -7 -1 -16.5t-5 -27.5q-4 -20 -15 -47t-29.5 -58t-44.5 -64t-60 -64q-17 -15 -36 -2l-37 26q-16 11 1 28q13 14 24.5 26.5t20.5 23.5q13 14 21 24.5t8 20.5q0 5 -6 13l-10 9q-13 12 -13 31q0 14 8 54t30 58.5t64 18.5h10z" />
<glyph unicode="&#x2022;" horiz-adv-x="400" d="M155 122q-26 0 -47.5 9t-37 24t-24 36t-8.5 45q0 33 13.5 63.5t37 54.5t54.5 38t67 14q26 0 47.5 -9t37 -24t24 -36t8.5 -45q0 -33 -13.5 -63.5t-37 -54.5t-55 -38t-66.5 -14z" />
<glyph unicode="&#x2026;" horiz-adv-x="723" d="M162 118q0 -11 -1.5 -25t-5.5 -28q-11 -44 -33.5 -59t-59.5 -15h-9q-36 0 -52 13t-16 37q0 11 2 25t4 25q11 44 34 59t60 15h9q68 0 68 -47zM403 118q0 -11 -1.5 -25t-5.5 -28q-11 -44 -33.5 -59t-59.5 -15h-9q-36 0 -52 13t-16 37q0 11 2 25t4 25q11 44 34 59t60 15h9 q68 0 68 -47zM644 118q0 -11 -1.5 -25t-5.5 -28q-11 -44 -33.5 -59t-59.5 -15h-9q-36 0 -52 13t-16 37q0 11 2 25t4 25q11 44 34 59t60 15h9q68 0 68 -47z" />
<glyph unicode="&#x2039;" horiz-adv-x="408" d="M196 219l96 -104q13 -14 13 -25q0 -7 -3.5 -13t-14.5 -15l-47 -37q-10 -8 -15.5 -11.5t-11.5 -3.5q-10 0 -22 12l-164 157q-11 11 -14.5 18.5t-3.5 17.5t3 24q2 9 4.5 15.5t6.5 12t10 10.5t15 12l224 156q15 11 24 11q7 0 12 -4t10 -11l36 -45q17 -21 17 -32 q0 -8 -3.5 -13.5t-14.5 -13.5z" />
<glyph unicode="&#x203a;" horiz-adv-x="408" d="M180 247l-96 104q-13 14 -13 25q0 7 3.5 13t14.5 15l47 37q10 8 15.5 11.5t11.5 3.5q10 0 22 -12l164 -157q11 -11 14.5 -18.5t3.5 -17.5q0 -11 -3 -24q-2 -9 -4.5 -15.5t-6.5 -12t-10 -10.5t-15 -12l-224 -156q-15 -11 -24 -11q-7 0 -12 4t-10 11l-36 45q-17 21 -17 32 q0 8 3.5 13.5t14.5 13.5z" />
<glyph unicode="&#x2044;" horiz-adv-x="307" d="M322 638q8 10 15.5 14t23.5 4h86q13 0 17.5 -7.5t-3.5 -18.5l-476 -621q-8 -10 -15.5 -14t-23.5 -4h-86q-13 0 -17.5 7.5t3.5 18.5z" />
<glyph unicode="&#x20ac;" d="M301 -9q-144 0 -192 67q-12 17 -20.5 42.5t-8.5 59.5v17.5t1 21.5h-49q-14 0 -17 5.5t0 20.5l7 38q3 17 8 21.5t19 4.5h46l11 59h-46q-14 0 -17 5.5t0 20.5l7 38q3 17 8 21.5t19 4.5h48q14 57 36.5 98t56.5 68t80 39.5t108 12.5q40 0 84 -8.5t75 -21.5q17 -8 18.5 -18.5 t-4.5 -26.5l-24 -66q-5 -14 -13 -15.5t-25 3.5q-23 7 -50.5 11t-51.5 4h-1q-41 0 -72 -15.5t-47 -64.5h163q14 0 17 -5.5t0 -20.5l-7 -38q-3 -17 -8 -21.5t-19 -4.5h-166l-11 -59h166q14 0 17 -6t0 -20l-7 -38q-3 -17 -8 -21.5t-19 -4.5h-160v-7q0 -32 22 -47.5t78 -15.5 q12 0 27.5 1.5t32 4t31.5 5t24 5.5q26 7 26 -18v-76q0 -13 -4.5 -20t-24.5 -14q-15 -5 -34 -10t-40.5 -8.5t-44 -5.5t-42.5 -2h-3z" />
<glyph unicode="&#x2122;" horiz-adv-x="755" d="M477 365q-17 0 -21.5 4.5t-5.5 15.5q-2 32 -3.5 79t-1.5 89q-12 -49 -22.5 -97.5t-21.5 -100.5q-3 -13 -9.5 -17t-18.5 -4h-50q-26 0 -21 21q16 75 33.5 143.5t33.5 121.5q5 17 11.5 22t22.5 5h99q16 0 22 -5t6 -19q0 -29 -0.5 -66.5t0.5 -73.5q14 36 28.5 73.5 t25.5 66.5q6 14 13 19t26 5h100q14 0 21 -4t5 -23q-6 -53 -16 -121.5t-23 -143.5q-3 -13 -8 -17t-19 -4h-55q-25 0 -20 21q10 51 17.5 98.5t15.5 95.5q-8 -21 -17.5 -43.5t-18.5 -44t-17.5 -41.5t-15.5 -35q-6 -14 -12.5 -17t-20.5 -3h-62zM316 647q12 0 15 -4.5t1 -16.5 l-8 -42q-3 -14 -7.5 -17.5t-18.5 -3.5h-58l-41 -208q-3 -14 -8 -17.5t-19 -3.5h-56q-13 0 -17.5 4.5t-2.5 16.5l41 208h-58q-14 0 -16.5 4.5t-0.5 16.5l8 42q2 13 6.5 17t16.5 4h223z" />
<glyph unicode="&#x25fc;" horiz-adv-x="490" d="M0 490h490v-490h-490v490z" />
<glyph horiz-adv-x="415" d="M401 784q9 -6 9 -15t-12 -25l-29 -39q-13 -17 -23 -17q-8 0 -20 6l-177 99q-7 4 -11 8.5t-4 12.5q0 7 8 19l46 69q9 14 21 14q10 0 23 -10z" />
<glyph horiz-adv-x="415" d="M394 896q10 5 17 5q12 0 19 -16l26 -67q3 -8 3 -13q0 -7 -6 -12.5t-22 -11.5l-190 -74q-10 -4 -17 -4q-12 0 -19 16l-21 48q-3 7 -3 13q0 9 18 18z" />
<glyph horiz-adv-x="391" d="M176 724q-25 0 -39 12t-14 34q0 11 3 23l1 4q8 31 24.5 48t51.5 17h7q25 0 39 -12t14 -34q0 -11 -3 -23l-1 -4q-8 -31 -24.5 -48t-51.5 -17h-7zM362 724q-25 0 -39 12t-14 34q0 11 3 23l1 4q8 31 24.5 48t51.5 17h7q25 0 39 -12t14 -34q0 -11 -3 -23l-1 -4 q-8 -31 -24.5 -48t-51.5 -17h-7z" />
<glyph horiz-adv-x="365" d="M177 699q-8 -7 -11.5 -9t-8.5 -2q-6 0 -12 6l-38 37q-12 12 1 25l114 107q8 8 15 10.5t15 2.5h61q8 0 13.5 -2.5t10.5 -10.5l70 -105q6 -9 6 -15q0 -4 -2 -7t-9 -8l-51 -33q-4 -2 -8 -4.5t-8 -2.5q-8 0 -16 11l-54 75h-5z" />
<glyph horiz-adv-x="341" d="M317 800q14 0 25 8.5t25 28.5q7 9 12.5 9t13.5 -5l37 -24q15 -9 5 -26q-25 -42 -57.5 -68.5t-71.5 -26.5q-24 0 -38.5 7t-26 16t-22 16t-25.5 7q-14 0 -25 -8.5t-25 -28.5q-7 -9 -12.5 -9t-13.5 5l-37 24q-15 9 -5 26q25 42 57.5 68.5t71.5 26.5q24 0 39 -7t26.5 -16 t22 -16t24.5 -7z" />
<glyph horiz-adv-x="446" d="M289 752q14 0 24.5 9.5t10.5 26.5q0 11 -7 16.5t-17 5.5q-14 0 -24.5 -9.5t-10.5 -26.5q0 -11 7 -16.5t17 -5.5zM278 679q-38 0 -62 23t-24 61q0 26 9 48t25 38t38 25t47 9q40 0 63 -23t23 -61q0 -26 -9 -48t-25 -38t-38 -25t-47 -9z" />
</font>
</defs>
</svg>
