<?xml version="1.0" standalone="no"?>
<!DOCTYPE svg PUBLIC "-//W3C//DTD SVG 20010904//EN"
 "http://www.w3.org/TR/2001/REC-SVG-20010904/DTD/svg10.dtd">
<svg version="1.0" xmlns="http://www.w3.org/2000/svg"
 width="16.000000pt" height="16.000000pt" viewBox="0 0 16.000000 16.000000"
 preserveAspectRatio="xMidYMid meet">
<metadata>
Created by potrace 1.11, written by Peter Selinger 2001-2013
</metadata>
<g transform="translate(0.000000,16.000000) scale(0.006154,-0.006154)"
fill="#000000" stroke="none">
<path d="M1160 2495 c-263 -56 -473 -211 -589 -435 -125 -239 -130 -498 -16
-747 l36 -80 -75 -222 c-41 -121 -73 -221 -71 -221 2 0 14 4 27 10 13 5 116
39 229 75 l206 65 64 -30 c111 -52 228 -73 381 -68 148 6 221 24 343 85 395
197 568 663 398 1068 -97 231 -294 404 -545 481 -104 32 -288 41 -388 19z
m317 -141 c153 -35 319 -144 407 -268 159 -222 180 -492 59 -736 -49 -97 -178
-230 -276 -285 -122 -67 -204 -88 -347 -89 -141 -1 -226 19 -335 78 l-60 33
-130 -42 c-72 -23 -131 -41 -133 -39 -2 1 15 57 38 124 l41 122 -50 101 c-58
115 -81 209 -81 323 0 313 221 594 530 675 85 22 247 24 337 3z"/>
<path d="M1134 1966 c-42 -19 -64 -53 -64 -99 0 -56 52 -107 108 -107 48 0 86
28 102 74 14 43 5 77 -29 110 -33 32 -77 40 -117 22z"/>
<path d="M1642 1880 c-91 -55 -96 -172 -12 -244 40 -34 118 -36 168 -6 42 26
77 99 68 143 -21 105 -136 160 -224 107z"/>
<path d="M811 1744 c-41 -34 -42 -75 -2 -115 33 -33 50 -35 90 -14 55 28 60
104 9 139 -32 23 -62 20 -97 -10z"/>
<path d="M315 713 c-16 -2 -47 -9 -67 -14 l-38 -10 0 -255 0 -255 23 7 c12 3
28 10 36 14 8 4 33 1 55 -7 23 -9 73 -16 112 -16 89 0 158 30 188 83 25 42 26
122 2 168 -14 28 -58 64 -90 75 -5 2 -1 15 9 30 33 51 3 127 -67 163 -29 15
-117 25 -163 17z m130 -98 c32 -32 32 -75 0 -113 -14 -17 -25 -32 -25 -35 0
-3 16 -8 35 -11 19 -4 48 -18 65 -33 28 -23 31 -30 28 -76 -4 -71 -34 -92
-131 -92 -120 1 -117 -4 -117 199 0 95 3 176 7 179 3 4 31 7 60 7 44 0 58 -5
78 -25z"/>
<path d="M777 614 c-54 -17 -62 -29 -48 -67 l11 -27 37 16 c21 9 62 17 92 17
45 1 56 -2 72 -22 36 -44 26 -55 -64 -72 -94 -18 -150 -49 -172 -96 -40 -83 3
-162 100 -184 48 -11 61 -10 114 8 53 17 65 18 92 6 17 -7 33 -13 35 -13 2 0
4 75 4 168 0 184 -8 216 -63 256 -36 27 -143 32 -210 10z m183 -279 c0 -62 -1
-66 -27 -76 -100 -40 -188 17 -138 89 16 22 90 50 138 51 27 1 27 0 27 -64z"/>
<path d="M1265 614 c-38 -14 -52 -14 -102 1 l-23 7 0 -216 0 -216 45 0 45 0 0
168 0 168 33 12 c53 19 111 15 133 -9 17 -18 19 -41 22 -180 l4 -159 41 0 42
0 -5 185 -5 185 -31 31 c-27 27 -40 32 -95 35 -42 2 -78 -1 -104 -12z"/>
<path d="M2118 614 c-57 -17 -61 -23 -47 -62 l11 -31 41 16 c88 36 177 14 177
-42 0 -19 -7 -23 -51 -29 -76 -10 -155 -43 -183 -77 -102 -121 38 -259 206
-202 47 16 59 17 86 6 l32 -13 0 171 c0 201 -8 230 -74 260 -49 22 -132 24
-198 3z m187 -279 c0 -61 -1 -65 -28 -76 -98 -41 -191 18 -142 89 17 23 90 50
140 51 l30 1 0 -65z"/>
<path d="M1621 515 c-50 -57 -91 -107 -91 -110 0 -4 39 -53 88 -110 l87 -105
53 0 54 0 -30 38 c-17 20 -55 66 -86 102 -31 36 -56 70 -56 75 0 6 41 56 90
113 l90 102 -54 0 -54 0 -91 -105z"/>
<path d="M1880 405 l0 -215 45 0 45 0 0 215 0 215 -45 0 -45 0 0 -215z"/>
</g>
</svg>
